<svg id="Layer_1" data-name="Layer 1" xmlns="http://www.w3.org/2000/svg" xmlns:xlink="http://www.w3.org/1999/xlink" viewBox="0 0 1500 1000"><defs><style>.cls-1{fill:none;}.cls-2{clip-path:url(#clip-path);}.cls-3{fill:#dc1f26;}.cls-4{fill:#c7323e;}.cls-5{fill:#4ba556;}.cls-6{fill:#fff;}.cls-7{fill:#fcfdff;}</style><clipPath id="clip-path"><rect class="cls-1" width="1500" height="1000"/></clipPath></defs><title>Flag-of-Belarus</title><g class="cls-2"><rect class="cls-3" x="-78.43" y="-100" width="1656.86" height="1200"/><polygon class="cls-4" points="105.51 1000 153.07 1000 200.63 1000 247.53 1000 248.18 1000 295.08 1000 295.74 1000 343.3 1000 359.14 1000 1500.5 1000 1500.5 696.14 1500.5 0 359.14 0 343.3 0 311.58 0 232.32 0 184.76 0 178.44 0 175.25 0 168.93 0 121.37 0 42.09 0 10.4 0 -0.5 0 -0.5 3.28 -0.5 39.11 -0.5 57.03 -0.5 92.87 -0.5 110.8 -0.5 164.55 -0.5 182.47 -0.5 236.22 -0.5 254.14 -0.5 289.97 -0.5 325.82 -0.5 361.66 -0.5 379.58 -0.5 397.49 -0.5 451.26 -0.5 576.68 -0.5 630.45 -0.5 648.36 -0.5 666.28 -0.5 696.14 -0.5 702.12 -0.5 737.95 -0.5 773.79 -0.5 791.72 -0.5 845.47 -0.5 863.39 -0.5 917.14 -0.5 935.06 -0.5 970.92 -0.5 988.84 -0.5 1000 10.4 1000 57.23 1000 57.95 1000 104.81 1000 105.51 1000"/><polygon class="cls-5" points="105.51 1000 153.07 1000 200.63 1000 247.53 1000 248.18 1000 295.08 1000 295.74 1000 343.3 1000 359.14 1000 1500.5 1000 1500.5 696.14 359.14 696.14 343.3 696.14 264.04 696.14 232.32 696.14 178.44 696.14 175.25 696.14 121.37 696.14 89.65 696.14 10.4 696.14 -0.5 696.14 -0.5 702.12 -0.5 737.95 -0.5 773.79 -0.5 791.72 -0.5 845.47 -0.5 863.39 -0.5 917.14 -0.5 935.06 -0.5 970.92 -0.5 988.84 -0.5 1000 10.4 1000 57.23 1000 57.95 1000 104.81 1000 105.51 1000"/><rect class="cls-6" x="-0.5" width="268.39" height="1000"/><path class="cls-4" d="M46.17,0h35V16.39H92.85V32.78h11.67v16.4h11.67V65.57h11.67V82H116.19V98.36H104.52v16.4H92.85v16.39H81.18v16.39H69.51v16.39H57.85V147.54H46.17V131.15H34.51V114.76H22.84V98.36H11.17V82H-.5V65.57H11.17V49.18H22.84V32.78H34.51V16.39H46.17ZM57.85,32.78H69.51v16.4H81.18V65.57H92.85V82H81.18V98.36H69.51v16.4H57.85V98.36H46.17V82H34.51V65.57H46.17V49.18H57.85Zm0,32.79H69.52V82H57.85ZM-.5,16.39H11.17v16.4H-.5Zm0,98.37H11.17v16.39H-.5ZM127.86,0h7V32.79h-7Zm0,114.76h7v32.78h-7Zm-105,32.78H34.51v16.39H46.17v16.4H57.85v16.39H46.17v16.39H34.51v16.4H22.84v-16.4H11.17V196.72H-.5V180.33H11.17v-16.4H22.84Zm0,32.79H34.51v16.39H22.84Zm70-32.79h11.67v16.39H116.2v16.4h11.67v16.39H116.19v16.39H104.52v16.4H92.85v-16.4H81.18V196.72H69.51V180.33H81.18v-16.4H92.85Zm0,32.79h11.67v16.39H92.85ZM-.5,245.9H11.17v16.4H-.5Zm128.36-16.39h7V262.3h-7Z"/><path class="cls-4" d="M-.5,295.08H11.17V278.69H22.84V262.3H34.51V245.9H46.17V229.51H57.85v-16.4H69.51v16.4H81.18V245.9H92.85v16.4h11.67v16.39h11.67v16.39h11.67v16.39h7v65.58h-7v16.39H116.19v16.4H104.52v16.39H92.85v16.39H81.18V459H69.51v42.62H46.17V491.8H34.51V475.41H22.84V459H11.17V442.6H-.5V393.44H11.17v16.4H22.84v16.39H34.51v16.39H46.17V426.23H57.85V409.84H69.51v-16.4H81.18V377.05H92.85V360.66h11.67v-16.4H92.85V327.87H81.18v-16.4h-35v16.4H69.51v16.39H57.85v16.4H46.17v16.39H34.51V360.66H22.84v-16.4H11.17V327.87H-.5Zm0,65.58H11.17v16.39H-.5Zm128.36,49.18h7v16.39h-7Zm-23.34,32.78h11.67V459h11.67v16.39h7v26.23h-7V491.8H116.19V475.41H104.52ZM81.18,491.8H92.85v9.84H81.18Z"/><path class="cls-4" d="M221.22,0h-35V16.39H174.54V32.78H162.87v16.4H151.2V65.57H139.53V82H151.2V98.36h11.67v16.4h11.67v16.39h11.67v16.39h11.67v16.39h11.67V147.54h11.67V131.15h11.67V114.76h11.66V98.36h11.68V82h11.66V65.57H256.23V49.18H244.55V32.78H232.89V16.39H221.22ZM209.55,32.78H197.88v16.4H186.21V65.57H174.54V82h11.67V98.36h11.67v16.4h11.67V98.36h11.67V82h11.67V65.57H221.22V49.18H209.55Zm0,32.79H197.88V82h11.67Zm58.34-49.18H256.22v16.4h11.67Zm0,98.37H256.22v16.39h11.67ZM139.53,0h-7V32.79h7Zm0,114.76h-7v32.78h7Zm105,32.78H232.89v16.39H221.22v16.4H209.55v16.39h11.67v16.39h11.67v16.4h11.66v-16.4h11.68V196.72h11.66V180.33H256.23v-16.4H244.55Zm0,32.79H232.88v16.39h11.67Zm-70-32.79H162.87v16.39H151.2v16.4H139.53v16.39H151.2v16.39h11.67v16.4h11.67v-16.4h11.67V196.72h11.67V180.33H186.21v-16.4H174.54Zm0,32.79H162.87v16.39h11.67Zm93.35,65.57H256.22v16.4h11.67ZM139.53,229.51h-7V262.3h7Z"/><path class="cls-4" d="M267.89,295.08H256.23V278.69H244.55V262.3H232.89V245.9H221.22V229.51H209.55v-16.4H197.88v16.4H186.21V245.9H174.54v16.4H162.87v16.39H151.2v16.39H139.53v16.39h-7v65.58h7v16.39H151.2v16.4h11.67v16.39h11.67v16.39h11.67V459h11.67v42.62h23.34V491.8h11.67V475.41h11.66V459h11.68V442.6h11.66V393.44H256.23v16.4H244.55v16.39H232.89v16.39H221.22V426.23H209.55V409.84H197.88v-16.4H186.21V377.05H174.54V360.66H162.87v-16.4h11.67V327.87h11.67v-16.4h35v16.4H197.88v16.39h11.67v16.4h11.67v16.39h11.67V360.66h11.66v-16.4h11.68V327.87h11.66Zm0,65.58H256.22v16.39h11.67ZM139.53,409.84h-7v16.39h7Zm23.34,32.78H151.2V459H139.53v16.39h-7v26.23h7V491.8H151.2V475.41h11.67Zm23.34,49.18H174.54v9.84h11.67Z"/><polygon class="cls-7" points="69.99 114.2 58.32 114.2 58.32 97.81 46.66 97.81 46.66 81.41 34.98 81.41 34.98 65.02 46.66 65.02 46.66 48.63 58.32 48.63 58.32 32.23 69.99 32.23 69.99 48.63 81.67 48.63 81.67 65.02 93.33 65.02 93.33 81.41 81.67 81.41 81.67 97.81 69.99 97.81 69.99 114.2"/><polygon class="cls-7" points="210.07 114.2 198.4 114.2 198.4 97.81 186.73 97.81 186.73 81.41 175.06 81.41 175.06 65.02 186.73 65.02 186.73 48.63 198.4 48.63 198.4 32.23 210.07 32.23 210.07 48.63 221.75 48.63 221.75 65.02 233.41 65.02 233.41 81.41 221.75 81.41 221.75 97.81 210.07 97.81 210.07 114.2"/><rect class="cls-4" x="58.32" y="65.02" width="11.67" height="16.39"/><rect class="cls-4" x="197.88" y="65.57" width="11.67" height="16.39"/><rect class="cls-6" x="233.41" y="181.17" width="11.67" height="16.39"/><rect class="cls-6" x="162.52" y="180.02" width="11.67" height="16.39"/><rect class="cls-6" x="93.33" y="180.02" width="11.67" height="16.39"/><rect class="cls-6" x="23.31" y="180.02" width="11.67" height="16.39"/><path class="cls-4" d="M46.17,1000h35V983.61H92.85v-16.4h11.67V950.82h11.67V934.43h11.67V918H116.19V901.64H104.52V885.25H92.85v-16.4H81.18V852.46H69.51V836.07H57.85v16.39H46.17v16.39H34.51v16.4H22.84v16.39H11.17V918H-.5v16.4H11.17v16.39H22.84v16.39H34.51v16.4H46.17Zm11.68-32.79H69.51V950.82H81.18V934.43H92.85V918H81.18V901.64H69.51V885.25H57.85v16.39H46.17V918H34.51v16.4H46.17v16.39H57.85Zm0-32.78H69.52V918H57.85ZM-.5,983.61H11.17v-16.4H-.5Zm0-98.36H11.17v-16.4H-.5ZM127.86,1000h7V967.21h-7Zm0-114.75h7V852.46h-7Zm-105-32.79H34.51V836.07H46.17v-16.4H57.85V803.28H46.17V786.89H34.51v-16.4H22.84v16.4H11.17v16.39H-.5v16.39H11.17v16.4H22.84Zm0-32.79H34.51V803.28H22.84Zm70,32.79h11.67V836.07H116.2v-16.4h11.67V803.28H116.19V786.89H104.52v-16.4H92.85v16.4H81.18v16.39H69.51v16.39H81.18v16.4H92.85Zm0-32.79h11.67V803.28H92.85ZM-.5,754.1H11.17V737.71H-.5Zm128.36,16.39h7V737.7h-7Z"/><path class="cls-4" d="M-.5,704.92H11.17v16.39H22.84v16.4H34.51V754.1H46.17v16.39H57.85v16.4H69.51v-16.4H81.18V754.1H92.85V737.71h11.67v-16.4h11.67V704.92h11.67v-16.4h7V623h-7V606.56H116.19v-16.4H104.52V573.77H92.85V557.38H81.18V541H69.51V498.36H46.17v9.84H34.51v16.39H22.84V541H11.17v16.39H-.5v49.18H11.17v-16.4H22.84v-16.4H34.51V557.38H46.17v16.39H57.85v16.39H69.51v16.4H81.18V623H92.85v16.39h11.67v16.4H92.85v16.39H81.18v16.39h-35V672.13H69.51V655.74H57.85v-16.4H46.17V623H34.51v16.39H22.84v16.4H11.17v16.39H-.5Zm0-65.58H11.17V623H-.5Zm128.36-49.18h7V573.77h-7Zm-23.34-32.78h11.67V541h11.67V524.6h7V498.36h-7v9.84H116.19v16.39H104.52ZM81.18,508.2H92.85v-9.84H81.18Z"/><path class="cls-4" d="M221.22,1000h-35V983.61H174.54v-16.4H162.87V950.82H151.2V934.43H139.53V918H151.2V901.64h11.67V885.25h11.67v-16.4h11.67V852.46h11.67V836.07h11.67v16.39h11.67v16.39h11.67v16.4h11.66v16.39h11.68V918h11.66v16.4H256.23v16.39H244.55v16.39H232.89v16.4H221.22Zm-11.67-32.79H197.88V950.82H186.21V934.43H174.54V918h11.67V901.64h11.67V885.25h11.67v16.39h11.67V918h11.67v16.4H221.22v16.39H209.55Zm0-32.78H197.88V918h11.67Zm58.34,49.18H256.22v-16.4h11.67Zm0-98.36H256.22v-16.4h11.67ZM139.53,1000h-7V967.21h7Zm0-114.75h-7V852.46h7Zm105-32.79H232.89V836.07H221.22v-16.4H209.55V803.28h11.67V786.89h11.67v-16.4h11.66v16.4h11.68v16.39h11.66v16.39H256.23v16.4H244.55Zm0-32.79H232.88V803.28h11.67Zm-70,32.79H162.87V836.07H151.2v-16.4H139.53V803.28H151.2V786.89h11.67v-16.4h11.67v16.4h11.67v16.39h11.67v16.39H186.21v16.4H174.54Zm0-32.79H162.87V803.28h11.67Zm93.35-65.57H256.22V737.71h11.67ZM139.53,770.49h-7V737.7h7Z"/><path class="cls-4" d="M267.89,704.92H256.23v16.39H244.55v16.4H232.89V754.1H221.22v16.39H209.55v16.4H197.88v-16.4H186.21V754.1H174.54V737.71H162.87v-16.4H151.2V704.92H139.53v-16.4h-7V623h7V606.56H151.2v-16.4h11.67V573.77h11.67V557.38h11.67V541h11.67V498.36h23.34v9.84h11.67v16.39h11.66V541h11.68v16.39h11.66v49.18H256.23v-16.4H244.55v-16.4H232.89V557.38H221.22v16.39H209.55v16.39H197.88v16.4H186.21V623H174.54v16.39H162.87v16.4h11.67v16.39h11.67v16.39h35V672.13H197.88V655.74h11.67v-16.4h11.67V623h11.67v16.39h11.66v16.4h11.68v16.39h11.66Zm0-65.58H256.22V623h11.67ZM139.53,590.16h-7V573.77h7Zm23.34-32.78H151.2V541H139.53V524.6h-7V498.36h7v9.84H151.2v16.39h11.67Zm23.34-49.18H174.54v-9.84h11.67Z"/><polygon class="cls-7" points="197.4 885.8 209.07 885.8 209.07 902.2 220.74 902.2 220.74 918.59 232.41 918.59 232.41 934.98 220.74 934.98 220.74 951.38 209.07 951.38 209.07 967.77 197.4 967.77 197.4 951.38 185.73 951.38 185.73 934.98 174.06 934.98 174.06 918.59 185.73 918.59 185.73 902.2 197.4 902.2 197.4 885.8"/><polygon class="cls-7" points="57.32 885.8 68.99 885.8 68.99 902.2 80.66 902.2 80.66 918.59 92.33 918.59 92.33 934.98 80.66 934.98 80.66 951.38 68.99 951.38 68.99 967.77 57.32 967.77 57.32 951.38 45.65 951.38 45.65 934.98 33.98 934.98 33.98 918.59 45.65 918.59 45.65 902.2 57.32 902.2 57.32 885.8"/><rect class="cls-4" x="197.39" y="918.59" width="11.67" height="16.39"/><rect class="cls-4" x="57.85" y="918.03" width="11.67" height="16.39"/><rect class="cls-6" x="22.31" y="802.43" width="11.67" height="16.39"/><rect class="cls-6" x="93.2" y="803.59" width="11.67" height="16.39"/><rect class="cls-6" x="162.39" y="803.59" width="11.67" height="16.39"/><rect class="cls-6" x="232.41" y="803.59" width="11.67" height="16.39"/></g></svg>