<svg xmlns="http://www.w3.org/2000/svg" width="20" height="19" fill="none"><path stroke="#F6B426" d="M1.974 1.14a1.063 1.063 0 0 0-.39.087 1.006 1.006 0 0 0-.322.222.933.933 0 0 0-.205.321.888.888 0 0 0-.055.372c.134 2.16.768 7.43 3.804 10.716 3.635 3.96 8.369 5.324 13.226 5.123a1.06 1.06 0 0 0 .684-.298.934.934 0 0 0 .284-.656v-3.46a1.385 1.385 0 0 0-.337-.887 1.553 1.553 0 0 0-.85-.502l-2.433-.504c-.3-.06-.614-.034-.899.074a1.521 1.521 0 0 0-.7.534l-.537.763a.383.383 0 0 1-.209.146.408.408 0 0 1-.26-.012c-1.237-.5-6.167-2.66-6.709-6.304A.34.34 0 0 1 6.1 6.67a.37.37 0 0 1 .15-.154l.977-.558c.267-.155.478-.384.602-.655.124-.27.157-.571.093-.86l-.534-2.318a1.433 1.433 0 0 0-.554-.82A1.606 1.606 0 0 0 5.851 1l-3.877.14Z"/></svg>