<svg xmlns="http://www.w3.org/2000/svg" fill="none" stroke="#fff" viewBox="0 -0.5 25 25"><path stroke-linecap="round" stroke-linejoin="round" stroke-width="1.5" d="M6.363 6.362c.88-.927 1.191-1.187 1.566-1.308.26-.068.532-.072.793-.011.344.1.435.176 1.563 1.3.991.987 1.09 1.094 1.185 1.287.182.339.21.739.078 1.1-.1.275-.242.457-.843 1.06l-.392.393a.34.34 0 0 0-.06.394 10.124 10.124 0 0 0 3.59 3.6c.171.091.382.062.52-.073l.377-.371c.233-.239.48-.464.74-.674.407-.25.914-.272 1.341-.059.21.1.278.162 1.3 1.182 1.054 1.051 1.084 1.084 1.2 1.325.219.399.216.882-.006 1.279-.113.224-.182.305-.775.911-.358.366-.695.7-.749.749a2.444 2.444 0 0 1-1.75.554 7.966 7.966 0 0 1-3.285-1.049 15.084 15.084 0 0 1-5.514-5c-.303-.44-.572-.902-.806-1.382a6.872 6.872 0 0 1-.936-3.54c.048-.65.36-1.253.863-1.667Z" clip-rule="evenodd"/></svg>