<svg xmlns="http://www.w3.org/2000/svg" width="22" height="22" fill="none"><g clip-path="url(#a)"><path fill="#1C1F35" fill-rule="evenodd" d="M2.625.99a2.29 2.29 0 0 1 3.426.214l2.356 3.027a2.29 2.29 0 0 1 .413 1.96l-.718 2.875a.89.89 0 0 0 .234.844l3.225 3.225a.89.89 0 0 0 .845.233l2.873-.718a2.29 2.29 0 0 1 1.96.414l3.027 2.354a2.29 2.29 0 0 1 .214 3.427l-1.357 1.357c-.97.972-2.423 1.398-3.776.922a24.456 24.456 0 0 1-9.2-5.801 24.457 24.457 0 0 1-5.802-9.2c-.475-1.352-.048-2.805.923-3.776L2.625.99Z" clip-rule="evenodd"/></g><defs><clipPath id="a"><path fill="#fff" d="M.15.32h21v21h-21z"/></clipPath></defs></svg>