<svg xmlns="http://www.w3.org/2000/svg" width="512" height="512" style="shape-rendering:geometricPrecision;text-rendering:geometricPrecision;image-rendering:optimizeQuality;fill-rule:evenodd;clip-rule:evenodd"><path fill="#fff" d="M85.5 93.5a17613.265 17613.265 0 0 1 325-.5c-108.333.5-216.666.667-325 .5ZM84.5 94.5a4.932 4.932 0 0 1-3-.5c1.25-.74 2.25-.573 3 .5ZM77.5 95.5c.397-1.025 1.063-1.192 2-.5a2.428 2.428 0 0 1-2 .5Z" style="opacity:.008"/><path fill="#fff" d="M84.5 94.5c109.404-.331 218.737.002 328 1 .65 1.935.983 3.935 1 6-.667 0-1 .333-1 1-.667 0-1 .333-1 1-.667 0-1 .333-1 1-106.001-.167-212.001 0-318 .5l316 1-160.5.5a6477.682 6477.682 0 0 1-161-2 36.287 36.287 0 0 0-4.5 2 10.1 10.1 0 0 0-6 1.5l2 1c-2.354.847-4.688 1.68-7 2.5-.333-1.333-.667-1.333-1 0-.992-.172-1.658.162-2 1-.667 0-1 .333-1 1-1.333.333-1.333.667 0 1-.342.838-1.008 1.172-2 1-.333-1.333-.667-1.333-1 0-.667 0-1 .333-1 1-.667 0-1 .333-1 1-.667 0-1 .333-1 1-.667 0-1 .333-1 1-.667 0-1 .333-1 1-.667 0-1 .333-1 1-.838.342-1.172 1.008-1 2-.667 0-1 .333-1 1-.838.342-1.172 1.008-1 2-.667 0-1 .333-1 1-.838.342-1.172 1.008-1 2-.838.342-1.172 1.008-1 2-.838.342-1.172 1.008-1 2-1.424 2.015-2.09 4.348-2 7-.961 1.765-1.295 3.765-1 6a5941.149 5941.149 0 0 0 0 218c-.295 2.235.039 4.235 1 6 .028 3.416 1.028 6.416 3 9-.172.992.162 1.658 1 2-.073 1.527.594 2.527 2 3-.073 1.527.594 2.527 2 3 2.645 4.645 6.312 8.312 11 11 2.99 1.305 6.323 2.972 10 5 1.068.934 2.401 1.268 4 1 1.068.934 2.401 1.268 4 1a19045.897 19045.897 0 0 0 338 .5c1.558-.21 2.891-.71 4-1.5 2.398.241 4.398-.426 6-2 10.918-3.542 19.585-12.209 26-26-.124-.607-.457-.94-1-1 1.468-1.279 2.135-2.946 2-5a3427.082 3427.082 0 0 0 2-114.5c0-36.335-.333-72.502-1-108.5.376-4.773-.624-9.107-3-13 .237-1.291-.096-2.291-1-3-.579-2.831-1.912-5.164-4-7 0-.667-.333-1-1-1 .172-.992-.162-1.658-1-2-2.452-2.613-3.785-5.447-4-8.5 3.365-1.444 6.698-1.944 10-1.5-.099 1.65.901 2.983 3 4 .238 1.904 1.238 3.238 3 4-.172.992.162 1.658 1 2-.172.992.162 1.658 1 2 .492 2.319 1.492 4.319 3 6-.172.992.162 1.658 1 2-.237 1.291.096 2.291 1 3-.268 1.599.066 2.932 1 4-.295 2.235.039 4.235 1 6v222c-.961 1.765-1.295 3.765-1 6-.934 1.068-1.268 2.401-1 4-.904.709-1.237 1.709-1 3-.838.342-1.172 1.008-1 2-.838.342-1.172 1.008-1 2-1.174 1.014-1.84 2.347-2 4-.838.342-1.172 1.008-1 2-.838.342-1.172 1.008-1 2-.667 0-1 .333-1 1-.667 0-1 .333-1 1-.838.342-1.172 1.008-1 2-.667 0-1 .333-1 1-.667 0-1 .333-1 1-.667 0-1 .333-1 1-.667 0-1 .333-1 1-.667 0-1 .333-1 1-.667 0-1 .333-1 1-.667 0-1 .333-1 1-.667 0-1 .333-1 1-.667 0-1 .333-1 1l-2 2c-.333-1.333-.667-1.333-1 0-.667 0-1 .333-1 1-.992-.172-1.658.162-2 1-1.333.333-1.333.667 0 1-1.014 1.174-2.347 1.84-4 2-.333-1.333-.667-1.333-1 0-.717.961-1.883 1.961-3.5 3-.853-2.103-2.02-2.103-3.5 0-2.639.071-4.806 1.071-6.5 3-110.791.14-221.625-.026-332.5-.5l-15-1.5c-1.068-.934-2.401-1.268-4-1-1.28-1.431-2.947-2.098-5-2-.342-.838-1.008-1.172-2-1-.333-1.333-.667-1.333-1 0a23.417 23.417 0 0 1-6-2.5c-1.333-.667-1.333-1.333 0-2-1.657-.231-2.99-1.065-4-2.5-1-1.667-2.333-3-4-4 0-.667-.333-1-1-1-1.1-2.516-2.767-3.516-5-3-1.211-1.22-1.211-2.387 0-3.5-.663-1.518-1.663-2.685-3-3.5.172-.992-.162-1.658-1-2-.492-2.319-1.492-4.319-3-6a2.427 2.427 0 0 0-.5-2c-.654 1.196-1.154 1.196-1.5 0 .794-2.491.461-4.824-1-7 .295-2.235-.039-4.235-1-6a27254.58 27254.58 0 0 0-.5-227l1 5a52.078 52.078 0 0 0 1.5-10c.904-.709 1.237-1.709 1-3 .838-.342 1.172-1.008 1-2 6.545-12.973 15.045-22.306 25.5-28 5.646-3.082 11.479-5.416 17.5-7Zm299 52c-1.605.506-1.939 1.173-1 2-.342.838-1.008 1.172-2 1-.333-1.333-.667-1.333-1 0-1.21.432-2.21 1.099-3 2-1 .333-1.667 1-2 2-.992-.172-1.658.162-2 1-.667 0-1 .333-1 1-.992-.172-1.658.162-2 1-1 .333-1.667 1-2 2-.992-.172-1.658.162-2 1-.667 0-1 .333-1 1-.992-.172-1.658.162-2 1-1.605.506-1.939 1.173-1 2-.342.838-1.008 1.172-2 1-.333-1.333-.667-1.333-1 0-1.527-.073-2.527.594-3 2-.667 0-1 .333-1 1-.992-.172-1.658.162-2 1-1 .333-1.667 1-2 2-.992-.172-1.658.162-2 1-1.21.432-2.21 1.099-3 2-1 .333-1.667 1-2 2-.992-.172-1.658.162-2 1-1.527-.073-2.527.594-3 2-.667 0-1 .333-1 1l-2 2c-.827-.939-1.494-.605-2 1-.992-.172-1.658.162-2 1-1.605.506-1.939 1.173-1 2-.342.838-1.008 1.172-2 1-.827-.939-1.494-.605-2 1-.992-.172-1.658.162-2 1-1.605.506-1.939 1.173-1 2-.342.838-1.008 1.172-2 1 .065-.438-.101-.772-.5-1-1.518.663-2.685 1.663-3.5 3-1.21.432-2.21 1.099-3 2-1 .333-1.667 1-2 2-.992-.172-1.658.162-2 1-.667 0-1 .333-1 1-.992-.172-1.658.162-2 1-1 .333-1.667 1-2 2-.992-.172-1.658.162-2 1-.667 0-1 .333-1 1-.992-.172-1.658.162-2 1-1.605.506-1.939 1.173-1 2-.342.838-1.008 1.172-2 1-.827-.939-1.494-.605-2 1-.992-.172-1.658.162-2 1-1.605.506-1.939 1.173-1 2-.342.838-1.008 1.172-2 1-.827-.939-1.494-.605-2 1-.992-.172-1.658.162-2 1-.667 0-1 .333-1 1-.992-.172-1.658.162-2 1-1 .333-1.667 1-2 2-.992-.172-1.658.162-2 1-.667 0-1 .333-1 1-.992-.172-1.658.162-2 1-1 .333-1.667 1-2 2-.992-.172-1.658.162-2 1-.667 0-1 .333-1 1-.992-.172-1.658.162-2 1-1.605.506-1.939 1.173-1 2-.342.838-1.008 1.172-2 1-.827-.939-1.494-.605-2 1-.992-.172-1.658.162-2 1-1.605.506-1.939 1.173-1 2-.342.838-1.008 1.172-2 1-.865-.064-1.865-.397-3-1-.473-1.406-1.473-2.073-3-2 0-.667-.333-1-1-1-.342-.838-1.008-1.172-2-1-.333-1-1-1.667-2-2-.473-1.406-1.473-2.073-3-2 0-.667-.333-1-1-1-.473-1.406-1.473-2.073-3-2-1.476-2-3.309-3.667-5.5-5-.399.228-.565.562-.5 1-.992.172-1.658-.162-2-1 .438.065.772-.101 1-.5l-2.5-2.5c-.399.228-.565.562-.5 1-.992.172-1.658-.162-2-1 .438.065.772-.101 1-.5-2.001-2.325-4.334-4.158-7-5.5-.342-.838-1.008-1.172-2-1-.333-1-1-1.667-2-2-.342-.838-1.008-1.172-2-1-.333-1-1-1.667-2-2-.342-.838-1.008-1.172-2-1-.333-1-1-1.667-2-2-.342-.838-1.008-1.172-2-1-.333-1-1-1.667-2-2-.342-.838-1.008-1.172-2-1-1.391-2.39-3.391-4.057-6-5-.473-1.406-1.473-2.073-3-2 0-.667-.333-1-1-1-.342-.838-1.008-1.172-2-1-.742-1.85-1.742-2.516-3-2-.992.172-1.658-.162-2-1 .438.065.772-.101 1-.5l-2.5-2.5c-.399.228-.565.562-.5 1l-2-2c-.333-1-1-1.667-2-2-.342-.838-1.008-1.172-2-1-.333-1-1-1.667-2-2-.342-.838-1.008-1.172-2-1-.333-1-1-1.667-2-2-.342-.838-1.008-1.172-2-1-.333-1-1-1.667-2-2-.473-1.406-1.473-2.073-3-2 0-.667-.333-1-1-1-.342-.838-1.008-1.172-2-1a84.343 84.343 0 0 0-14.5-12c-.399.228-.565.562-.5 1-.992.172-1.658-.162-2-1 .516-1.258-.15-2.258-2-3-.342-.838-1.008-1.172-2-1-.506-1.605-1.173-1.939-2-1-.904-.709-1.237-1.709-1-3 81.168-.333 162.168.001 243 1Zm-293 28c.333 1.333.667 1.333 1 0 .992-.172 1.658.162 2 1-.438-.065-.772.101-1 .5l2.5 2.5c.399-.228.565-.562.5-1 .992-.172 1.658.162 2 1-.438-.065-.772.101-1 .5l2.5 2.5c.399-.228.565-.562.5-1l2 2c.506 1.605 1.173 1.939 2 1l2 2c.333 1 1 1.667 2 2 .342.838 1.008 1.172 2 1 .333 1 1 1.667 2 2 .342.838 1.008 1.172 2 1 .333 1 1 1.667 2 2 .342.838 1.008 1.172 2 1 .742 1.85 1.742 2.516 3 2l2 2c.506 1.605 1.173 1.939 2 1 1.527-.073 2.527.594 3 2-.939.827-.605 1.494 1 2 .473 1.406 1.473 2.073 3 2 .333 1.333.667 1.333 1 0 .992-.172 1.658.162 2 1-.516 1.258.15 2.258 2 3 .342.838 1.008 1.172 2 1 .506 1.605 1.173 1.939 2 1l2 2c.333 1 1 1.667 2 2 .342.838 1.008 1.172 2 1 .333 1 1 1.667 2 2 .342.838 1.008 1.172 2 1 .333 1 1 1.667 2 2 .342.838 1.008 1.172 2 1 .333 1 1 1.667 2 2 .79.901 1.79 1.568 3 2 0 .667.333 1 1 1 .689 1.274 1.523 1.274 2.5 0 .717.544 1.217 1.211 1.5 2-1.047.578-.88 1.244.5 2 .399-.228.565-.562.5-1 .992-.172 1.658.162 2 1-1.257 1.123-.924 1.789 1 2a32.6 32.6 0 0 0 4.5 4c.399-.228.565-.562.5-1 .992-.172 1.658.162 2 1 1 .333 1.667 1 2 2l2 2c.333 1 1 1.667 2 2 .342.838 1.008 1.172 2 1 .333 1 1 1.667 2 2 .342.838 1.008 1.172 2 1 0 1.333.667 2 2 2 .342.838 1.008 1.172 2 1 .333 1 1 1.667 2 2 .79.901 1.79 1.568 3 2 .506 1.605 1.173 1.939 2 1 1.527-.073 2.527.594 3 2 1.21.432 2.21 1.099 3 2a2.428 2.428 0 0 0-2 .5 6.978 6.978 0 0 1 3.5 2.5c.399-.228.565-.562.5-1 .992-.172 1.658.162 2 1-.939.827-.605 1.494 1 2 .342.838 1.008 1.172 2 1 .333 1.333.667 1.333 1 0 1 .333 1.667 1 2 2l2 2c.333 1 1 1.667 2 2 .79.901 1.79 1.568 3 2 0 .667.333 1 1 1 .342.838 1.008 1.172 2 1 .333 1 1 1.667 2 2 .342.838 1.008 1.172 2 1 .333 1 1 1.667 2 2 .473 1.406 1.473 2.073 3 2 0 .667.333 1 1 1 .473 1.406 1.473 2.073 3 2 .506 1.605 1.173 1.939 2 1 .992-.172 1.658.162 2 1-.939.827-.605 1.494 1 2 .342.838 1.008 1.172 2 1 .742 1.85 1.742 2.516 3 2 .992-.172 1.658.162 2 1-1.257 1.123-.924 1.789 1 2 .333 1.333.667 1.333 1 0 .992-.172 1.658.162 2 1-.438-.065-.772.101-1 .5l2.5 2.5c.399-.228.565-.562.5-1h3c.333 1.333.667 1.333 1 0 1.527.073 2.527-.594 3-2 .667 0 1-.333 1-1 .992.172 1.658-.162 2-1 .667 0 1-.333 1-1 1.527.073 2.527-.594 3-2 1.527.073 2.527-.594 3-2 .667 0 1-.333 1-1l2-2c.827.939 1.494.605 2-1 .992.172 1.658-.162 2-1 1.73-.526 3.064-1.526 4-3 1.527.073 2.527-.594 3-2 .667 0 1-.333 1-1 .992.172 1.658-.162 2-1 1.605-.506 1.939-1.173 1-2 .342-.838 1.008-1.172 2-1 .827.939 1.494.605 2-1 .992.172 1.658-.162 2-1 1.605-.506 1.939-1.173 1-2 .342-.838 1.008-1.172 2-1 .333 1.333.667 1.333 1 0 1.527.073 2.527-.594 3-2 1-.333 1.667-1 2-2 .992.172 1.658-.162 2-1 1.527.073 2.527-.594 3-2 1.73-.526 3.064-1.526 4-3 1.527.073 2.527-.594 3-2a27.204 27.204 0 0 0 8-6c.992.172 1.658-.162 2-1 .667 0 1-.333 1-1 1.527.073 2.527-.594 3-2 .667 0 1-.333 1-1 .992.172 1.658-.162 2-1 2.254-.624 3.921-1.957 5-4 .992.172 1.658-.162 2-1 1-.333 1.667-1 2-2 .992.172 1.658-.162 2-1 1.527.073 2.527-.594 3-2 1.605-.506 1.939-1.173 1-2 .342-.838 1.008-1.172 2-1 .827.939 1.494.605 2-1 .992.172 1.658-.162 2-1 1.73-.526 3.064-1.526 4-3 1.527.073 2.527-.594 3-2 .667 0 1-.333 1-1 .992.172 1.658-.162 2-1 2.254-.624 3.921-1.957 5-4 .992.172 1.658-.162 2-1 2.254-.624 3.921-1.957 5-4 .992.172 1.658-.162 2-1 1-.333 1.667-1 2-2 .992.172 1.658-.162 2-1 .667 0 1-.333 1-1 .992.172 1.658-.162 2-1 2.254-.624 3.921-1.957 5-4 .992.172 1.658-.162 2-1 .667 0 1-.333 1-1 .992.172 1.658-.162 2-1 2.254-.624 3.921-1.957 5-4 .992.172 1.658-.162 2-1 2.254-.624 3.921-1.957 5-4 .992.172 1.658-.162 2-1 1-.333 1.667-1 2-2 .992.172 1.658-.162 2-1 .667 0 1-.333 1-1 .992.172 1.658-.162 2-1 1.21-.432 2.21-1.099 3-2 .833 58.832 1.333 117.832 1.5 177 .832-59.835.665-119.501-.5-179 .283-.789.783-1.456 1.5-2 .667 60.667.667 121.333 0 182-.278.916-.778 1.582-1.5 2a2.428 2.428 0 0 0-.5-2 6.978 6.978 0 0 1-3.5 2.5l2 1c-109.333.667-218.667.667-328 0l2-1a6.977 6.977 0 0 1-3.5-2.5 2.427 2.427 0 0 0-.5 2c-.722-.418-1.222-1.084-1.5-2-.667-64-.667-128 0-192l1 191c.167-62.501.667-124.835 1.5-187Z" style="opacity:.836"/><path fill="#cfb12c" d="M412.5 94.5c1.333.667 1.333.667 0 0ZM414.5 97.5c1.073.75 1.24 1.75.5 3a4.934 4.934 0 0 1-.5-3ZM413.5 101.5c1.333.667 1.333.667 0 0ZM412.5 102.5h1c-.185.67-.519.67-1 0ZM411.5 103.5h1c-.185.67-.519.67-1 0ZM410.5 104.5h1c-.185.67-.519.67-1 0ZM82.5 106.5a4.934 4.934 0 0 1 3 .5c-1.25.74-2.25.573-3-.5ZM79.5 108.5c.397-1.025 1.063-1.192 2-.5a2.429 2.429 0 0 1-2 .5ZM451.5 110.5c1.101-1.098 2.434-1.265 4-.5a8.43 8.43 0 0 1-4 .5ZM70.5 111.5h1c-.185.67-.519.67-1 0ZM68.5 112.5c1.333.667 1.333.667 0 0ZM67.5 113.5h1c-.185.67-.519.67-1 0ZM461.5 114.5c1.333.667 1.333.667 0 0ZM64.5 115.5h1c-.185.67-.519.67-1 0ZM63.5 116.5h1c-.185.67-.519.67-1 0ZM447.5 116.5c1.333.667 1.333.667 0 0ZM62.5 117.5h1c-.185.67-.519.67-1 0ZM61.5 118.5h1c-.185.67-.519.67-1 0ZM464.5 118.5c1.333.667 1.333.667 0 0ZM60.5 119.5h1c-.185.67-.519.67-1 0ZM59.5 120.5h1c-.185.67-.519.67-1 0ZM465.5 120.5c1.333.667 1.333.667 0 0ZM58.5 121.5h1c-.185.67-.519.67-1 0ZM452.5 121.5c-.667.667-.667.667 0 0ZM467.5 123.5c-.667-1.333-.667-1.333 0 0ZM42.5 123.5c1.333.667 1.333.667 0 0ZM57.5 123.5c1.333.667 1.333.667 0 0ZM453.5 123.5c.667 0 1 .333 1 1-.06.543-.393.876-1 1-1.273-.757-1.273-1.423 0-2ZM467.5 123.5c1.333.667 1.333.667 0 0ZM56.5 124.5h1c-.185.67-.519.67-1 0ZM41.5 125.5c1.333.667 1.333.667 0 0ZM55.5 126.5c1.333.667 1.333.667 0 0ZM41.5 129.5c-1.025-.397-1.192-1.063-.5-2 .464.594.631 1.261.5 2ZM54.5 127.5h1c-.185.67-.519.67-1 0ZM469.5 129.5a2.428 2.428 0 0 1 .5-2c.692.937.525 1.603-.5 2ZM53.5 129.5c1.333.667 1.333.667 0 0ZM40.5 131.5c-.667-1.333-.667-1.333 0 0ZM470.5 130.5c1.333.667 1.333.667 0 0ZM52.5 131.5c1.333.667 1.333 1.333 0 2v-2ZM458.5 131.5a2.428 2.428 0 0 1-.5 2c-.692-.937-.525-1.603.5-2ZM39.5 134.5c-1.025-.397-1.192-1.063-.5-2 .464.594.631 1.261.5 2ZM108.5 132.5c1.333.667 1.333.667 0 0ZM415.5 132.5c1.333.667 1.333.667 0 0ZM471.5 134.5a2.428 2.428 0 0 1 .5-2c.692.937.525 1.603-.5 2ZM51.5 133.5h1c-.333 2.667-.667 2.667-1 0Z" style="opacity:.008"/><path fill="#cfb12c" d="M108.5 133.5a11977.273 11977.273 0 0 0 309.5 0c.464.594.631 1.261.5 2-1 .333-1.667 1-2 2-.992-.172-1.658.162-2 1-.667 0-1 .333-1 1-1.333.333-1.333.667 0 1-.473 1.406-1.473 2.073-3 2-.333-1.333-.667-1.333-1 0-.992-.172-1.658.162-2 1-.667 0-1 .333-1 1-1.333.333-1.333.667 0 1-.342.838-1.008 1.172-2 1-.333-1.333-.667-1.333-1 0-.667 0-1 .333-1 1-.992-.172-1.658.162-2 1-.667 0-1 .333-1 1-1.333.333-1.333.667 0 1-.342.838-1.008 1.172-2 1-.333-1.333-.667-1.333-1 0-.667 0-1 .333-1 1-.992-.172-1.658.162-2 1-.667 0-1 .333-1 1-1.333.333-1.333.667 0 1-.342.838-1.008 1.172-2 1-.333-1.333-.667-1.333-1 0-1.333.333-1.333.667 0 1-.473 1.406-1.473 2.073-3 2-.333-1.333-.667-1.333-1 0-1.333.333-1.333.667 0 1-.342.838-1.008 1.172-2 1-.333-1.333-.667-1.333-1 0-1.333.333-1.333.667 0 1-.342.838-1.008 1.172-2 1-.333-1.333-.667-1.333-1 0-.667 0-1 .333-1 1-.992-.172-1.658.162-2 1-.667 0-1 .333-1 1-1.333.333-1.333.667 0 1-.342.838-1.008 1.172-2 1-.333-1.333-.667-1.333-1 0-.667 0-1 .333-1 1-.992-.172-1.658.162-2 1-.667 0-1 .333-1 1-1.333.333-1.333.667 0 1-.342.838-1.008 1.172-2 1-.333-1.333-.667-1.333-1 0-1.333.333-1.333.667 0 1-.473 1.406-1.473 2.073-3 2-.333-1.333-.667-1.333-1 0-1.333.333-1.333.667 0 1-.342.838-1.008 1.172-2 1-.333-1.333-.667-1.333-1 0-1.333.333-1.333.667 0 1-.473 1.406-1.473 2.073-3 2-.333-1.333-.667-1.333-1 0-1.333.333-1.333.667 0 1-.342.838-1.008 1.172-2 1-.333-1.333-.667-1.333-1 0-1.333.333-1.333.667 0 1-.342.838-1.008 1.172-2 1-.333-1.333-.667-1.333-1 0-.667 0-1 .333-1 1-.992-.172-1.658.162-2 1-.667 0-1 .333-1 1-1.333.333-1.333.667 0 1-.473 1.406-1.473 2.073-3 2-.333-1.333-.667-1.333-1 0-.992-.172-1.658.162-2 1-.667 0-1 .333-1 1-1.333.333-1.333.667 0 1-.473 1.406-1.473 2.073-3 2-.333-1.333-.667-1.333-1 0-.992-.172-1.658.162-2 1-.667 0-1 .333-1 1-1.333.333-1.333.667 0 1-.342.838-1.008 1.172-2 1-.333-1.333-.667-1.333-1 0-1.333.333-1.333.667 0 1-.342.838-1.008 1.172-2 1-.333-1.333-.667-1.333-1 0-.667 0-1 .333-1 1-1.333.333-1.333.667 0 1-.342.838-1.008 1.172-2 1-.333-1.333-.667-1.333-1 0-1.333.333-1.333.667 0 1-.473 1.406-1.473 2.073-3 2-.333-1.333-.667-1.333-1 0-1.333.333-1.333.667 0 1-.342.838-1.008 1.172-2 1-.333-1.333-.667-1.333-1 0-1.333.333-1.333.667 0 1-.473 1.406-1.473 2.073-3 2-.333-1.333-.667-1.333-1 0-.992-.172-1.658.162-2 1-.667 0-1 .333-1 1-1.333.333-1.333.667 0 1-.342.838-1.008 1.172-2 1-.333-1.333-.667-1.333-1 0-.667 0-1 .333-1 1-.992-.172-1.658.162-2 1-.667 0-1 .333-1 1-1.333.333-1.333.667 0 1-.342.838-1.008 1.172-2 1-.333-1.333-.667-1.333-1 0-.667 0-1 .333-1 1-.992-.172-1.658.162-2 1-.667 0-1 .333-1 1-1.333.333-1.333.667 0 1-.342.838-1.008 1.172-2 1-.333-1.333-.667-1.333-1 0-1.333.333-1.333.667 0 1-.342.838-1.008 1.172-2 1-.333-1.333-.667-1.333-1 0-.667 0-1 .333-1 1-.992-.172-1.658.162-2 1-.667 0-1 .333-1 1-1.333.333-1.333.667 0 1-.342.838-1.008 1.172-2 1-.333-1.333-.667-1.333-1 0-.667 0-1 .333-1 1-.992-.172-1.658.162-2 1-.667 0-1 .333-1 1-1.333.333-1.333.667 0 1-.473 1.406-1.473 2.073-3 2-.333-1.333-.667-1.333-1 0-.992-.172-1.658.162-2 1-.667 0-1 .333-1 1-1.333.333-1.333.667 0 1-.342.838-1.008 1.172-2 1-.333-1.333-.667-1.333-1 0-.667 0-1 .333-1 1-.992-.172-1.658.162-2 1-.667 0-1 .333-1 1-.667 0-1 .333-1 1-1.879-.107-2.212.393-1 1.5l-1.5 1.5a81.316 81.316 0 0 0-2.5-3c-.762-1.762-2.096-2.762-4-3 0-.667-.333-1-1-1 0-.667-.333-1-1-1-.333-1.333-.667-1.333-1 0-1.626-2.438-4.126-4.772-7.5-7-1.84 1.333-2.34 1.166-1.5-.5-1.072-1.284-2.405-1.617-4-1 .119-1.281-.381-2.448-1.5-3.5-.718.951-1.551 1.117-2.5.5.367-1.757-.466-3.257-2.5-4.5-.977 1.274-1.811 1.274-2.5 0 1.333-.333 1.333-.667 0-1 0-.667-.333-1-1-1-.333-1.333-.667-1.333-1 0-1.879.107-2.212-.393-1-1.5l-2.5-2.5c-1.84 1.333-2.34 1.166-1.5-.5-2.001-2.325-4.334-4.158-7-5.5a18.478 18.478 0 0 0-6-4c0-.667-.333-1-1-1 0-.667-.333-1-1-1-.342-.838-1.008-1.172-2-1-1.024-2.591-2.691-3.424-5-2.5 1.154-.914.987-1.747-.5-2.5-1.073.78-2.24.613-3.5-.5 1.154-.914.987-1.747-.5-2.5-.718.951-1.551 1.117-2.5.5.367-1.757-.466-3.257-2.5-4.5-1.84 1.333-2.34 1.166-1.5-.5l-2.5-2.5c-1.84 1.333-2.34 1.166-1.5-.5l-2.5-2.5c-1.84 1.333-2.34 1.166-1.5-.5-1.289-1.802-2.956-2.969-5-3.5a10.515 10.515 0 0 0-2.5-3c-.977 1.274-1.811 1.274-2.5 0 1.333-.333 1.333-.667 0-1 0-.667-.333-1-1-1-.342-.838-1.008-1.172-2-1-1.024-2.591-2.691-3.424-5-2.5 1.154-.914.987-1.747-.5-2.5-.718.951-1.551 1.117-2.5.5.119-1.281-.381-2.448-1.5-3.5-.718.951-1.551 1.117-2.5.5.119-1.281-.381-2.448-1.5-3.5-1.073.78-2.24.613-3.5-.5.758-1.364.258-2.531-1.5-3.5-1.84 1.333-2.34 1.166-1.5-.5l-2.5-2.5c-1.84 1.333-2.34 1.166-1.5-.5-1.694-1.696-3.36-2.863-5-3.5-.762-1.762-2.096-2.762-4-3-.333-1-1-1.667-2-2a41.166 41.166 0 0 0-10-7c-.762-1.762-2.096-2.762-4-3-.508-1.733-1.341-2.066-2.5-1a9.454 9.454 0 0 0-2.5-1.5c.758-1.364.258-2.531-1.5-3.5-1.297 1.284-2.464 1.117-3.5-.5 1.141-.741 1.141-1.575 0-2.5.457-.798 1.124-1.131 2-1Zm275 13c-1.605.506-1.939 1.173-1 2-.342.838-1.008 1.172-2 1-.333-1.333-.667-1.333-1 0-1.21.432-2.21 1.099-3 2-1 .333-1.667 1-2 2-.992-.172-1.658.162-2 1-.667 0-1 .333-1 1-.992-.172-1.658.162-2 1-1 .333-1.667 1-2 2-.992-.172-1.658.162-2 1-.667 0-1 .333-1 1-.992-.172-1.658.162-2 1-1.605.506-1.939 1.173-1 2-.342.838-1.008 1.172-2 1-.333-1.333-.667-1.333-1 0-1.527-.073-2.527.594-3 2-.667 0-1 .333-1 1-.992-.172-1.658.162-2 1-1 .333-1.667 1-2 2-.992-.172-1.658.162-2 1-1.21.432-2.21 1.099-3 2-1 .333-1.667 1-2 2-.992-.172-1.658.162-2 1-1.527-.073-2.527.594-3 2-.667 0-1 .333-1 1l-2 2c-.827-.939-1.494-.605-2 1-.992-.172-1.658.162-2 1-1.605.506-1.939 1.173-1 2-.342.838-1.008 1.172-2 1-.827-.939-1.494-.605-2 1-.992-.172-1.658.162-2 1-1.605.506-1.939 1.173-1 2-.342.838-1.008 1.172-2 1 .065-.438-.101-.772-.5-1-1.518.663-2.685 1.663-3.5 3-1.21.432-2.21 1.099-3 2-1 .333-1.667 1-2 2-.992-.172-1.658.162-2 1-.667 0-1 .333-1 1-.992-.172-1.658.162-2 1-1 .333-1.667 1-2 2-.992-.172-1.658.162-2 1-.667 0-1 .333-1 1-.992-.172-1.658.162-2 1-1.605.506-1.939 1.173-1 2-.342.838-1.008 1.172-2 1-.827-.939-1.494-.605-2 1-.992-.172-1.658.162-2 1-1.605.506-1.939 1.173-1 2-.342.838-1.008 1.172-2 1-.827-.939-1.494-.605-2 1-.992-.172-1.658.162-2 1-.667 0-1 .333-1 1-.992-.172-1.658.162-2 1-1 .333-1.667 1-2 2-.992-.172-1.658.162-2 1-.667 0-1 .333-1 1-.992-.172-1.658.162-2 1-1 .333-1.667 1-2 2-.992-.172-1.658.162-2 1-.667 0-1 .333-1 1-.992-.172-1.658.162-2 1-1.605.506-1.939 1.173-1 2-.342.838-1.008 1.172-2 1-.827-.939-1.494-.605-2 1-.992-.172-1.658.162-2 1-1.605.506-1.939 1.173-1 2-.342.838-1.008 1.172-2 1-.865-.064-1.865-.397-3-1-.473-1.406-1.473-2.073-3-2 0-.667-.333-1-1-1-.342-.838-1.008-1.172-2-1-.333-1-1-1.667-2-2-.473-1.406-1.473-2.073-3-2 0-.667-.333-1-1-1-.473-1.406-1.473-2.073-3-2-1.476-2-3.309-3.667-5.5-5-.399.228-.565.562-.5 1-.992.172-1.658-.162-2-1 .438.065.772-.101 1-.5l-2.5-2.5c-.399.228-.565.562-.5 1-.992.172-1.658-.162-2-1 .438.065.772-.101 1-.5-2.001-2.325-4.334-4.158-7-5.5-.342-.838-1.008-1.172-2-1-.333-1-1-1.667-2-2-.342-.838-1.008-1.172-2-1-.333-1-1-1.667-2-2-.342-.838-1.008-1.172-2-1-.333-1-1-1.667-2-2-.342-.838-1.008-1.172-2-1-.333-1-1-1.667-2-2-.342-.838-1.008-1.172-2-1-1.391-2.39-3.391-4.057-6-5-.473-1.406-1.473-2.073-3-2 0-.667-.333-1-1-1-.342-.838-1.008-1.172-2-1-.742-1.85-1.742-2.516-3-2-.992.172-1.658-.162-2-1 .438.065.772-.101 1-.5l-2.5-2.5c-.399.228-.565.562-.5 1l-2-2c-.333-1-1-1.667-2-2-.342-.838-1.008-1.172-2-1-.333-1-1-1.667-2-2-.342-.838-1.008-1.172-2-1-.333-1-1-1.667-2-2-.342-.838-1.008-1.172-2-1-.333-1-1-1.667-2-2-.473-1.406-1.473-2.073-3-2 0-.667-.333-1-1-1-.342-.838-1.008-1.172-2-1a84.343 84.343 0 0 0-14.5-12c-.399.228-.565.562-.5 1-.992.172-1.658-.162-2-1 .516-1.258-.15-2.258-2-3-.342-.838-1.008-1.172-2-1-.506-1.605-1.173-1.939-2-1-.904-.709-1.237-1.709-1-3 81.168-.333 162.168.001 243 1Z" style="opacity:.818"/><path fill="#cfb12c" d="M459.5 134.5c-.667.667-.667.667 0 0ZM37.5 135.5c1.074.751 1.24 1.751.5 3a4.932 4.932 0 0 1-.5-3ZM418.5 135.5c1.333.667 1.333.667 0 0ZM472.5 138.5a4.934 4.934 0 0 1 .5-3c.74 1.249.573 2.249-.5 3ZM50.5 137.5c1.025.397 1.192 1.063.5 2a2.427 2.427 0 0 1-.5-2ZM416.5 137.5c1.333.667 1.333.667 0 0ZM459.5 137.5c1.025.397 1.192 1.063.5 2a2.428 2.428 0 0 1-.5-2ZM414.5 139.5v-1h2c-.342.838-1.008 1.172-2 1ZM413.5 139.5h1c-.185.67-.519.67-1 0ZM49.5 140.5c1.098 1.101 1.265 2.434.5 4a8.435 8.435 0 0 1-.5-4ZM473.5 144.5a8.43 8.43 0 0 1 .5-4c.765 1.566.598 2.899-.5 4ZM460.5 141.5c1.073.751 1.24 1.751.5 3a4.934 4.934 0 0 1-.5-3ZM409.5 142.5h1c-.185.67-.519.67-1 0ZM116.5 143.5c-.667.667-.667.667 0 0ZM407.5 143.5c1.333.667 1.333.667 0 0ZM406.5 144.5h1c-.185.67-.519.67-1 0ZM48.5 146.5a5941.149 5941.149 0 0 1 0 218v-218ZM120.5 146.5c-.667.667-.667.667 0 0ZM403.5 146.5h1c-.185.67-.519.67-1 0ZM35.5 147.5a7854.595 7854.595 0 0 1 .5 217c-.5-72.333-.667-144.666-.5-217ZM402.5 147.5h1c-.185.67-.519.67-1 0ZM462.5 147.5c.167 72.001 0 144.001-.5 216a7781.182 7781.182 0 0 1 .5-216ZM474.5 147.5a7853.416 7853.416 0 0 1 .5 217c-.5-72.333-.667-144.666-.5-217ZM400.5 148.5c1.333.667 1.333.667 0 0ZM399.5 149.5h1c-.185.67-.519.67-1 0Z" style="opacity:.008"/><path fill="#cfb12c" d="M110.5 175.5c1.295.988 2.628 1.988 4 3 1.625 2.208 3.625 3.041 6 2.5-.561 1.566.106 2.899 2 4a11.532 11.532 0 0 1 4.5 3.5c1.84-1.333 2.34-1.166 1.5.5l2.5 2.5c1.84-1.333 2.34-1.166 1.5.5l2.5 2.5c1.84-1.333 2.34-1.166 1.5.5l2.5 2.5c1.84-1.333 2.34-1.166 1.5.5l2.5 2.5c1.84-1.333 2.34-1.166 1.5.5 2.768.727 5.102 2.56 7 5.5a35.916 35.916 0 0 0 8 6c1.295.988 2.628 1.988 4 3 1.603 1.096 3.103 2.43 4.5 4 1.84-1.333 2.34-1.166 1.5.5 1.072 1.284 2.405 1.617 4 1-.119 1.281.381 2.448 1.5 3.5.718-.951 1.551-1.117 2.5-.5-.119 1.281.381 2.448 1.5 3.5.718-.951 1.551-1.117 2.5-.5-.367 1.757.466 3.257 2.5 4.5l1-1c1.715 3.217 4.215 5.55 7.5 7 1.625 2.208 3.625 3.041 6 2.5-.489 1.552.178 2.719 2 3.5 1.625 2.208 3.625 3.041 6 2.5-.119 1.281.381 2.448 1.5 3.5.718-.951 1.551-1.117 2.5-.5-.119 1.281.381 2.448 1.5 3.5.718-.951 1.551-1.117 2.5-.5-.367 1.757.466 3.257 2.5 4.5 1.84-1.333 2.34-1.166 1.5.5l2.5 2.5c1.84-1.333 2.34-1.166 1.5.5 5.297 4.44 11.464 9.273 18.5 14.5.718-.951 1.551-1.117 2.5-.5-.119 1.281.381 2.448 1.5 3.5.718-.951 1.551-1.117 2.5-.5-.367 1.757.466 3.257 2.5 4.5 1.84-1.333 2.34-1.166 1.5.5l2.5 2.5c1.84-1.333 2.34-1.166 1.5.5 1.935 1.895 3.602 1.562 5-1-.84-1.666-.34-1.833 1.5-.5a55.747 55.747 0 0 0 5.5-4.5c-.84-1.666-.34-1.833 1.5-.5a55.747 55.747 0 0 0 5.5-4.5l-1-1c2.924-.126 5.591-1.459 8-4-.84-1.666-.34-1.833 1.5-.5 1.487-.753 1.654-1.586.5-2.5 2.924-.126 5.591-1.459 8-4-.84-1.666-.34-1.833 1.5-.5a55.747 55.747 0 0 0 5.5-4.5c-.84-1.666-.34-1.833 1.5-.5a55.747 55.747 0 0 0 5.5-4.5c-.84-1.666-.34-1.833 1.5-.5 1.204-.971 1.704-1.971 1.5-3 1.623.976 2.957.476 4-1.5-.84-1.666-.34-1.833 1.5-.5a55.747 55.747 0 0 0 5.5-4.5l-1-1a15.645 15.645 0 0 0 4-2.5c1.623.976 2.957.476 4-1.5-.84-1.666-.34-1.833 1.5-.5 1.204-.971 1.704-1.971 1.5-3 2.588.043 4.921-1.123 7-3.5-.84-1.666-.34-1.833 1.5-.5a55.747 55.747 0 0 0 5.5-4.5c-.84-1.666-.34-1.833 1.5-.5 1.119-1.052 1.619-2.219 1.5-3.5 1.595.617 2.928.284 4-1l-1-1a15.645 15.645 0 0 0 4-2.5c1.623.976 2.957.476 4-1.5-.84-1.666-.34-1.833 1.5-.5 1.487-.753 1.654-1.586.5-2.5.949-.617 1.782-.451 2.5.5 1.758-.969 2.258-2.136 1.5-3.5 1.595.617 2.928.284 4-1-1.333-.667-1.333-1.333 0-2 2.705.498 5.038-.502 7-3-.84-1.666-.34-1.833 1.5-.5a55.747 55.747 0 0 0 5.5-4.5c-.84-1.666-.34-1.833 1.5-.5 1.487-.753 1.654-1.586.5-2.5 1.759-.98 3.426-1.647 5-2-.84-1.666-.34-1.833 1.5-.5a55.747 55.747 0 0 0 5.5-4.5l-1-1a15.645 15.645 0 0 0 4-2.5c2.218.688 3.718-.312 4.5-3 .914 1.154 1.747.987 2.5-.5-.84-1.666-.34-1.833 1.5-.5a55.747 55.747 0 0 0 5.5-4.5c-.84-1.666-.34-1.833 1.5-.5a6.978 6.978 0 0 1 3.5-2.5c1.894-1.101 2.561-2.434 2-4 2.705.498 5.038-.502 7-3-.84-1.666-.34-1.833 1.5-.5 1.487-.753 1.654-1.586.5-2.5 1.435.311 2.768.145 4-.5 1 66.997 1.333 133.997 1 201-.904.709-1.237 1.709-1 3-.838.342-1.172 1.008-1 2-.838.342-1.172 1.008-1 2-.667 0-1 .333-1 1-.667 0-1 .333-1 1-.667 0-1 .333-1 1l-2 2c-.333-1.333-.667-1.333-1 0-.992-.172-1.658.162-2 1-4.393-.043-4.726.457-1 1.5l-2 .5a13782.46 13782.46 0 0 0-331-2c-.342-.838-1.008-1.172-2-1-.8-2.008-2.134-2.508-4-1.5l1-1c-1.57-1.397-2.904-2.897-4-4.5a42.584 42.584 0 0 0-1.5-5 7491.435 7491.435 0 0 1 .5-212 14.984 14.984 0 0 1 3.5 3c1.84-1.333 2.34-1.166 1.5.5 1.072 1.284 2.405 1.617 4 1-.12 1.281.38 2.448 1.5 3.5.718-.951 1.55-1.117 2.5-.5-.367 1.757.466 3.257 2.5 4.5 1.84-1.333 2.34-1.166 1.5.5l2.5 2.5c1.84-1.333 2.34-1.166 1.5.5l2.5 2.5c1.84-1.333 2.34-1.166 1.5.5l2.5 2.5c1.84-1.333 2.34-1.166 1.5.5a10.515 10.515 0 0 0 3 2.5Zm-20-1c.333 1.333.667 1.333 1 0 .992-.172 1.658.162 2 1-.438-.065-.772.101-1 .5l2.5 2.5c.399-.228.565-.562.5-1 .992-.172 1.658.162 2 1-.438-.065-.772.101-1 .5l2.5 2.5c.399-.228.565-.562.5-1l2 2c.506 1.605 1.173 1.939 2 1l2 2c.333 1 1 1.667 2 2 .342.838 1.008 1.172 2 1 .333 1 1 1.667 2 2 .342.838 1.008 1.172 2 1 .333 1 1 1.667 2 2 .342.838 1.008 1.172 2 1 .742 1.85 1.742 2.516 3 2l2 2c.506 1.605 1.173 1.939 2 1 1.527-.073 2.527.594 3 2-.939.827-.605 1.494 1 2 .473 1.406 1.473 2.073 3 2 .333 1.333.667 1.333 1 0 .992-.172 1.658.162 2 1-.516 1.258.15 2.258 2 3 .342.838 1.008 1.172 2 1 .506 1.605 1.173 1.939 2 1l2 2c.333 1 1 1.667 2 2 .342.838 1.008 1.172 2 1 .333 1 1 1.667 2 2 .342.838 1.008 1.172 2 1 .333 1 1 1.667 2 2 .342.838 1.008 1.172 2 1 .333 1 1 1.667 2 2 .79.901 1.79 1.568 3 2 0 .667.333 1 1 1 .689 1.274 1.523 1.274 2.5 0 .717.544 1.217 1.211 1.5 2-1.047.578-.88 1.244.5 2 .399-.228.565-.562.5-1 .992-.172 1.658.162 2 1-1.257 1.123-.924 1.789 1 2a32.6 32.6 0 0 0 4.5 4c.399-.228.565-.562.5-1 .992-.172 1.658.162 2 1 1 .333 1.667 1 2 2l2 2c.333 1 1 1.667 2 2 .342.838 1.008 1.172 2 1 .333 1 1 1.667 2 2 .342.838 1.008 1.172 2 1 0 1.333.667 2 2 2 .342.838 1.008 1.172 2 1 .333 1 1 1.667 2 2 .79.901 1.79 1.568 3 2 .506 1.605 1.173 1.939 2 1 1.527-.073 2.527.594 3 2 1.21.432 2.21 1.099 3 2a2.428 2.428 0 0 0-2 .5 6.978 6.978 0 0 1 3.5 2.5c.399-.228.565-.562.5-1 .992-.172 1.658.162 2 1-.939.827-.605 1.494 1 2 .342.838 1.008 1.172 2 1 .333 1.333.667 1.333 1 0 1 .333 1.667 1 2 2l2 2c.333 1 1 1.667 2 2 .79.901 1.79 1.568 3 2 0 .667.333 1 1 1 .342.838 1.008 1.172 2 1 .333 1 1 1.667 2 2 .342.838 1.008 1.172 2 1 .333 1 1 1.667 2 2 .473 1.406 1.473 2.073 3 2 0 .667.333 1 1 1 .473 1.406 1.473 2.073 3 2 .506 1.605 1.173 1.939 2 1 .992-.172 1.658.162 2 1-.939.827-.605 1.494 1 2 .342.838 1.008 1.172 2 1 .742 1.85 1.742 2.516 3 2 .992-.172 1.658.162 2 1-1.257 1.123-.924 1.789 1 2 .333 1.333.667 1.333 1 0 .992-.172 1.658.162 2 1-.438-.065-.772.101-1 .5l2.5 2.5c.399-.228.565-.562.5-1h3c.333 1.333.667 1.333 1 0 1.527.073 2.527-.594 3-2 .667 0 1-.333 1-1 .992.172 1.658-.162 2-1 .667 0 1-.333 1-1 1.527.073 2.527-.594 3-2 1.527.073 2.527-.594 3-2 .667 0 1-.333 1-1l2-2c.827.939 1.494.605 2-1 .992.172 1.658-.162 2-1 1.73-.526 3.064-1.526 4-3 1.527.073 2.527-.594 3-2 .667 0 1-.333 1-1 .992.172 1.658-.162 2-1 1.605-.506 1.939-1.173 1-2 .342-.838 1.008-1.172 2-1 .827.939 1.494.605 2-1 .992.172 1.658-.162 2-1 1.605-.506 1.939-1.173 1-2 .342-.838 1.008-1.172 2-1 .333 1.333.667 1.333 1 0 1.527.073 2.527-.594 3-2 1-.333 1.667-1 2-2 .992.172 1.658-.162 2-1 1.527.073 2.527-.594 3-2 1.73-.526 3.064-1.526 4-3 1.527.073 2.527-.594 3-2a27.204 27.204 0 0 0 8-6c.992.172 1.658-.162 2-1 .667 0 1-.333 1-1 1.527.073 2.527-.594 3-2 .667 0 1-.333 1-1 .992.172 1.658-.162 2-1 2.254-.624 3.921-1.957 5-4 .992.172 1.658-.162 2-1 1-.333 1.667-1 2-2 .992.172 1.658-.162 2-1 1.527.073 2.527-.594 3-2 1.605-.506 1.939-1.173 1-2 .342-.838 1.008-1.172 2-1 .827.939 1.494.605 2-1 .992.172 1.658-.162 2-1 1.73-.526 3.064-1.526 4-3 1.527.073 2.527-.594 3-2 .667 0 1-.333 1-1 .992.172 1.658-.162 2-1 2.254-.624 3.921-1.957 5-4 .992.172 1.658-.162 2-1 2.254-.624 3.921-1.957 5-4 .992.172 1.658-.162 2-1 1-.333 1.667-1 2-2 .992.172 1.658-.162 2-1 .667 0 1-.333 1-1 .992.172 1.658-.162 2-1 2.254-.624 3.921-1.957 5-4 .992.172 1.658-.162 2-1 .667 0 1-.333 1-1 .992.172 1.658-.162 2-1 2.254-.624 3.921-1.957 5-4 .992.172 1.658-.162 2-1 2.254-.624 3.921-1.957 5-4 .992.172 1.658-.162 2-1 1-.333 1.667-1 2-2 .992.172 1.658-.162 2-1 .667 0 1-.333 1-1 .992.172 1.658-.162 2-1 1.21-.432 2.21-1.099 3-2 .833 58.832 1.333 117.832 1.5 177 .832-59.835.665-119.501-.5-179 .283-.789.783-1.456 1.5-2 .667 60.667.667 121.333 0 182-.278.916-.778 1.582-1.5 2a2.428 2.428 0 0 0-.5-2 6.978 6.978 0 0 1-3.5 2.5l2 1c-109.333.667-218.667.667-328 0l2-1a6.977 6.977 0 0 1-3.5-2.5 2.427 2.427 0 0 0-.5 2c-.722-.418-1.222-1.084-1.5-2-.667-64-.667-128 0-192l1 191c.167-62.501.667-124.835 1.5-187Z" style="opacity:.844"/><path fill="#cfb12c" d="M396.5 151.5h1c-.185.67-.519.67-1 0ZM75.5 152.5a7426.549 7426.549 0 0 1 .5 211c-.5-70.333-.667-140.666-.5-211ZM395.5 152.5h1c-.185.67-.519.67-1 0ZM130.5 153.5c-.397 1.025-1.063 1.192-2 .5a2.428 2.428 0 0 1 2-.5ZM393.5 154.5v-1h2c-.342.838-1.008 1.172-2 1ZM392.5 154.5h1c-.185.67-.519.67-1 0ZM132.5 155.5c-.667.667-.667.667 0 0ZM389.5 156.5h1c-.185.67-.519.67-1 0ZM136.5 158.5c-.667.667-.667.667 0 0ZM385.5 159.5h1c-.185.67-.519.67-1 0ZM431.5 160.5c1.333.667 1.333.667 0 0ZM382.5 161.5h1c-.185.67-.519.67-1 0ZM434.5 162.5a6674.301 6674.301 0 0 1 .5 200c-.5-66.666-.667-133.333-.5-200ZM379.5 163.5h1c-.185.67-.519.67-1 0ZM378.5 164.5h1c-.185.67-.519.67-1 0ZM376.5 165.5c1.333.667 1.333.667 0 0ZM375.5 166.5h1c-.185.67-.519.67-1 0ZM372.5 168.5h1c-.185.67-.519.67-1 0ZM371.5 169.5h1c-.185.67-.519.67-1 0ZM369.5 170.5c1.333.667 1.333.667 0 0ZM368.5 171.5h1c-.185.67-.519.67-1 0ZM365.5 173.5h1c-.185.67-.519.67-1 0ZM110.5 174.5c1.333.667 1.333.667 0 0ZM361.5 176.5h1c-.185.67-.519.67-1 0ZM114.5 177.5c1.333.667 1.333.667 0 0ZM358.5 178.5h1c-.185.67-.519.67-1 0ZM165.5 180.5c-.667.667-.667.667 0 0ZM167.5 181.5c.667 0 1 .333 1 1v1c-1.924-.211-2.257-.877-1-2ZM354.5 181.5h1c-.185.67-.519.67-1 0ZM421.5 182.5a5346.104 5346.104 0 0 1 .5 179c-.167-59.168-.667-118.168-1.5-177v-1c.667 0 1-.333 1-1ZM351.5 183.5h1c-.185.67-.519.67-1 0ZM348.5 185.5h1c-.185.67-.519.67-1 0ZM173.5 186.5c-.667.667-.667.667 0 0ZM347.5 186.5h1c-.185.67-.519.67-1 0ZM345.5 188.5v-1h2c-.342.838-1.008 1.172-2 1ZM344.5 188.5h1c-.185.67-.519.67-1 0ZM340.5 191.5h1c-.185.67-.519.67-1 0ZM338.5 193.5v-1h2c-.342.838-1.008 1.172-2 1ZM337.5 193.5h1c-.185.67-.519.67-1 0ZM333.5 196.5h1c-.185.67-.519.67-1 0ZM331.5 197.5c1.333.667 1.333.667 0 0ZM330.5 198.5h1c-.185.67-.519.67-1 0ZM327.5 200.5h1c-.185.67-.519.67-1 0ZM324.5 202.5h1c-.185.67-.519.67-1 0ZM128.5 203.5h2c0 .667.333 1 1 1v1c-1.527.073-2.527-.594-3-2ZM323.5 203.5h1c-.185.67-.519.67-1 0ZM151.5 205.5c1.333.667 1.333.667 0 0ZM320.5 205.5h1c-.185.67-.519.67-1 0ZM202.5 208.5c-.667.667-.667.667 0 0ZM316.5 208.5h1c-.185.67-.519.67-1 0ZM204.5 209.5c.667 0 1 .333 1 1v1c-1.924-.211-2.257-.877-1-2ZM313.5 210.5h1c-.185.67-.519.67-1 0ZM159.5 211.5c1.333.667 1.333.667 0 0ZM205.5 211.5h1c-.185.67-.519.67-1 0ZM309.5 213.5h1c-.185.67-.519.67-1 0ZM163.5 214.5c1.333.667 1.333.667 0 0ZM307.5 215.5v-1h2c-.342.838-1.008 1.172-2 1ZM212.5 215.5c-.397 1.025-1.063 1.192-2 .5a2.428 2.428 0 0 1 2-.5ZM306.5 215.5h1c-.185.67-.519.67-1 0ZM303.5 217.5h1c-.185.67-.519.67-1 0ZM302.5 218.5h1c-.185.67-.519.67-1 0ZM300.5 219.5c1.333.667 1.333.667 0 0ZM299.5 220.5h1c-.185.67-.519.67-1 0ZM296.5 222.5h1c-.185.67-.519.67-1 0ZM295.5 223.5h1c-.185.67-.519.67-1 0ZM293.5 224.5c1.333.667 1.333.667 0 0ZM224.5 225.5h1c.667 0 1 .333 1 1v1c-1.333 0-2-.667-2-2ZM292.5 225.5h1c-.185.67-.519.67-1 0ZM289.5 227.5h1c-.185.67-.519.67-1 0ZM286.5 229.5h1c-.185.67-.519.67-1 0ZM285.5 230.5h1c-.185.67-.519.67-1 0ZM167.5 231.5c0 .667.333 1 1 1v1c-1.924-.211-2.257-.877-1-2ZM283.5 232.5v-1h2c-.342.838-1.008 1.172-2 1ZM282.5 232.5h1c-.185.67-.519.67-1 0ZM279.5 234.5h1c-.185.67-.519.67-1 0ZM278.5 235.5h1c-.185.67-.519.67-1 0ZM192.5 236.5c1.333.667 1.333.667 0 0ZM276.5 237.5v-1h2c-.342.838-1.008 1.172-2 1ZM275.5 237.5h1c-.185.67-.519.67-1 0ZM271.5 240.5h1c-.185.67-.519.67-1 0ZM269.5 241.5c1.333.667 1.333.667 0 0ZM200.5 242.5c1.333.667 1.333.667 0 0ZM268.5 242.5h1c-.185.67-.519.67-1 0ZM248.5 243.5h1c.667 0 1 .333 1 1v1c-1.333 0-2-.667-2-2ZM265.5 244.5h1c-.185.67-.519.67-1 0ZM250.5 245.5h1c-.185.67-.519.67-1 0ZM264.5 245.5h1c-.185.67-.519.67-1 0ZM262.5 247.5v-1h2c-.342.838-1.008 1.172-2 1ZM187.5 247.5h1c0 .667.333 1 1 1v1c-1.333 0-2-.667-2-2ZM261.5 247.5h1c-.185.67-.519.67-1 0ZM255.5 248.5c-.667.667-.667.667 0 0ZM260.5 248.5h1c-.185.67-.519.67-1 0ZM249.5 293.5c0 .667.333 1 1 1v1c-1.924-.211-2.257-.877-1-2ZM433.5 363.5c1.333 1 1.333 2 0 3v-3ZM76.5 364.5c1.025.397 1.192 1.063.5 2a2.427 2.427 0 0 1-.5-2ZM37.5 366.5a12.935 12.935 0 0 1-.5 5c-.78-1.887-.613-3.554.5-5ZM49.5 370.5a8.435 8.435 0 0 1 .5-4c.765 1.566.598 2.899-.5 4ZM432.5 366.5h1c.172.992-.162 1.658-1 2v-2ZM461.5 370.5h-1c.333-5.333.667-5.333 1 0ZM473.5 366.5c1.113 1.446 1.28 3.113.5 5a12.93 12.93 0 0 1-.5-5ZM79.5 368.5c-.667.667-.667.667 0 0ZM431.5 368.5h1c-.185.67-.519.67-1 0ZM430.5 370.5c1.333.667 1.333.667 0 0ZM460.5 370.5a4.934 4.934 0 0 1-.5 3c-.74-1.249-.573-2.249.5-3ZM50.5 371.5c1.025.397 1.192 1.063.5 2a2.427 2.427 0 0 1-.5-2ZM429.5 371.5h1c-.185.67-.519.67-1 0ZM38.5 372.5a4.932 4.932 0 0 1-.5 3c-.74-1.249-.574-2.249.5-3ZM428.5 372.5h1c-.185.67-.519.67-1 0ZM472.5 372.5c1.073.751 1.24 1.751.5 3a4.934 4.934 0 0 1-.5-3ZM427.5 373.5h1c-.185.67-.519.67-1 0ZM51.5 375.5c1.333.667 1.333.667 0 0ZM86.5 375.5c-.667.667-.667.667 0 0ZM424.5 375.5h1c-.185.67-.519.67-1 0ZM459.5 375.5c-.667.667-.667.667 0 0ZM88.5 376.5c-.667.667-.667.667 0 0ZM422.5 376.5h2c-.667 1.333-1.333 1.333-2 0ZM471.5 376.5c1.025.397 1.192 1.063.5 2a2.428 2.428 0 0 1-.5-2ZM52.5 379.5a2.427 2.427 0 0 1 .5-2c.692.937.525 1.603-.5 2ZM89.5 378.5c1.1-1.098 2.434-1.265 4-.5a8.43 8.43 0 0 1-4 .5ZM470.5 379.5c1.333.667 1.333.667 0 0ZM53.5 380.5c1.333.667 1.333.667 0 0ZM41.5 381.5a2.427 2.427 0 0 1-.5 2c-.692-.937-.525-1.603.5-2ZM469.5 381.5c1.333.667 1.333 1.333 0 2v-2ZM55.5 383.5c1.333.667 1.333.667 0 0ZM468.5 383.5h1c-.333 2.667-.667 2.667-1 0ZM41.5 384.5c1.333.667 1.333.667 0 0ZM43.5 387.5c-.667-1.333-.667-1.333 0 0ZM57.5 386.5c1.333.667 1.333.667 0 0ZM467.5 386.5c1.333.667 1.333.667 0 0ZM43.5 387.5h1c-.185.67-.519.67-1 0ZM466.5 387.5h1c-.185.67-.519.67-1 0ZM45.5 389.5c-.667.667-.667.667 0 0ZM465.5 389.5c1.333.667 1.333.667 0 0ZM45.5 391.5c1.333.667 1.333.667 0 0ZM464.5 391.5c1.333.667 1.333.667 0 0ZM463.5 392.5h1c-.185.67-.519.67-1 0ZM462.5 393.5h1c.172.992-.162 1.658-1 2v-2ZM461.5 395.5h1c-.185.67-.519.67-1 0ZM460.5 396.5h1c-.185.67-.519.67-1 0ZM68.5 397.5c1.333.667 1.333.667 0 0ZM459.5 397.5h1c-.185.67-.519.67-1 0ZM458.5 398.5h1c-.185.67-.519.67-1 0ZM53.5 399.5c.667 0 1 .333 1 1-.06.543-.393.876-1 1-1.273-.757-1.273-1.423 0-2ZM457.5 399.5h1c-.185.67-.519.67-1 0ZM456.5 400.5h1c-.185.67-.519.67-1 0ZM434.5 402.5a2.428 2.428 0 0 1-2-.5c.937-.692 1.603-.525 2 .5ZM455.5 401.5h1c-.185.67-.519.67-1 0ZM78.5 403.5c.75-1.073 1.75-1.24 3-.5a4.934 4.934 0 0 1-3 .5ZM429.5 403.5c.397-1.025 1.063-1.192 2-.5a2.428 2.428 0 0 1-2 .5ZM454.5 402.5h1c-.185.67-.519.67-1 0ZM82.5 404.5c.75-1.073 1.75-1.24 3-.5a4.934 4.934 0 0 1-3 .5ZM428.5 404.5a4.934 4.934 0 0 1-3-.5c1.249-.74 2.249-.573 3 .5ZM453.5 403.5h1c-.185.67-.519.67-1 0ZM58.5 404.5c-.667.667-.667.667 0 0ZM86.5 405.5a18933.355 18933.355 0 0 1 337-.5c-112.333.5-224.666.667-337 .5ZM452.5 404.5h1c-.185.67-.519.67-1 0ZM449.5 406.5h1c-.185.67-.519.67-1 0ZM448.5 407.5h1c-.185.67-.519.67-1 0ZM446.5 408.5c1.333.667 1.333.667 0 0ZM68.5 411.5h1c-.185.67-.519.67-1 0ZM441.5 411.5h1c-.185.67-.519.67-1 0ZM71.5 412.5c-.667.667-.667.667 0 0ZM76.5 414.5c-.397 1.025-1.063 1.192-2 .5a2.429 2.429 0 0 1 2-.5ZM434.5 414.5a2.428 2.428 0 0 1 2 .5c-.937.692-1.603.525-2-.5ZM80.5 415.5c-.75 1.073-1.75 1.24-3 .5a4.934 4.934 0 0 1 3-.5ZM431.5 416.5c.397-1.025 1.063-1.192 2-.5a2.428 2.428 0 0 1-2 .5ZM81.5 417.5c.75-1.073 1.75-1.24 3-.5a4.934 4.934 0 0 1-3 .5ZM85.5 418.5c2.803-1.138 5.803-1.305 9-.5a40.911 40.911 0 0 1-9 .5ZM416.5 418.5c2.804-1.138 5.804-1.305 9-.5a40.914 40.914 0 0 1-9 .5Z" style="opacity:.008"/></svg>