<svg xmlns="http://www.w3.org/2000/svg" width="36" height="35" fill="none"><g clip-path="url(#a)"><path fill="#00AFCA" d="M35.153 26.25a3.889 3.889 0 0 1-3.889 3.89H4.042a3.889 3.889 0 0 1-3.889-3.89V8.75a3.889 3.889 0 0 1 3.89-3.889h27.221a3.889 3.889 0 0 1 3.89 3.89v17.5Z"/><path fill="#FFCC4D" d="M18.66 18.84a2.785 2.785 0 1 0 0-5.571 2.785 2.785 0 0 0 0 5.57Z"/><path fill="#FFCC4D" d="M18.662 13.059c.165-.002.225-.106.225-.23 0-.165-.226-1.454-.226-1.454s-.229 1.29-.229 1.454c0 .124.062.23.23.23Zm0 6.006c-.168.001-.23.105-.23.229 0 .166.23 1.438.23 1.438s.225-1.273.225-1.438c.001-.123-.06-.229-.226-.229Zm-.78-.117c-.16-.041-.244.043-.276.163-.043.16-.159 1.464-.159 1.464s.555-1.187.598-1.346c.033-.12 0-.239-.162-.281Zm1.556-5.803c.162.043.25-.042.281-.161.043-.16.15-1.449.15-1.449s-.546 1.17-.59 1.331c-.032.119-.001.237.16.28Zm-2.278 5.501c-.144-.08-.248-.021-.31.087-.082.143-.532 1.373-.532 1.373s.843-1.003.926-1.146c.062-.108.061-.23-.084-.314Zm3.004-5.202c.144.083.251.023.313-.084.083-.144.52-1.359.52-1.359s-.832.989-.916 1.132c-.06.107-.06.228.083.31ZM16.54 18.17c-.118-.116-.234-.086-.322.002-.116.117-.869 1.189-.869 1.189s1.075-.75 1.191-.866c.088-.088.119-.208 0-.325Zm4.248-4.249c.118.118.236.088.323 0 .118-.116.855-1.18.855-1.18s-1.059.742-1.175.86c-.088.087-.12.204-.003.32Zm-4.722 3.628c-.085-.142-.204-.142-.312-.081-.144.082-1.148.922-1.148.922s1.232-.445 1.375-.527c.108-.063.168-.17.085-.314Zm5.201-3.004c.085.145.207.146.313.085.144-.084 1.13-.918 1.13-.918s-1.213.44-1.357.523c-.107.063-.168.166-.086.31Zm-5.5 2.281c-.044-.16-.161-.19-.28-.16-.16.044-1.347.596-1.347.596s1.304-.112 1.464-.155c.12-.033.206-.12.163-.28Zm5.8-1.555c.045.161.162.194.282.162.16-.043 1.33-.593 1.33-.593s-1.288.11-1.45.154c-.118.03-.204.117-.162.277Zm-5.902.78c-.002-.165-.106-.225-.23-.225-.165 0-1.454.225-1.454.225s1.29.23 1.455.23c.123 0 .23-.062.23-.23Zm6.007 0c0 .168.104.23.228.23.166 0 1.438-.23 1.438-.23s-1.273-.225-1.438-.225c-.123-.001-.228.06-.228.225Zm-5.905-.774c.041-.16-.043-.245-.163-.278-.16-.042-1.464-.158-1.464-.158s1.187.555 1.346.598c.12.032.239-.001.281-.162Zm5.802 1.554c-.043.162.042.249.16.281.161.043 1.45.15 1.45.15s-1.17-.548-1.331-.59c-.12-.031-.237-.001-.28.16Zm-5.502-2.277c.08-.144.021-.249-.087-.31-.143-.083-1.373-.532-1.373-.532s1.003.843 1.146.926c.108.062.23.06.314-.084Zm5.202 3.003c-.084.145-.023.252.084.313.143.084 1.359.52 1.359.52s-.989-.83-1.132-.914c-.107-.062-.228-.062-.311.081Zm-4.727-3.623c.116-.119.086-.234-.002-.322-.117-.117-1.189-.87-1.189-.87s.75 1.075.866 1.192c.088.087.207.118.325 0Zm4.249 4.248c-.118.118-.088.237 0 .323.116.118 1.179.855 1.179.855s-.74-1.059-.858-1.177c-.088-.087-.205-.12-.321-.002Zm-3.627-4.724c.141-.084.142-.204.081-.312-.083-.143-.923-1.147-.923-1.147s.446 1.232.528 1.375c.061.108.17.168.314.084Zm3.003 5.203c-.143.083-.145.205-.084.312.084.144.918 1.13.918 1.13s-.44-1.215-.523-1.359c-.063-.106-.168-.167-.31-.083Zm-2.281-5.501c.16-.045.19-.161.16-.281-.044-.16-.596-1.347-.596-1.347s.112 1.305.155 1.465c.032.12.12.206.28.163Zm1.555 5.801c-.161.045-.194.162-.162.281.043.16.593 1.33.593 1.33s-.11-1.288-.154-1.447c-.03-.12-.117-.207-.277-.164Z"/><path fill="#FFCC4D" d="m21.393 22.988-.036.016-.04.006-.03.005-.055-.011-.025-.01-.022-.01-.026-.017-.044-.031-.04-.032-.022-.016-.029-.012-.02-.004h-.027l-.11.228-.023.032-.02.026-.023.017-.02.017-.028.01h-.026l-.024-.01-.034-.017-.01-.017-.012-.016-.011-.021-.012-.026-.016-.08-.032.026-.03.038-.06.091-.036.048-.038.037-.02.022-.027.017-.026.011-.032.01h-.016l-.028.006-.026-.006-.02-.01-.063-.075-.07-.075-.047.075-.056.064-.026.026-.024.026-.027.021-.05.028-.026.006h-.026l-.022-.006-.021-.012-.016-.017-.02-.025a2.438 2.438 0 0 0-.044-.117l-.006-.028-.01-.02-.011-.01h-.012l-.144.235-.02.02-.038.017-.084.02h-.05l-.037-.01-.012-.007-.016-.016-.004-.01v-.021l.02-.236-.016.006-.041.02c-.039.04-.076.081-.112.123l-.048.06-.06.05-.055.04-.03.018-.065.01-.026-.006-.012-.004-.01-.011-.006-.017v-.016l.005-.068.017-.108-.01-.063-.023-.038-.032.048-.053.07a4.43 4.43 0 0 1-.134.14c-.025.016-.05.034-.075.053l-.058.02-.012-.006h-.016l-.012-.01-.004-.005-.011-.017-.004-.016v-.02l-.006-.028.006-.202c-.098.066-.196.13-.295.191l-.037.017-.042.021-.117.031h-.04l-.035-.005-.033-.011.016-.043.033-.075.02-.03.023-.033.02-.032.055-.054.06-.041.067-.044.07-.032.081-.026.08-.02.182-.033.09-.012c.268-.015.538-.017.806-.015l.295-.017.091-.01.17-.033.08-.022.077-.031.07-.032c.037-.03.075-.058.113-.086l.052-.06-.055-.106.043-.006.042-.01.044-.02.036-.028.015-.01.018-.016.012-.022.011-.015.004-.022v-.037l-.012-.02.092-.018.097-.01.102-.006h.106c.149.006.297.015.444.026.224.027.449.049.673.07l.201.011v.074l-.003.033-.012.031-.01.032-.012.026-.015.022a1.13 1.13 0 0 1-.06.063l-.047.031-.052.021-.051.012-.06.01-.113-.01-.06-.016-.05-.028-.056-.026-.042-.038-.042-.042v.092l-.026.177-.02.055-.012.023-.016.015-.011.017-.014.01Zm-4.295-.502.121.053c.024-.02.05-.04.075-.058l.048-.026.042-.027.16-.064.139-.064.07-.026.119-.064.047-.033.364-.233.106-.075.08-.064c.08-.072.158-.145.236-.219l.032-.021.037-.021a3.3 3.3 0 0 1 .134-.065l.09-.03c.181-.05.365-.09.55-.118.188-.023.377-.048.565-.07l.251-.042c.063-.018.125-.033.188-.048l.064-.08.103-.112.07-.07.078-.064.091-.07.106-.07.162-.095c.115-.058.23-.116.345-.177.204-.095.405-.196.605-.3l.096-.063.026-.081.038-.079.048-.08.123-.166c.056-.06.11-.12.165-.183.066-.064.134-.126.203-.186l.104-.085.051-.038.055-.037.118-.064.06-.027.057-.02.125-.034.062-.003.06-.006.062.006.06.01-.005.064-.015.063-.048.134-.04.069-.047.07-.059.074-.07.075.056-.006.047-.01.038-.013.036-.015.07-.021.1-.011.006.038v.037l-.006.037-.01.032-.015.032-.022.032-.02.025-.027.027c-.073.071-.148.14-.224.208l.063.006c.046.015.093.03.14.042l.052.012-.062.048-.15.097-.17.096-.086.053-.086.06-.08.064.036.005.05.021.021.006.02.01.018.005.016-.004-.106.059a7.49 7.49 0 0 0-.198.096l-.081.049-.016.016-.01.017-.011.015.004.022.011.016.02.016.02.017-.008.02-.011.018-.02.016-.02.016-.052.026-.062.027-.121.043-.076.037.106.107-.038.036-.036.028-.032.016-.038.016-.074.01h-.105l.012.049.015.048.023.108a4.425 4.425 0 0 1-.204.148l-.123.08-.137.08-.082.038-.08.037c-.09.035-.18.067-.273.096l-.207.044-.114.016c.124.004.247.006.37.005l.304-.032.133-.026.118-.032c.078-.027.154-.056.23-.086l.147-.068.146-.08.137-.087.146-.085-.088-.043-.083-.026-.04-.018c-.03-.015-.06-.03-.091-.042l-.05-.027.042-.031.051-.022.056-.02c.064-.016.13-.03.193-.044.084-.009.168-.02.251-.031l.106-.01.082-.021.021-.012.016-.016-.004-.006-.012-.01-.015-.007-.02-.01-.06-.011-.076-.01-.074-.007-.074-.01-.066-.017-.04-.016.522-.117.092-.027c.04-.015.079-.031.117-.048l.052-.033.022-.02-.006-.005-.01-.012-.049-.01-.068-.006h-.082c-.055-.004-.11-.008-.165-.01l-.068-.012-.044-.01.076-.032a8.02 8.02 0 0 1 .342-.097 4.68 4.68 0 0 1 .198-.064l.1-.043.049-.026.043-.026.016-.017.016-.021.016-.016.006-.016-.006-.017-.016-.011-.016-.004h-.148l-.07.004h-.095l-.029-.004-.018-.012-.023-.01c.194-.13.39-.256.588-.38l.154-.108c.041-.034.081-.07.121-.106l.048-.053.043-.054.033-.058.026-.058.015-.066v-.069h-.036l-.038.006-.083.031c-.074.047-.15.092-.226.134l-.041.028-.05.02-.048.017-.044.01-.041.006h-.05l-.042-.016.13-.097c.104-.088.207-.178.309-.267.113-.108.223-.218.33-.331l.154-.172c.046-.06.092-.118.14-.176.038-.055.076-.11.112-.166l.011-.02.004-.017-.004-.022-.005-.016-.006-.017-.016-.01-.016-.017-.016-.006-.02-.01-.024-.006h-.041l-.02.006-.029.004-.016.017-.022.017c-.109.109-.217.22-.323.332l-.129.122c-.085.074-.17.147-.257.22-.04.027-.081.054-.123.08l-.118.059.036-.032c.04-.037.077-.074.114-.112.137-.158.268-.321.395-.486l.247-.347.066-.117.066-.107.053-.097.042-.092.026-.073.006-.027v-.043l-.006-.016-.02-.032-.01-.01-.018-.006-.03-.017-.04-.01h-.073l-.02.005-.016.005-.023.012-.015.015-.044.038a4.158 4.158 0 0 0-.139.177c-.107.167-.22.33-.336.49l-.135.161-.068.07-.074.064.095-.177.15-.315.097-.229.042-.117.074-.242c.018-.077.035-.155.05-.234l.017-.22-.008-.053-.004-.048-.006-.05-.015-.062-.012-.017-.026-.026-.036-.016-.04-.012h-.036l-.034.006-.01.006-.015.004-.006.012c-.096.303-.17.612-.253.918-.031.086-.062.171-.095.257l-.08.155-.05.069.032-.154c.016-.09.03-.178.042-.267l.023-.22.006-.091a3.396 3.396 0 0 0-.012-.14l-.01-.053-.015-.043-.023-.032-.012-.01-.032-.011-.015-.006h-.018l-.015.006-.044.01-.042.022c-.033.165-.073.33-.117.492a5.962 5.962 0 0 1-.224.603c-.058.12-.119.24-.183.357l-.117.204-.128.191c-.085.12-.174.237-.265.352-.09.101-.181.2-.273.3-.097.094-.195.187-.295.279-.103.085-.207.168-.313.25-.13.093-.262.182-.397.267l-.235.138-.374.172-.385.138-.32.097-.33.074-.165.027-.338.043-.171.01-.017.007-.017.005-.032.017-.036.025a4.348 4.348 0 0 0-.123.112l-.086.087-.31.346-.117.117-.138.106-.055.037-.053.033-.117.054c-.18.074-.365.14-.546.214l-.048.026-.043.022-.03.02-.06.06-.017.026-.011.027-.004.037v.028"/><path fill="#FFCC4D" d="m19.054 22.726.09.012.044.016.01.005v.006h-.01l-.012.005-.086.016h-.068l-.223-.016-.567-.011c-.15.002-.3.006-.45.01-.132.01-.263.021-.395.033l-.102.016-.09.02c-.022.008-.042.016-.064.022l-.027.012-.021.016.01-.054.023-.055-.075.022-.064.032-.026.016-.022.022-.016.025-.004.027-.016-.037-.012-.033a.801.801 0 0 0-.011-.069l.015-.084.018-.028.01-.021.022-.025.043-.043.058-.038.066-.037a.49.49 0 0 0 .11.048c.04.003.078 0 .115-.011.059.052.213.042.234-.054a.235.235 0 0 0 0-.106l.064-.005.075-.012.165-.043.087-.016.08-.02.074-.011.064-.006-.027.022-.139.106-.052.037.068.018.06.01-.127.144-.033.043.041.017.043.011.049.01h.096l.095-.02.038-.023.044.022.043.017c.027.008.055.015.084.021.066.007.132.015.199.02h.402m-.487-1.625-.047.096-.055.124c-.028.05-.054.102-.079.154l-.027.027-.063-.054-.07-.048-.075-.038-.079-.031-.172-.044-.084-.016a6.471 6.471 0 0 0-.278-.026 5.807 5.807 0 0 1-.369-.017l-.171-.02-.096-.017-.09-.02-.096-.034-.08-.042-.06-.038-.122-.09c-.18-.17-.356-.34-.54-.504l-.106-.073-.049-.022-.05-.015-.09-.02a4.453 4.453 0 0 0-.16-.054l-.15-.07a3.075 3.075 0 0 1-.256-.176l-.054-.05-.106-.106-.102-.112c-.168-.205-.327-.417-.49-.625a9.437 9.437 0 0 0-.241-.246l-.069-.063-.07-.058-.154-.112-.015.005-.018.016-.016.022c-.01.024-.018.05-.025.075l-.006.021-.04-.017-.031-.017-.04-.017-.031-.01h-.07l-.037.01-.037.017c.029.037.057.074.084.112l.048.075.087.165.03.08.012.043.012.032.005.037v.032h-.288l.042.064c.032.043.066.086.1.128l.177.177.06.048.054.037a3.396 3.396 0 0 1-.14.012l-.14.016.048.044c.042.029.083.059.124.09l.069.047.07.043.069.038.064.022.06.015.047.01.015.007.012.011.004.005v.02l-.015.044-.004.032-.007.02v.016l.007.028.004.021.011.01.016.011.02.011.027.006.055.021.026.01.021.017.005.005v.011l-.005.006-.042.031-.022.021-.021.027v.022l-.005.021.01.058.187.064.043.01.043.017.032.017.027.016-.177.14.048.042.06.032.074.037c.054.02.107.037.162.055l.08.015.07.017h.063l-.06.042-.075.048-.08.044-.059.043.054.037c.162.083.328.16.498.23.295.12.597.226.902.32.068.016.135.034.202.053l.086.017-.173-.017a7.34 7.34 0 0 1-.32-.048l-.15-.032-.294-.085-.138-.049c-.37-.143-.73-.309-1.1-.449l.027-.015.075-.028.047-.01c.066-.02.129-.041.193-.064a7.203 7.203 0 0 1-.38-.069 4.66 4.66 0 0 0-.198-.059l-.038-.016-.032-.017-.026-.017-.017-.016v-.005l.005-.006.017-.005.015-.011.043-.017.187-.054.108-.037c-.155-.03-.31-.055-.466-.08l-.075-.017-.059-.02-.021-.012-.02-.017-.018-.01-.011-.017.017-.01.047-.011.15-.027.085-.01c.05-.014.097-.029.144-.044l.023-.016.021-.017-.085-.032-.054-.01-.053-.012-.245-.032-.065-.015-.059-.012-.117-.042-.055-.027-.044-.031-.043-.038-.031-.048.011-.006.02-.005h.028l.043.005.203.011.118.012h.15l.04-.006.034-.01.021-.012c-.1-.041-.2-.084-.3-.129a6.352 6.352 0 0 0-.197-.096l-.203-.106-.096-.06a7.126 7.126 0 0 1-.176-.128l-.075-.064-.033-.037-.033-.032-.02-.032-.023-.038-.021-.03-.012-.038-.008-.069h.035l.043.005.043.017.043.016.085.054.096.053.043.027.047.026.048.02.043.017.047.012.043.005h.049l.041-.017-.126-.097a13.732 13.732 0 0 1-.31-.265 8.477 8.477 0 0 1-.487-.504l-.068-.09-.07-.086a7.133 7.133 0 0 1-.113-.166l-.01-.021v-.037l.005-.017.005-.015.016-.011.016-.017.018-.011.02-.006.021-.004h.043l.026.004.024.006.02.016c.116.115.23.23.341.348.124.119.252.234.385.343l.123.078.063.033.06.02-.042-.026-.112-.111c-.137-.158-.268-.321-.396-.486a9.96 9.96 0 0 1-.166-.236 7.215 7.215 0 0 0-.15-.23 5.128 5.128 0 0 1-.118-.202 4.944 4.944 0 0 0-.068-.166l-.006-.026v-.044l.006-.015.02-.032.012-.012.017-.01.069-.022h.075l.021.005.016.006.021.011.06.054.139.177c.108.167.223.33.342.49l.126.161.07.07.075.063a12.932 12.932 0 0 1-.245-.49 9.184 9.184 0 0 1-.096-.23l-.043-.117a4.308 4.308 0 0 0-.075-.24l-.026-.118-.02-.12-.011-.112-.005-.106.005-.053.007-.049.004-.049.011-.047.01-.018.007-.015.015-.018.01-.01.038-.016.038-.01h.037l.032.006.015.004.012.006.006.011.006.016c.091.298.166.602.245.904.03.085.063.168.097.251l.037.08.043.075.047.075-.03-.156a5.792 5.792 0 0 0-.044-.265 8.255 8.255 0 0 1-.026-.31l.01-.14.011-.054.017-.042.021-.032.011-.012.016-.01.015-.005h.049l.044.015.041.022.075.336c.027.102.058.204.09.304.055.153.114.305.178.454l.075.155.106.204.117.202.13.193.138.191.129.16c.09.102.18.202.272.3.096.095.194.187.295.277l.154.13c.142.11.288.215.439.315.117.07.237.138.357.203l.368.177c.187.074.375.142.566.202.186.05.376.092.566.128a6.7 6.7 0 0 0 .782.076ZM3.514 27.73s-.23.19-.308.094c-.126-.155.386-.932.386-1.206 0-.448-.3-.573-.67-.636-.25-.043-.653.018-.653.018.076.103.126.135.254.14a.539.539 0 0 0-.288.488c0 .385.16.544.16.98 0 .243-.199.55-.199.55.35-.035.525-.359.426-.62a.169.169 0 0 1 .15.046c.025-.07-.015-.155-.07-.226.045-.023.077-.009.146.005-.007-.074-.052-.152-.16-.226.315.08.509-.138.509-.367 0-.175-.122-.3-.241-.3a.249.249 0 0 0-.128.04c-.022-.047-.01-.11.012-.159-.087.023-.142.074-.102.183a.214.214 0 0 0-.157.072.187.187 0 0 0 .157.07c-.049.101.006.159.085.203 0 0-.051-.203.078-.203.059 0 .111.02.111.105 0 .073-.065.176-.215.17-.15-.006-.272-.104-.272-.342 0-.223.178-.332.412-.34.212-.006.372.109.372.328 0 .29-.42.952-.42 1.21 0 .195.174.303.345.303.221 0 .408-.22.408-.22l-.128-.16Zm-.049-5.253c0-.484.436-.734.778-.734.46 0 .707.276.707.636 0 .206-.038.334-.132.53L3.76 25.103a.651.651 0 0 0-.05.292c0 .196.192.358.392.363.182.004.381-.17.381-.37 0-.242-.124-.349-.254-.349-.158 0-.221.064-.221.176 0 .079.038.112.091.112.136 0 .098-.183.098-.183a.127.127 0 0 1 .092.171.24.24 0 0 1 .13.077.242.242 0 0 1-.13.072c.032.105-.011.156-.102.179a.187.187 0 0 0 .012-.113c-.145.04-.366-.023-.366-.274 0-.25.172-.458.495-.407-.077-.035-.115-.11-.123-.195a.414.414 0 0 0 .123.027c-.037-.066-.09-.123-.088-.256.06.029.116.078.192.046-.12-.236.028-.56.405-.64a.778.778 0 0 0-.205.51c0 .564.157.657.157 1.048a.58.58 0 0 1-.25.46v-.006c.108.03.18.085.22.157-.252.072-.618.07-.814-.006a.602.602 0 0 1-.43-.287.872.872 0 0 1 0-.694c.15-.312.855-1.809 1.075-2.28.048-.1.074-.21.075-.32 0-.288-.264-.389-.413-.389-.18 0-.363.138-.363.307 0 .11.06.173.143.173.203 0 .19-.172.15-.28.125.058.199.157.179.264.071.01.14.044.202.114-.05.064-.11.11-.202.111.04.166-.07.236-.18.274.035-.12.057-.262-.15-.262-.15 0-.268-.026-.337-.124-.005.13-.018.646-.018.646-.008.195.26.189.43.131-.065.224-.197.346-.503.314a.24.24 0 0 1 .154.235c0 .183-.148.384-.244.444l-.049-1.894Z"/><path fill="#FFCC4D" d="M3.562 22.477c0-.484-.436-.734-.778-.734-.46 0-.707.276-.707.636 0 .206.038.335.133.53l1.056 2.194a.651.651 0 0 1 .049.292c0 .196-.192.358-.39.363-.184.005-.382-.17-.382-.37 0-.242.124-.349.254-.349.158 0 .221.064.221.176 0 .079-.037.112-.09.112-.137 0-.1-.183-.1-.183a.127.127 0 0 0-.09.171.24.24 0 0 0-.132.077.242.242 0 0 0 .131.072c-.03.105.012.157.104.178a.188.188 0 0 1-.013-.113c.145.041.366-.023.366-.274 0-.249-.172-.458-.494-.406.076-.035.115-.11.122-.196a.415.415 0 0 1-.122.027c.036-.066.089-.123.087-.255-.06.028-.115.078-.192.045.12-.236-.028-.56-.405-.64.128.14.201.321.205.51 0 .564-.156.657-.156 1.048a.58.58 0 0 0 .25.461v-.007a.333.333 0 0 0-.22.158c.252.07.617.07.814-.007a.601.601 0 0 0 .43-.287.872.872 0 0 0 0-.694c-.15-.312-.855-1.808-1.075-2.28a.748.748 0 0 1-.075-.32c0-.288.264-.389.413-.389.18 0 .363.138.363.308 0 .108-.06.173-.143.173-.203 0-.19-.173-.15-.281-.126.058-.2.157-.18.264a.328.328 0 0 0-.202.114c.05.064.11.11.203.112-.041.165.07.235.178.273-.034-.12-.056-.262.151-.262.15 0 .27-.026.338-.124l.018.646c.008.195-.26.189-.43.132.063.222.196.344.5.313a.24.24 0 0 0-.153.234c0 .183.147.384.244.444l.049-1.892Zm-.048 5.252s.23.192.308.096c.126-.156-.385-.933-.385-1.207 0-.448.3-.573.67-.636.248-.043.653.019.653.019-.077.102-.126.134-.254.14a.54.54 0 0 1 .288.487c0 .385-.16.544-.16.98 0 .243.199.55.199.55-.35-.035-.525-.359-.426-.62a.172.172 0 0 0-.15.046c-.025-.07.016-.155.07-.226-.045-.023-.077-.009-.146.005.007-.074.05-.152.16-.226-.315.08-.509-.138-.509-.367 0-.175.122-.3.241-.3a.25.25 0 0 1 .128.04c.022-.047.01-.11-.013-.158.088.022.142.073.103.182a.216.216 0 0 1 .157.072.187.187 0 0 1-.157.07c.049.102-.006.159-.085.204 0 0 .051-.204-.078-.204-.059 0-.111.02-.111.105 0 .073.065.176.215.17.15-.006.271-.104.271-.342 0-.222-.178-.332-.412-.339-.212-.007-.372.108-.372.327 0 .29.42.952.42 1.211 0 .195-.174.302-.345.302-.221 0-.408-.22-.408-.22l.128-.16Zm-.048-13.752c0-.486.435-.735.777-.735.461 0 .707.276.707.637 0 .205-.038.334-.132.529l-1.057 2.195a.645.645 0 0 0-.05.29c0 .198.192.359.392.364.182.004.382-.17.382-.369 0-.241-.125-.349-.254-.349-.159 0-.222.065-.222.177 0 .077.038.11.092.11.136 0 .098-.182.098-.182a.125.125 0 0 1 .1.116.126.126 0 0 1-.009.053.243.243 0 0 1 .131.078.248.248 0 0 1-.13.073c.031.105-.012.155-.103.178a.187.187 0 0 0 .013-.113c-.145.04-.367-.023-.367-.274 0-.248.172-.457.496-.406-.078-.037-.116-.111-.123-.195a.415.415 0 0 0 .123.025c-.038-.066-.09-.123-.088-.254.06.027.115.077.192.045-.12-.237.027-.563.404-.64-.127.14-.2.32-.205.51 0 .563.158.657.158 1.049a.58.58 0 0 1-.251.46v-.006c.107.03.177.083.219.157-.252.072-.619.07-.814-.007a.605.605 0 0 1-.43-.287.867.867 0 0 1 0-.692c.149-.313.855-1.81 1.075-2.281.048-.1.073-.21.074-.321 0-.288-.263-.389-.413-.389-.18 0-.362.137-.362.306 0 .11.059.174.143.174.203 0 .19-.173.15-.28.125.056.199.157.178.264.072.01.14.043.202.115-.05.062-.11.108-.202.11.04.167-.07.237-.179.275.034-.12.057-.26-.15-.26-.15 0-.269-.027-.338-.124-.005.13-.017.646-.017.646-.008.194.26.189.43.13-.064.224-.195.345-.501.314a.24.24 0 0 1 .153.235.618.618 0 0 1-.244.443l-.048-1.894Z"/><path fill="#FFCC4D" d="M3.561 13.977c0-.486-.435-.735-.777-.735-.46 0-.707.276-.707.637 0 .205.038.334.132.529l1.057 2.195a.647.647 0 0 1 .048.29c0 .198-.191.359-.39.364-.183.004-.381-.17-.381-.369 0-.241.124-.349.253-.349.159 0 .222.065.222.177 0 .077-.038.11-.091.11-.136 0-.099-.182-.099-.182a.124.124 0 0 0-.09.17.243.243 0 0 0-.132.077.248.248 0 0 0 .131.073c-.031.105.01.155.102.178a.187.187 0 0 1-.012-.113c.144.04.366-.023.366-.274 0-.248-.172-.457-.495-.406.077-.037.116-.111.123-.195-.059.023-.123.025-.123.025.037-.066.09-.123.088-.254-.06.027-.115.077-.193.045.12-.237-.027-.563-.404-.64.128.14.2.32.205.51 0 .563-.156.657-.156 1.049 0 .163.084.34.25.46v-.006c-.107.03-.178.083-.218.157.251.072.617.07.813-.007a.605.605 0 0 0 .43-.287.867.867 0 0 0 0-.692c-.15-.313-.855-1.81-1.074-2.281a.747.747 0 0 1-.075-.32c0-.288.263-.389.413-.389.18 0 .362.137.362.306 0 .11-.059.174-.142.174-.204 0-.19-.173-.151-.28-.125.056-.2.157-.179.264a.32.32 0 0 0-.202.115c.05.062.11.108.202.11-.04.167.07.237.179.275-.034-.121-.056-.261.15-.261.151 0 .27-.026.339-.123l.016.644c.008.194-.26.189-.43.13.064.224.196.345.501.315a.24.24 0 0 0-.153.235c0 .181.146.384.244.443l.048-1.894Z"/><path fill="#FFCC4D" d="M3.561 12.521c0 .485-.435.735-.777.735-.46 0-.707-.276-.707-.638 0-.204.038-.332.133-.529l1.056-2.195a.648.648 0 0 0 .048-.29c0-.197-.191-.358-.39-.363-.183-.004-.381.17-.381.37 0 .241.124.348.253.348.159 0 .222-.065.222-.177 0-.077-.038-.11-.091-.11-.136 0-.099.182-.099.182a.125.125 0 0 1-.09-.17.23.23 0 0 1-.132-.077.253.253 0 0 1 .131-.072c-.03-.105.012-.155.103-.178a.187.187 0 0 0-.012.113c.144-.04.366.026.366.274 0 .248-.172.457-.495.406.077.037.116.112.123.195a.446.446 0 0 0-.123-.025c.037.066.09.123.088.255-.06-.027-.115-.078-.193-.046.12.237-.027.563-.404.64.128-.14.2-.32.205-.51 0-.562-.156-.657-.156-1.048a.58.58 0 0 1 .25-.46v.006A.334.334 0 0 1 2.27 9c.252-.071.618-.07.814.008a.602.602 0 0 1 .43.287.867.867 0 0 1 0 .692c-.15.314-.855 1.81-1.074 2.28a.744.744 0 0 0-.075.32c0 .289.263.39.413.39.18 0 .362-.138.362-.308 0-.108-.059-.174-.142-.174-.203 0-.19.172-.151.28-.125-.056-.2-.157-.179-.264a.325.325 0 0 1-.202-.114c.05-.063.11-.11.202-.111-.04-.165.07-.236.179-.275-.034.121-.056.262.15.262.151 0 .27.025.339.124l.017-.648c.008-.193-.26-.188-.43-.13.064-.224.196-.344.501-.314a.241.241 0 0 1-.153-.235c0-.182.146-.384.244-.444l.047 1.896Zm0 8.501c0 .485-.435.734-.777.734-.46 0-.707-.275-.707-.636a1.07 1.07 0 0 1 .133-.529l1.056-2.195a.648.648 0 0 0 .048-.29c0-.198-.191-.358-.39-.363-.183-.005-.381.17-.381.368 0 .241.124.35.253.35.159 0 .222-.066.222-.178 0-.076-.038-.11-.091-.11-.136 0-.099.183-.099.183a.125.125 0 0 1-.085-.064.126.126 0 0 1-.006-.106.23.23 0 0 1-.131-.078.247.247 0 0 1 .131-.072c-.03-.106.01-.156.102-.178a.187.187 0 0 0-.012.112c.144-.04.366.025.366.275 0 .247-.172.456-.495.405.077.038.116.112.123.196-.059-.022-.123-.026-.123-.026.037.066.09.125.088.255-.06-.027-.115-.078-.193-.046.12.236-.027.564-.404.64a.78.78 0 0 0 .205-.51c0-.56-.156-.657-.156-1.048 0-.164.084-.34.25-.46v.005c-.107-.028-.178-.081-.218-.156.251-.071.617-.07.813.008a.605.605 0 0 1 .43.286.868.868 0 0 1 0 .693c-.15.313-.855 1.809-1.074 2.28a.74.74 0 0 0-.075.32c0 .288.263.388.413.388.18 0 .362-.137.362-.307 0-.106-.059-.172-.142-.172-.203 0-.19.172-.151.28-.125-.056-.2-.159-.179-.264a.318.318 0 0 1-.202-.114.265.265 0 0 1 .202-.112c-.04-.165.07-.234.179-.273-.034.121-.056.261.15.261.151 0 .27.026.339.125l.017-.648c.008-.192-.26-.187-.43-.13.064-.223.196-.343.501-.313a.241.241 0 0 1-.153-.235c0-.182.146-.383.244-.444l.047 1.893Z"/><path fill="#FFCC4D" d="M3.466 21.022c0 .485.435.734.777.734.46 0 .706-.275.706-.636a1.07 1.07 0 0 0-.132-.529l-1.056-2.195a.646.646 0 0 1-.05-.29c0-.198.192-.358.392-.363.182-.005.381.17.381.368 0 .241-.124.35-.254.35-.158 0-.221-.066-.221-.178 0-.076.038-.11.091-.11.136 0 .098.183.098.183a.127.127 0 0 0 .092-.17.232.232 0 0 0 .13-.078.247.247 0 0 0-.13-.072c.032-.106-.011-.156-.102-.178.018.04.018.077.012.112-.144-.04-.366.025-.366.274 0 .248.172.457.496.406-.078.038-.116.112-.124.196.058-.022.124-.026.124-.026-.038.066-.09.125-.089.255.06-.027.116-.078.192-.046-.12.236.028.564.405.64a.78.78 0 0 1-.205-.51c0-.56.157-.657.157-1.048a.577.577 0 0 0-.25-.46v.005a.332.332 0 0 0 .22-.157c-.252-.071-.618-.07-.813.008a.605.605 0 0 0-.43.286.868.868 0 0 0 0 .693c.149.313.854 1.809 1.074 2.28a.74.74 0 0 1 .075.32c0 .288-.264.388-.413.388-.18 0-.363-.137-.363-.307 0-.106.06-.172.143-.172.203 0 .19.172.15.28.125-.056.199-.159.179-.264a.314.314 0 0 0 .202-.114.264.264 0 0 0-.202-.112c.04-.165-.07-.234-.18-.273.035.121.057.261-.149.261-.15 0-.269.026-.338.125-.005-.13-.017-.648-.017-.648-.008-.192.259-.187.429-.13-.065-.223-.196-.343-.502-.313a.241.241 0 0 0 .153-.235c0-.182-.148-.383-.244-.444l-.048 1.894Zm.048-13.751s.23-.193.308-.097c.126.156-.385.933-.385 1.207 0 .45.3.571.669.635.249.044.653-.017.653-.017-.078-.102-.126-.133-.255-.14a.534.534 0 0 0 .288-.485c0-.387-.16-.547-.16-.982 0-.243.199-.55.199-.55-.35.035-.525.359-.426.619a.168.168 0 0 1-.148-.046c-.026.072.015.155.069.227-.044.024-.076.01-.145-.005.007.074.05.152.16.226-.317-.082-.51.138-.51.369 0 .174.121.297.241.297a.24.24 0 0 0 .127-.04c.023.048.011.112-.012.16.087-.023.142-.075.103-.183a.226.226 0 0 0 .156-.072.19.19 0 0 0-.157-.071c.048-.101-.006-.158-.085-.202 0 0 .05.202-.079.202-.058 0-.11-.02-.11-.104 0-.074.065-.177.214-.17.15.006.272.103.272.343 0 .22-.178.33-.412.337-.211.006-.37-.109-.37-.326 0-.291.42-.952.42-1.212 0-.194-.175-.303-.346-.303-.221 0-.408.22-.408.22l.13.163Z"/><path fill="#FFCC4D" d="M3.514 7.271s-.23-.193-.308-.097c-.127.157.386.934.386 1.208 0 .45-.3.571-.67.635C2.672 9.06 2.269 9 2.269 9c.076-.102.126-.133.254-.14a.534.534 0 0 1-.289-.485c0-.387.16-.547.16-.982 0-.243-.199-.55-.199-.55.35.035.525.359.426.619a.172.172 0 0 0 .15-.046c.025.072-.015.155-.069.227.043.024.075.01.145-.005-.007.074-.052.152-.16.226.315-.082.509.138.509.369 0 .174-.122.297-.241.297a.24.24 0 0 1-.128-.04c-.021.049-.01.112.013.16-.087-.023-.14-.075-.102-.182a.223.223 0 0 1-.157-.072.189.189 0 0 1 .157-.072c-.049-.101.006-.158.085-.202 0 0-.051.202.078.202.059 0 .111-.02.111-.104 0-.074-.065-.177-.215-.17-.15.006-.272.103-.272.342 0 .22.178.33.412.337.212.006.372-.108.372-.326 0-.291-.42-.952-.42-1.212 0-.194.174-.303.345-.303.221 0 .408.22.408.22l-.128.164Zm-.049 5.25c0 .485.436.735.778.735.46 0 .707-.276.707-.638 0-.204-.038-.332-.132-.529L3.76 9.894a.651.651 0 0 1-.049-.29c0-.196.192-.357.392-.362.182-.004.381.17.381.37 0 .241-.124.348-.254.348-.158 0-.221-.065-.221-.177 0-.078.038-.11.091-.11.136 0 .098.182.098.182a.126.126 0 0 0 .092-.17.235.235 0 0 0 .13-.078.253.253 0 0 0-.132-.072c.032-.105-.011-.155-.102-.178.018.041.018.078.012.113-.145-.04-.366.024-.366.274 0 .248.172.457.495.406-.077.037-.115.112-.123.195a.45.45 0 0 1 .123-.025c-.037.066-.09.123-.088.255.06-.028.116-.078.193-.046-.121.237.027.563.404.64a.785.785 0 0 1-.205-.51c0-.562.157-.657.157-1.048a.58.58 0 0 0-.25-.46v.006A.34.34 0 0 0 4.758 9c-.253-.07-.62-.07-.816.008a.598.598 0 0 0-.43.287.866.866 0 0 0 0 .692c.15.313.856 1.81 1.076 2.28.048.1.073.21.075.32 0 .289-.264.39-.413.39-.18 0-.363-.138-.363-.308 0-.108.06-.174.143-.174.203 0 .19.172.15.28.125-.056.199-.157.179-.264a.32.32 0 0 0 .202-.114c-.05-.063-.11-.11-.202-.111.04-.165-.07-.236-.18-.275.035.121.057.262-.149.262-.15 0-.27.025-.338.124-.005-.13-.018-.648-.018-.648-.008-.193.26-.188.43-.13-.063-.222-.195-.342-.5-.312a.242.242 0 0 0 .153-.236.618.618 0 0 0-.244-.443l-.049 1.894Z"/></g><defs><clipPath id="a"><path fill="#fff" d="M.153 0h35v35h-35z"/></clipPath></defs></svg>