<svg xmlns="http://www.w3.org/2000/svg" width="36" height="35" fill="none"><g clip-path="url(#a)"><path fill="#E30917" d="M35.472 26.25a3.889 3.889 0 0 1-3.89 3.89H4.362a3.889 3.889 0 0 1-3.89-3.89V8.75a3.889 3.889 0 0 1 3.89-3.889h27.222a3.889 3.889 0 0 1 3.889 3.89v17.5Z"/><path fill="#EEE" d="M16.027 23.334a5.833 5.833 0 1 1 0-11.667c1.273 0 2.45.413 3.41 1.106a7.127 7.127 0 0 0-5.355-2.421 7.149 7.149 0 1 0 0 14.298c2.134 0 4.045-.94 5.354-2.423a5.797 5.797 0 0 1-3.41 1.107Zm3.804-5.61 2.372.546.214 2.424 1.252-2.086 2.373.545-1.599-1.835 1.252-2.088-2.24.953-1.598-1.837.214 2.425-2.24.953Z"/></g><defs><clipPath id="a"><path fill="#fff" d="M.472 0h35v35h-35z"/></clipPath></defs></svg>