<svg width="36" height="35" viewBox="0 0 36 35" fill="none" xmlns="http://www.w3.org/2000/svg">
<g clip-path="url(#clip0_353_82)">
<path d="M35.1533 26.2502C35.1533 27.2816 34.7436 28.2708 34.0143 29.0001C33.285 29.7294 32.2958 30.1391 31.2644 30.1391H4.04221C3.01081 30.1391 2.02166 29.7294 1.29235 29.0001C0.563041 28.2708 0.15332 27.2816 0.15332 26.2502V8.75022C0.15332 7.71882 0.563041 6.72967 1.29235 6.00036C2.02166 5.27105 3.01081 4.86133 4.04221 4.86133H31.2644C32.2958 4.86133 33.285 5.27105 34.0143 6.00036C34.7436 6.72967 35.1533 7.71882 35.1533 8.75022V26.2502Z" fill="#00AFCA"/>
<path d="M18.6593 18.8394C20.1976 18.8394 21.4447 17.5923 21.4447 16.054C21.4447 14.5156 20.1976 13.2686 18.6593 13.2686C17.1209 13.2686 15.8738 14.5156 15.8738 16.054C15.8738 17.5923 17.1209 18.8394 18.6593 18.8394Z" fill="#FFCC4D"/>
<path d="M18.6615 13.0589C18.8268 13.0569 18.8871 12.9529 18.8871 12.8294C18.8871 12.6642 18.6615 11.375 18.6615 11.375C18.6615 11.375 18.4321 12.6642 18.4321 12.8294C18.4321 12.9529 18.4943 13.0589 18.6615 13.0589ZM18.6615 19.0653C18.4943 19.0663 18.4321 19.1703 18.4321 19.2937C18.4321 19.46 18.6615 20.7317 18.6615 20.7317C18.6615 20.7317 18.8871 19.459 18.8871 19.2937C18.8881 19.1712 18.8268 19.0653 18.6615 19.0653ZM17.8828 18.9476C17.7224 18.9068 17.6378 18.9914 17.6057 19.111C17.5629 19.2704 17.4472 20.5751 17.4472 20.5751C17.4472 20.5751 18.0024 19.3881 18.0452 19.2286C18.0782 19.109 18.0442 18.9904 17.8828 18.9476ZM19.4383 13.1454C19.5997 13.1882 19.6872 13.1026 19.7193 12.984C19.7621 12.8236 19.869 11.5354 19.869 11.5354C19.869 11.5354 19.3227 12.705 19.2789 12.8664C19.2468 12.985 19.2779 13.1026 19.4383 13.1454ZM17.1604 18.6463C17.0156 18.5656 16.9115 18.6249 16.8503 18.7328C16.7677 18.8757 16.3185 20.1056 16.3185 20.1056C16.3185 20.1056 17.1614 19.1032 17.244 18.9603C17.3063 18.8524 17.3053 18.7299 17.1604 18.6463ZM20.1636 13.4439C20.3085 13.5275 20.4154 13.4672 20.4767 13.3603C20.5603 13.2164 20.9968 12.0011 20.9968 12.0011C20.9968 12.0011 20.1646 12.9899 20.081 13.1328C20.0207 13.2397 20.0207 13.3613 20.1636 13.4439ZM16.5402 18.1708C16.4215 18.0551 16.3058 18.0853 16.2183 18.1728C16.1017 18.2904 15.3492 19.3618 15.3492 19.3618C15.3492 19.3618 16.4235 18.6113 16.5402 18.4956C16.6277 18.4081 16.6588 18.2875 16.5402 18.1708ZM20.7878 13.9222C20.9064 14.0399 21.024 14.0097 21.1115 13.9222C21.2292 13.8056 21.9661 12.7429 21.9661 12.7429C21.9661 12.7429 20.9074 13.4838 20.7907 13.6014C20.7032 13.6889 20.6711 13.8056 20.7878 13.9222ZM16.0657 17.5496C15.9811 17.4076 15.8615 17.4076 15.7536 17.4689C15.6097 17.5515 14.6064 18.3915 14.6064 18.3915C14.6064 18.3915 15.8382 17.9463 15.9811 17.8636C16.089 17.8014 16.1493 17.6944 16.0657 17.5496ZM21.2671 14.5464C21.3517 14.6913 21.4742 14.6922 21.5802 14.631C21.724 14.5474 22.7108 13.7132 22.7108 13.7132C22.7108 13.7132 21.4965 14.1536 21.3527 14.2362C21.2457 14.2985 21.1854 14.4025 21.2671 14.5464ZM15.7672 16.8272C15.7225 16.6678 15.6058 16.6367 15.4863 16.6678C15.3268 16.7106 14.1397 17.2628 14.1397 17.2628C14.1397 17.2628 15.4445 17.151 15.6039 17.1082C15.7235 17.0751 15.81 16.9886 15.7672 16.8272ZM21.5675 15.2717C21.6122 15.4331 21.7289 15.4661 21.8485 15.434C22.0089 15.3913 23.1785 14.841 23.1785 14.841C23.1785 14.841 21.8913 14.9518 21.7299 14.9946C21.6113 15.0257 21.5247 15.1122 21.5675 15.2717ZM15.6652 16.0524C15.6632 15.8871 15.5592 15.8268 15.4357 15.8268C15.2704 15.8268 13.9813 16.0524 13.9813 16.0524C13.9813 16.0524 15.2704 16.2818 15.4357 16.2818C15.5592 16.2818 15.6652 16.2196 15.6652 16.0524ZM21.6715 16.0524C21.6725 16.2196 21.7765 16.2818 21.9 16.2818C22.0663 16.2818 23.3379 16.0524 23.3379 16.0524C23.3379 16.0524 22.0653 15.8268 21.9 15.8268C21.7765 15.8258 21.6715 15.8871 21.6715 16.0524ZM15.7672 15.2775C15.8081 15.1171 15.7235 15.0325 15.6039 15.0004C15.4445 14.9576 14.1397 14.8419 14.1397 14.8419C14.1397 14.8419 15.3268 15.3971 15.4863 15.4399C15.6058 15.4719 15.7245 15.4389 15.7672 15.2775ZM21.5685 16.8321C21.5257 16.9935 21.6113 17.081 21.7299 17.1131C21.8903 17.1558 23.1785 17.2628 23.1785 17.2628C23.1785 17.2628 22.0089 16.7154 21.8475 16.6726C21.7289 16.6415 21.6113 16.6717 21.5685 16.8321ZM16.0667 14.5551C16.1474 14.4113 16.0881 14.3063 15.9802 14.245C15.8372 14.1624 14.6074 13.7132 14.6074 13.7132C14.6074 13.7132 15.6097 14.5561 15.7527 14.6388C15.8606 14.701 15.9831 14.699 16.0667 14.5551ZM21.269 17.5583C21.1854 17.7032 21.2457 17.8101 21.3527 17.8714C21.4956 17.955 22.7118 18.3915 22.7118 18.3915C22.7118 18.3915 21.7231 17.5603 21.5802 17.4767C21.4732 17.4154 21.3517 17.4154 21.269 17.5583ZM16.5421 13.9349C16.6578 13.8163 16.6277 13.7006 16.5402 13.6131C16.4225 13.4964 15.3511 12.7439 15.3511 12.7439C15.3511 12.7439 16.1017 13.8182 16.2174 13.9349C16.3049 14.0224 16.4245 14.0535 16.5421 13.9349ZM20.7907 18.1825C20.6731 18.3011 20.7032 18.4197 20.7907 18.5063C20.9074 18.6239 21.97 19.3608 21.97 19.3608C21.97 19.3608 21.2292 18.3021 21.1115 18.1844C21.024 18.0969 20.9074 18.0649 20.7907 18.1825ZM17.1643 13.4594C17.3053 13.3749 17.3063 13.2553 17.245 13.1474C17.1624 13.0044 16.3224 12.0001 16.3224 12.0001C16.3224 12.0001 16.7677 13.2319 16.8503 13.3749C16.9115 13.4828 17.0195 13.5431 17.1643 13.4594ZM20.1675 18.6618C20.0236 18.7454 20.0217 18.8669 20.0829 18.9739C20.1665 19.1178 21.0007 20.1046 21.0007 20.1046C21.0007 20.1046 20.5603 18.8893 20.4777 18.7454C20.4154 18.6394 20.3104 18.5782 20.1675 18.6618ZM17.8857 13.161C18.0452 13.1163 18.0763 12.9996 18.0452 12.88C18.0024 12.7206 17.4502 11.5335 17.4502 11.5335C17.4502 11.5335 17.562 12.8382 17.6047 12.9976C17.6368 13.1172 17.7243 13.2038 17.8857 13.161ZM19.4413 18.9622C19.2799 19.0069 19.2468 19.1236 19.2789 19.2432C19.3217 19.4036 19.872 20.5732 19.872 20.5732C19.872 20.5732 19.7611 19.285 19.7183 19.1256C19.6872 19.006 19.6007 18.9194 19.4413 18.9622Z" fill="#FFCC4D"/>
<path d="M21.3929 22.9883L21.3569 23.0039L21.317 23.0097L21.2869 23.0155L21.2315 23.0039L21.2072 22.9941L21.1848 22.9834L21.1586 22.9669L21.1148 22.9358L21.0749 22.9037L21.0526 22.8882L21.0244 22.8765L21.0049 22.8716H20.9767L20.8669 23.1001L20.8445 23.1322L20.8231 23.1584L20.8008 23.175L20.7813 23.1915L20.7531 23.2022H20.7269L20.7026 23.1915L20.6686 23.175L20.6588 23.1584L20.6472 23.1419L20.6355 23.1205L20.6238 23.0952L20.6083 23.0145L20.5762 23.0408L20.5461 23.0787L20.4858 23.1701L20.4498 23.2177L20.4119 23.2547L20.3915 23.277L20.3652 23.2936L20.339 23.3052L20.3069 23.315H20.2913L20.2631 23.3208L20.2369 23.315L20.2165 23.3052L20.1542 23.2304L20.0842 23.1555L20.0366 23.2304L19.9812 23.2936L19.9549 23.3198L19.9306 23.3461L19.9044 23.3675L19.8548 23.3947L19.8285 23.4005H19.8023L19.7799 23.3947L19.7586 23.383L19.743 23.3665L19.7226 23.3412C19.709 23.3016 19.6944 23.2624 19.6788 23.2236L19.673 23.1964L19.6633 23.1759L19.6516 23.1652H19.6399L19.4961 23.4005L19.4756 23.4209L19.4377 23.4375L19.3541 23.4579H19.3045L19.2666 23.4472L19.2549 23.4414L19.2394 23.4248L19.2355 23.4151V23.3937L19.2549 23.1584L19.2394 23.1643L19.1976 23.1847C19.1593 23.2246 19.122 23.2654 19.0858 23.3072L19.0381 23.3665L18.9788 23.4161L18.9234 23.4579L18.8923 23.4754L18.8281 23.4851L18.8019 23.4793L18.7902 23.4754L18.7795 23.4637L18.7737 23.4472V23.4307L18.7795 23.3626L18.796 23.2547L18.7854 23.1915L18.763 23.1545L18.7309 23.2022L18.6784 23.2712C18.6347 23.3188 18.59 23.3655 18.5442 23.4112C18.5187 23.4282 18.4937 23.446 18.4694 23.4647L18.411 23.4851L18.3994 23.4793H18.3829L18.3712 23.4695L18.3673 23.4637L18.3556 23.4472L18.3517 23.4307V23.4102L18.3459 23.383L18.3517 23.1808C18.2545 23.2469 18.1563 23.3111 18.0572 23.3723L18.0202 23.3889L17.9784 23.4102C17.9385 23.42 17.8997 23.4297 17.8608 23.4414H17.8219L17.7859 23.4365L17.7529 23.4248L17.7694 23.382L17.8015 23.3072L17.8219 23.2761L17.8452 23.244L17.8656 23.2119L17.9201 23.1584L17.9794 23.1166L18.0474 23.0729L18.1174 23.0408L18.1981 23.0145L18.2779 22.9941L18.4597 22.962L18.5501 22.9504C18.8184 22.9348 19.0877 22.9329 19.356 22.9348L19.6506 22.9183L19.742 22.9076L19.9112 22.8755L19.9929 22.8532L20.0687 22.822L20.1387 22.79C20.1756 22.7608 20.2136 22.7316 20.2524 22.7044L20.304 22.6441L20.2486 22.5382L20.2923 22.5323L20.3341 22.5226L20.3779 22.5012L20.4138 22.474L20.4294 22.4643L20.4469 22.4477L20.4586 22.4264L20.4702 22.4108L20.4741 22.3894V22.3525L20.4624 22.3311L20.5538 22.3145L20.6511 22.3039L20.7531 22.298H20.8591C21.0079 22.3039 21.1556 22.3126 21.3034 22.3243C21.527 22.3515 21.7516 22.3729 21.9762 22.3943L22.1774 22.405V22.4789L22.1736 22.5119L22.1619 22.543L22.1522 22.5751L22.1405 22.6014L22.1249 22.6227C22.1065 22.6441 22.0861 22.6655 22.0656 22.6859L22.018 22.717L21.9665 22.7384L21.9149 22.7501L21.8556 22.7608L21.7419 22.7501L21.6826 22.7336L21.6311 22.7064L21.5756 22.6801L21.5338 22.6422L21.492 22.6004V22.6918C21.4842 22.7511 21.4745 22.8094 21.4658 22.8687L21.4454 22.9241L21.4337 22.9465L21.4181 22.962L21.4065 22.9786L21.3929 22.9883ZM17.0976 22.4857L17.2191 22.5391C17.2434 22.5189 17.2684 22.4994 17.294 22.4808L17.3416 22.4555L17.3844 22.4283L17.5448 22.3641L17.6829 22.3L17.7529 22.2737L17.8715 22.2105L17.9191 22.1775C18.0397 22.0987 18.1612 22.0209 18.2827 21.9441L18.3887 21.8693L18.4694 21.8051C18.5491 21.7332 18.6269 21.6602 18.7047 21.5864L18.7367 21.565L18.7737 21.5436C18.8179 21.5212 18.8627 21.4998 18.9079 21.4794L18.9983 21.4483C19.1791 21.3987 19.3629 21.3598 19.5476 21.3307C19.7362 21.3083 19.9248 21.283 20.1134 21.2616L20.3642 21.2189C20.4265 21.2014 20.4887 21.1858 20.5519 21.1712L20.6161 21.0905L20.7191 20.9787L20.7891 20.9097L20.8669 20.8445L20.9583 20.7755L21.0642 20.7055L21.2256 20.6102C21.3413 20.5519 21.456 20.4936 21.5708 20.4333C21.7749 20.338 21.9762 20.2369 22.1765 20.1339L22.2717 20.0697L22.298 19.989L22.3359 19.9102L22.3836 19.8295L22.507 19.6643C22.5634 19.604 22.6179 19.5437 22.6723 19.4815C22.7384 19.4173 22.8065 19.3551 22.8755 19.2948L22.9785 19.2102L23.0301 19.1723L23.0855 19.1354C23.1244 19.113 23.1633 19.0916 23.2031 19.0712L23.2624 19.044L23.3198 19.0236L23.4452 18.9905L23.5074 18.9866L23.5667 18.9808L23.629 18.9866L23.6883 18.9964L23.6844 19.0605L23.6688 19.1237L23.6212 19.2579L23.5813 19.3269L23.5337 19.3969L23.4754 19.4708L23.4054 19.5457L23.4608 19.5398L23.5084 19.5291L23.5463 19.5175L23.5823 19.5019L23.6523 19.4805L23.7524 19.4698L23.7583 19.5077V19.5447L23.7524 19.5816L23.7427 19.6137L23.7272 19.6458L23.7048 19.6779L23.6844 19.7032L23.6581 19.7304C23.5847 19.8012 23.5098 19.8706 23.4336 19.9384L23.4967 19.9443C23.5434 19.9589 23.5901 19.9734 23.6377 19.9861L23.6892 19.9977L23.627 20.0464C23.5777 20.0793 23.5278 20.1114 23.4773 20.1426L23.3062 20.2389L23.2206 20.2923L23.1351 20.3516L23.0554 20.4158L23.0913 20.4207L23.1409 20.442L23.1623 20.4479L23.1827 20.4586L23.2002 20.4634L23.2158 20.4586L23.1098 20.5179C23.0435 20.549 22.9777 20.5811 22.9124 20.6141L22.8308 20.6627L22.8152 20.6793L22.8055 20.6958L22.7938 20.7114L22.7977 20.7327L22.8094 20.7493L22.8298 20.7648L22.8492 20.7823L22.8415 20.8027L22.8298 20.8202L22.8094 20.8358L22.7899 20.8523L22.7384 20.8776L22.6762 20.9048L22.5547 20.9476L22.4788 20.9855L22.5848 21.0915L22.5469 21.1284L22.5109 21.1557L22.4788 21.1722L22.4409 21.1877L22.367 21.1984H22.262L22.2737 21.247L22.2892 21.2947L22.3116 21.4026C22.2453 21.4541 22.1776 21.5037 22.1084 21.5514L21.9849 21.6311L21.8479 21.7108L21.7662 21.7487L21.6865 21.7857C21.5964 21.8206 21.5053 21.8527 21.4133 21.8819L21.2062 21.9257L21.0924 21.9422C21.2159 21.9461 21.3394 21.948 21.4629 21.947L21.7662 21.915L21.8994 21.8887L22.017 21.8566C22.0948 21.8304 22.1706 21.8012 22.2465 21.7711L22.3942 21.703L22.5401 21.6223L22.6772 21.5358L22.823 21.4512L22.7355 21.4084L22.6519 21.3822L22.612 21.3637C22.5819 21.3491 22.5517 21.3345 22.5206 21.3219L22.4711 21.2947L22.5129 21.2636L22.5644 21.2422L22.6198 21.2218C22.684 21.2062 22.7491 21.1916 22.8133 21.178C22.8969 21.1693 22.9805 21.1586 23.0641 21.1469L23.1701 21.1362L23.2517 21.1158L23.2731 21.1041L23.2887 21.0876L23.2848 21.0818L23.2731 21.0711L23.2576 21.0652L23.2372 21.0555L23.1779 21.0439L23.102 21.0332L23.0281 21.0273L22.9542 21.0166L22.8881 21.0001L22.8483 20.9836L23.3704 20.8669L23.4617 20.8397C23.5016 20.8251 23.5405 20.8086 23.5794 20.792L23.6309 20.759L23.6533 20.7386L23.6474 20.7337L23.6377 20.722L23.5881 20.7114L23.5201 20.7055H23.4384C23.383 20.7016 23.3286 20.6977 23.2731 20.6958L23.2051 20.6841L23.1613 20.6734L23.2372 20.6423C23.3499 20.6073 23.4647 20.5752 23.5794 20.5451C23.6445 20.5227 23.7106 20.5004 23.7767 20.4809L23.8779 20.4382L23.9255 20.4119L23.9692 20.3857L23.9848 20.3691L24.0013 20.3477L24.0169 20.3322L24.0227 20.3157L24.0169 20.2991L24.0013 20.2875L23.9848 20.2836H23.837L23.767 20.2875H23.6717L23.6435 20.2836L23.6251 20.2719L23.6017 20.2612C23.7962 20.1329 23.9926 20.0055 24.1899 19.8811L24.3436 19.7741C24.385 19.7398 24.4255 19.7045 24.4651 19.6682L24.5127 19.6147L24.5565 19.5612L24.5886 19.5029L24.6148 19.4445L24.6304 19.3794V19.3104H24.5944L24.5565 19.3162L24.4729 19.3473C24.3988 19.3939 24.3236 19.4386 24.2473 19.4815L24.2055 19.5087L24.1559 19.5291L24.1083 19.5457L24.0645 19.5564L24.0227 19.5622H23.9731L23.9313 19.5457L24.0606 19.4494C24.1647 19.3609 24.2677 19.2715 24.3698 19.182C24.4826 19.0742 24.5929 18.9637 24.7004 18.8505L24.854 18.6794C24.8997 18.6191 24.9463 18.5608 24.994 18.5025C25.0319 18.448 25.0698 18.3926 25.1058 18.3372L25.1174 18.3168L25.1213 18.3002L25.1174 18.2779L25.1116 18.2623L25.1058 18.2448L25.0902 18.2341L25.0737 18.2176L25.0581 18.2118L25.0377 18.202L25.0144 18.1962H24.9726L24.9522 18.202L24.924 18.2059L24.9084 18.2234L24.886 18.24C24.7772 18.3489 24.6692 18.4597 24.5633 18.5715L24.434 18.694C24.3491 18.768 24.2635 18.8412 24.1773 18.9137C24.1367 18.9412 24.0956 18.9678 24.0538 18.9934L23.9362 19.0527L23.9722 19.0207C24.0111 18.9837 24.049 18.9468 24.0859 18.9089C24.223 18.7514 24.3542 18.588 24.4806 18.4227L24.7276 18.0757L24.7937 17.959L24.8598 17.852L24.9133 17.7548L24.9551 17.6634L24.9813 17.5895L24.9872 17.5633V17.5205L24.9813 17.504L24.9619 17.4719L24.9502 17.4612L24.9327 17.4564L24.9026 17.4389L24.8627 17.4282H24.7898L24.7694 17.434L24.7538 17.4389L24.7315 17.4505L24.7159 17.4661L24.6722 17.504C24.6242 17.5617 24.5779 17.6207 24.5331 17.6809C24.4262 17.8482 24.3134 18.0115 24.1967 18.1719L24.0616 18.3323L23.9936 18.4023L23.9197 18.4665L24.0149 18.2886L24.1647 17.9745L24.2619 17.7451L24.3037 17.6275L24.3776 17.3864C24.3961 17.3086 24.4126 17.2308 24.4272 17.152C24.434 17.0791 24.4398 17.0062 24.4447 16.9323L24.4369 16.8789L24.433 16.8312L24.4272 16.7816L24.4116 16.7194L24.3999 16.7019L24.3737 16.6757L24.3377 16.6601L24.2979 16.6484H24.2619L24.2279 16.6543L24.2181 16.6601L24.2026 16.664L24.1967 16.6757C24.1005 16.979 24.0276 17.2882 23.944 17.5944C23.9129 17.68 23.8817 17.7655 23.8487 17.8511L23.769 18.0057L23.7194 18.0747L23.7515 17.9211C23.767 17.8316 23.7806 17.7432 23.7933 17.6537L23.8156 17.434L23.8215 17.3426C23.8185 17.2962 23.8147 17.2498 23.8098 17.2036L23.8001 17.1501L23.7845 17.1073L23.7622 17.0752L23.7505 17.0645L23.7184 17.0539L23.7029 17.048H23.6854L23.6698 17.0539L23.6261 17.0645L23.5842 17.0859C23.5512 17.2512 23.5113 17.4155 23.4666 17.5779C23.403 17.7827 23.3283 17.9839 23.243 18.1807C23.1854 18.3016 23.1244 18.4209 23.0602 18.5384L22.9426 18.7416L22.8152 18.9332C22.7298 19.0527 22.6413 19.1701 22.5498 19.2851C22.4604 19.3862 22.369 19.4854 22.2766 19.5845C22.1804 19.6789 22.0822 19.7722 21.982 19.8636C21.879 19.9491 21.7749 20.0318 21.669 20.1134C21.5397 20.2069 21.4074 20.2961 21.2723 20.3808L21.037 20.5189L20.6627 20.6909L20.2777 20.829L19.9588 20.9262L19.6283 21.0001L19.463 21.0273L19.1247 21.0701L18.9536 21.0808L18.937 21.0866L18.9205 21.0915L18.8884 21.109L18.8524 21.1343C18.8106 21.1708 18.7694 21.208 18.729 21.2461L18.6434 21.3326L18.3333 21.6787L18.2156 21.7964L18.0776 21.9023L18.0231 21.9393L17.9697 21.9723L17.853 22.0258C17.6722 22.0997 17.4884 22.1668 17.3066 22.2397L17.259 22.2659L17.2162 22.2883L17.1851 22.3087L17.1258 22.368L17.1092 22.3943L17.0976 22.4205L17.0937 22.4584V22.4857" fill="#FFCC4D"/>
<path d="M19.0543 22.7258L19.1437 22.7375L19.1875 22.754L19.1972 22.7589V22.7647H19.1875L19.1758 22.7696L19.0903 22.7861H19.0222L18.7986 22.7696L18.2318 22.7589C18.0821 22.7608 17.9323 22.7647 17.7826 22.7696C17.6504 22.7793 17.5191 22.79 17.3869 22.8017L17.2848 22.8182L17.1944 22.8386C17.173 22.8464 17.1526 22.8542 17.1312 22.86L17.104 22.8717L17.0826 22.8882L17.0923 22.8338L17.1157 22.7793L17.0408 22.8007L16.9767 22.8328L16.9514 22.8493L16.929 22.8707L16.9125 22.896L16.9086 22.9232L16.893 22.8863L16.8814 22.8532C16.8785 22.83 16.8746 22.807 16.8697 22.7842C16.8755 22.756 16.8814 22.7278 16.8853 22.6996L16.9028 22.6724L16.9125 22.651L16.9348 22.6257L16.9776 22.5829L17.036 22.545L17.1021 22.5081C17.1369 22.5284 17.1741 22.5445 17.2129 22.5557C17.2512 22.5591 17.2897 22.5555 17.3266 22.545C17.386 22.5975 17.5396 22.5868 17.561 22.4915C17.5692 22.4564 17.5692 22.4198 17.561 22.3846L17.6251 22.3797L17.7 22.3681L17.8653 22.3253L17.9518 22.3087L18.0315 22.2883L18.1064 22.2776L18.1696 22.2718L18.1433 22.2942L18.0043 22.4001L17.9518 22.4371L18.0198 22.4546L18.0791 22.4653L17.9528 22.6092L17.9197 22.6519L17.9615 22.6685L18.0043 22.6801L18.0529 22.6908H18.1491L18.2444 22.6694L18.2823 22.6471L18.3261 22.6694L18.3689 22.686C18.3961 22.6937 18.4243 22.7015 18.4525 22.7074C18.5186 22.7142 18.5847 22.7219 18.6518 22.7278H19.0543M18.5672 21.1022L18.5196 21.1985L18.4651 21.3219C18.4371 21.3722 18.4109 21.4235 18.3864 21.4756L18.3591 21.5028L18.296 21.4493L18.226 21.4007L18.1511 21.3628L18.0723 21.3317L17.9003 21.2879L17.8157 21.2724C17.7232 21.2616 17.6305 21.2529 17.5376 21.2461C17.4146 21.2442 17.2918 21.2383 17.1692 21.2286L16.998 21.2082L16.9018 21.1917L16.8114 21.1712L16.7161 21.1382L16.6354 21.0964L16.5761 21.0575L16.4536 20.9671C16.2747 20.7989 16.0978 20.6288 15.914 20.4644L15.808 20.3906L15.7594 20.3692L15.7089 20.3536L15.6185 20.3332C15.5657 20.3144 15.5125 20.2965 15.459 20.2797C15.4092 20.2557 15.359 20.2327 15.3083 20.2107C15.2201 20.1561 15.1348 20.097 15.0526 20.0338L14.9992 19.9842L14.8932 19.8782L14.7911 19.7664C14.6229 19.5612 14.4644 19.3493 14.3001 19.1412C14.2216 19.0578 14.1415 18.9758 14.06 18.8953L13.991 18.8321L13.921 18.7737L13.7673 18.6619L13.7518 18.6668L13.7343 18.6833L13.7178 18.7047C13.708 18.729 13.7003 18.7543 13.6925 18.7796L13.6866 18.801L13.6478 18.7835L13.6157 18.7669L13.5768 18.7504L13.5447 18.7397H13.4757L13.4378 18.7504L13.4008 18.7669C13.43 18.8039 13.4582 18.8408 13.4854 18.8787L13.533 18.9536L13.6196 19.1189L13.6507 19.1996L13.6623 19.2424L13.674 19.2744L13.6789 19.3114V19.3425H13.3911L13.4329 19.4067C13.465 19.4504 13.499 19.4932 13.533 19.535L13.71 19.7119L13.7693 19.7596L13.8237 19.7975C13.7775 19.8024 13.7311 19.8062 13.6847 19.8092L13.5447 19.8247L13.5923 19.8685C13.6341 19.8976 13.675 19.9278 13.7158 19.9589L13.7848 20.0065L13.8548 20.0493L13.9239 20.0872L13.988 20.1086L14.0473 20.1242L14.095 20.1349L14.1105 20.1407L14.1222 20.1524L14.1261 20.1572V20.1776L14.1105 20.2214L14.1066 20.2525L14.0998 20.2739V20.2894L14.1066 20.3167L14.1105 20.3381L14.1222 20.3478L14.1378 20.3594L14.1582 20.3701L14.1854 20.376L14.2398 20.3974L14.2661 20.4071L14.2875 20.4236L14.2923 20.4294V20.4401L14.2875 20.446L14.2447 20.4771L14.2233 20.4985L14.2019 20.5247V20.5471L14.1971 20.5685L14.2078 20.6258L14.3944 20.69L14.4372 20.6997L14.48 20.7172L14.5121 20.7338L14.5393 20.7503L14.3623 20.8893L14.41 20.9321L14.4693 20.9642L14.5441 21.0011C14.5976 21.0206 14.6511 21.0381 14.7055 21.0556L14.7853 21.0711L14.8553 21.0876H14.9185L14.8591 21.1304L14.7843 21.1781L14.7046 21.2218L14.6453 21.2646L14.6987 21.3015C14.8611 21.3851 15.0273 21.4629 15.1965 21.5319C15.4921 21.6525 15.7944 21.7575 16.0987 21.8518C16.1668 21.8683 16.2339 21.8858 16.301 21.9053L16.3865 21.9218L16.2144 21.9053C16.1075 21.8915 16.0008 21.8752 15.8946 21.8567L15.7448 21.8246L15.4503 21.74L15.3122 21.6914C14.9428 21.5475 14.5821 21.3822 14.2116 21.2422L14.2389 21.2267L14.3137 21.1994L14.3614 21.1888C14.4265 21.1693 14.4897 21.1479 14.5539 21.1246C14.4266 21.1053 14.2998 21.0826 14.1737 21.0565C14.1084 21.0353 14.0426 21.0155 13.9764 20.9972L13.9385 20.9807L13.9064 20.9642L13.8801 20.9467L13.8626 20.9311V20.9263L13.8685 20.9204L13.885 20.9146L13.9005 20.9039L13.9433 20.8874L14.13 20.8329L14.2379 20.796C14.0833 20.7668 13.9278 20.7406 13.7722 20.7163L13.6973 20.6988L13.638 20.6783L13.6166 20.6667L13.5962 20.6501L13.5787 20.6404L13.568 20.6229L13.5846 20.6122L13.6322 20.6015C13.6818 20.5938 13.7323 20.585 13.7819 20.5753L13.8675 20.5646C13.9161 20.551 13.9637 20.5364 14.0114 20.5208L14.0337 20.5053L14.0551 20.4878L13.9705 20.4557L13.9161 20.446L13.8626 20.4343L13.6176 20.4022L13.5535 20.3867L13.4941 20.375L13.3765 20.3332L13.3221 20.306L13.2783 20.2749L13.2355 20.2369L13.2035 20.1893L13.2151 20.1835L13.2355 20.1776H13.2628L13.3055 20.1835L13.5087 20.1942L13.6273 20.2058H13.7761L13.8179 20.2L13.851 20.1893L13.8723 20.1776C13.7718 20.1367 13.6719 20.0939 13.5729 20.0493C13.5074 20.0161 13.4412 19.984 13.3746 19.9531L13.1723 19.8471L13.0761 19.7878C13.0168 19.7459 12.9581 19.7031 12.9001 19.6594L12.8253 19.5953L12.7922 19.5583L12.7591 19.5262L12.7387 19.4942L12.7164 19.4562L12.695 19.4251L12.6833 19.3882L12.6746 19.3192H12.7105L12.7533 19.324L12.7961 19.3415L12.8389 19.3571L12.9235 19.4106L13.0197 19.464L13.0625 19.4913L13.1101 19.5165L13.1578 19.5379L13.2005 19.5544L13.2482 19.5661L13.291 19.571H13.3396L13.3814 19.5544L13.255 19.4572C13.1503 19.3703 13.0469 19.2818 12.9448 19.1918C12.7756 19.0307 12.6131 18.8627 12.4578 18.6882L12.3897 18.5978L12.3197 18.5122C12.2813 18.4573 12.2437 18.4019 12.2069 18.346L12.1972 18.3246V18.2876L12.2021 18.2711L12.2069 18.2556L12.2235 18.2449L12.239 18.2283L12.2565 18.2167L12.2769 18.2108L12.2983 18.2069H12.3411L12.3673 18.2108L12.3907 18.2167L12.4111 18.2332C12.5268 18.3479 12.6405 18.4636 12.7523 18.5812C12.8758 18.6999 13.0041 18.8146 13.1373 18.9235L13.2598 19.0022L13.323 19.0353L13.3823 19.0557L13.3405 19.0294L13.2287 18.9176C13.0916 18.7601 12.9614 18.5968 12.833 18.4315C12.7765 18.3539 12.7211 18.2755 12.6668 18.1962C12.6184 18.1188 12.5684 18.0423 12.5171 17.9668C12.4763 17.9 12.4371 17.8322 12.3994 17.7636C12.3777 17.7081 12.3551 17.653 12.3314 17.5983L12.3246 17.5721V17.5283L12.3314 17.5128L12.3518 17.4807L12.3635 17.469L12.38 17.4593L12.449 17.4369H12.5239L12.5453 17.4418L12.5608 17.4476L12.5822 17.4593L12.6415 17.5128L12.7805 17.6897C12.8894 17.8569 13.0041 18.0203 13.1228 18.1807L13.2491 18.3411L13.3191 18.4101L13.394 18.4743C13.3089 18.3127 13.2272 18.1494 13.149 17.9843C13.1159 17.9082 13.0838 17.8318 13.0528 17.7549L13.01 17.6372C12.9874 17.5561 12.9624 17.4757 12.9351 17.3961L12.9089 17.2785L12.8894 17.1589L12.8778 17.0471L12.8729 16.9411L12.8778 16.8876L12.8846 16.839L12.8894 16.7904L12.9001 16.7428L12.9108 16.7253L12.9166 16.7097L12.9322 16.6922L12.9429 16.6825L12.9798 16.666L13.0178 16.6562H13.0547L13.0868 16.6621L13.1023 16.666L13.114 16.6718L13.1198 16.6835L13.1257 16.699C13.2171 16.9975 13.2919 17.3008 13.3707 17.6032C13.4018 17.6878 13.4339 17.7714 13.4679 17.854L13.5048 17.9337L13.5476 18.0086L13.5953 18.0835L13.5641 17.9279C13.5519 17.8391 13.5377 17.7506 13.5214 17.6625C13.5107 17.5593 13.5019 17.4559 13.4951 17.3524L13.5058 17.2133L13.5165 17.1589L13.533 17.1171L13.5544 17.085L13.5651 17.0733L13.5807 17.0626L13.5962 17.0578H13.6448L13.6886 17.0733L13.7304 17.0947L13.8053 17.4311C13.8325 17.5332 13.8626 17.6353 13.8957 17.7354C13.9501 17.8881 14.0094 18.0397 14.0726 18.1894L14.1475 18.344L14.2544 18.5482L14.3711 18.7504L14.5004 18.9429L14.6385 19.1344L14.7678 19.2949C14.8572 19.396 14.9476 19.4961 15.04 19.5943C15.1362 19.6886 15.2344 19.781 15.3346 19.8714L15.4891 20.0007C15.6311 20.1115 15.7769 20.2165 15.9276 20.3157C16.0453 20.3857 16.1648 20.4537 16.2854 20.5189L16.6529 20.6958C16.8396 20.7697 17.0282 20.8378 17.2187 20.8981C17.4054 20.9476 17.595 20.9904 17.7855 21.0264C18.0412 21.0672 18.3037 21.0915 18.5672 21.1022Z" fill="#FFCC4D"/>
<path d="M3.51377 27.7291C3.51377 27.7291 3.28336 27.9207 3.20558 27.8244C3.08016 27.6689 3.59155 26.8921 3.59155 26.6179C3.59155 26.1697 3.29113 26.0452 2.92169 25.9821C2.6728 25.9393 2.26933 26.0005 2.26933 26.0005C2.34516 26.1026 2.39474 26.1347 2.52308 26.1405C2.43465 26.187 2.36091 26.2572 2.31009 26.3432C2.25927 26.4293 2.23337 26.5277 2.2353 26.6276C2.2353 27.0126 2.39474 27.1721 2.39474 27.6086C2.39474 27.8507 2.19641 28.1579 2.19641 28.1579C2.54641 28.1229 2.72141 27.7991 2.62224 27.5386C2.64904 27.5336 2.67664 27.5351 2.70271 27.5431C2.72878 27.551 2.75254 27.5652 2.77197 27.5843C2.79724 27.5133 2.75738 27.4287 2.70294 27.3577C2.74669 27.3354 2.77877 27.349 2.8478 27.3626C2.84099 27.2887 2.79627 27.2109 2.68836 27.1371C3.00336 27.2177 3.19683 26.999 3.19683 26.7696C3.19683 26.5946 3.0753 26.4701 2.95572 26.4701C2.91043 26.4716 2.86639 26.4853 2.82836 26.51C2.80599 26.4633 2.81766 26.3991 2.84002 26.3515C2.75349 26.3739 2.69808 26.4254 2.73794 26.5343C2.70829 26.5348 2.67906 26.5414 2.65211 26.5538C2.62516 26.5662 2.60109 26.584 2.58141 26.6062C2.60001 26.6295 2.62393 26.6481 2.65116 26.6603C2.6784 26.6724 2.70815 26.6779 2.73794 26.6762C2.68933 26.7773 2.74377 26.8347 2.82252 26.8794C2.82252 26.8794 2.77197 26.6762 2.90127 26.6762C2.95961 26.6762 3.01211 26.6966 3.01211 26.7812C3.01211 26.8541 2.94697 26.9572 2.79724 26.9514C2.64655 26.9446 2.52502 26.8473 2.52502 26.6091C2.52502 26.3865 2.70294 26.2766 2.93724 26.2698C3.14919 26.263 3.30863 26.3777 3.30863 26.5965C3.30863 26.8862 2.88863 27.5493 2.88863 27.8079C2.88863 28.0023 3.06266 28.1102 3.23377 28.1102C3.45544 28.1102 3.64211 27.8905 3.64211 27.8905L3.51377 27.7291ZM3.46516 22.4772C3.46516 21.993 3.90072 21.7432 4.24294 21.7432C4.70377 21.7432 4.94974 22.0193 4.94974 22.379C4.94974 22.5851 4.91183 22.7134 4.81752 22.9089L3.76072 25.1032C3.72204 25.1953 3.70507 25.2951 3.71113 25.3948C3.71113 25.5912 3.90266 25.7526 4.10294 25.7575C4.28474 25.7623 4.48405 25.5873 4.48405 25.388C4.48405 25.1459 4.35961 25.039 4.2303 25.039C4.07183 25.039 4.00863 25.1032 4.00863 25.215C4.00863 25.2937 4.04655 25.3268 4.10002 25.3268C4.23613 25.3268 4.19822 25.144 4.19822 25.144C4.21633 25.1478 4.23339 25.1555 4.2482 25.1666C4.26301 25.1777 4.2752 25.1919 4.28392 25.2082C4.29263 25.2245 4.29766 25.2425 4.29864 25.261C4.29963 25.2795 4.29654 25.298 4.28961 25.3151C4.34052 25.3258 4.38658 25.3528 4.42086 25.3919C4.38585 25.4292 4.33988 25.4544 4.28961 25.4639C4.32169 25.5689 4.27891 25.6204 4.18752 25.6427C4.20327 25.6074 4.20769 25.568 4.20016 25.53C4.0553 25.5708 3.83363 25.5066 3.83363 25.2558C3.83363 25.0069 4.00572 24.7979 4.32947 24.8494C4.25169 24.8144 4.21377 24.7396 4.20599 24.654C4.26433 24.6783 4.32947 24.6812 4.32947 24.6812C4.29155 24.6151 4.23905 24.5577 4.24099 24.4255C4.30127 24.4537 4.35669 24.5033 4.43349 24.4712C4.31294 24.235 4.46072 23.9102 4.83794 23.8315C4.70989 23.9707 4.63696 24.1518 4.6328 24.3409C4.6328 24.9048 4.7903 24.9982 4.7903 25.389C4.78769 25.4801 4.76362 25.5694 4.72003 25.6494C4.67645 25.7295 4.61458 25.7982 4.53947 25.8498V25.843C4.64836 25.8722 4.71933 25.9276 4.76016 26.0005C4.50836 26.0715 4.14183 26.0705 3.94641 25.9937C3.85783 25.9809 3.77322 25.9485 3.69872 25.8989C3.62422 25.8493 3.56171 25.7837 3.51572 25.7069C3.46819 25.5974 3.44367 25.4792 3.44367 25.3598C3.44367 25.2404 3.46819 25.1223 3.51572 25.0127C3.66544 24.7007 4.37127 23.2044 4.59099 22.7329C4.63946 22.6328 4.66504 22.5232 4.66586 22.4121C4.66586 22.1252 4.40238 22.0241 4.25266 22.0241C4.0728 22.0241 3.89002 22.1622 3.89002 22.3314C3.89002 22.4402 3.94933 22.5044 4.03294 22.5044C4.23613 22.5044 4.22349 22.3323 4.18266 22.2234C4.30808 22.2818 4.38197 22.3809 4.36155 22.4879C4.43349 22.4976 4.50155 22.5316 4.56377 22.6016C4.51419 22.6658 4.45391 22.7125 4.36155 22.7134C4.40238 22.8787 4.29155 22.9487 4.18266 22.9866C4.21669 22.8661 4.23905 22.7251 4.03294 22.7251C3.88224 22.7251 3.76363 22.6989 3.69461 22.6007C3.68974 22.7319 3.67711 23.2472 3.67711 23.2472C3.66933 23.4416 3.93669 23.4358 4.10683 23.3784C4.04169 23.6021 3.91044 23.7236 3.60419 23.6925C3.65109 23.7105 3.69115 23.7429 3.71871 23.7849C3.74626 23.8269 3.75994 23.8766 3.7578 23.9268C3.7578 24.1096 3.61002 24.3108 3.51377 24.3711L3.46516 22.4772Z" fill="#FFCC4D"/>
<path d="M3.56192 22.4773C3.56192 21.9932 3.12636 21.7433 2.78414 21.7433C2.3233 21.7433 2.07733 22.0194 2.07733 22.3791C2.07733 22.5852 2.11525 22.7136 2.20955 22.909L3.26636 25.1033C3.30471 25.1955 3.32134 25.2953 3.31497 25.395C3.31497 25.5914 3.12344 25.7527 2.92414 25.7576C2.74136 25.7625 2.54303 25.5875 2.54303 25.3882C2.54303 25.1461 2.66747 25.0391 2.79678 25.0391C2.95525 25.0391 3.01844 25.1033 3.01844 25.2151C3.01844 25.2939 2.98053 25.3269 2.92705 25.3269C2.79094 25.3269 2.82886 25.1441 2.82886 25.1441C2.81075 25.1479 2.79368 25.1556 2.77888 25.1667C2.76407 25.1778 2.75187 25.192 2.74316 25.2083C2.73444 25.2246 2.72941 25.2427 2.72843 25.2611C2.72745 25.2796 2.73053 25.2981 2.73747 25.3152C2.68656 25.3259 2.64049 25.3529 2.60622 25.392C2.64123 25.4293 2.6872 25.4545 2.73747 25.464C2.70636 25.569 2.74914 25.6205 2.84053 25.6419C2.82477 25.6065 2.82036 25.5671 2.82789 25.5291C2.97275 25.57 3.19441 25.5058 3.19441 25.255C3.19441 25.0061 3.02233 24.797 2.69955 24.8486C2.77636 24.8136 2.81525 24.7387 2.82205 24.6532C2.78285 24.6684 2.74154 24.6776 2.69955 24.6804C2.7365 24.6143 2.789 24.5569 2.78705 24.4247C2.72678 24.4529 2.67233 24.5025 2.59455 24.4704C2.71511 24.2341 2.56733 23.9094 2.19011 23.8307C2.31816 23.9699 2.39109 24.151 2.39525 24.3401C2.39525 24.904 2.23872 24.9973 2.23872 25.3882C2.23872 25.5515 2.3233 25.7294 2.48955 25.849V25.8422C2.44379 25.8515 2.4005 25.8704 2.36248 25.8975C2.32446 25.9246 2.29256 25.9594 2.26886 25.9997C2.52067 26.0707 2.88622 26.0697 3.08261 25.9929C3.17119 25.9801 3.2558 25.9477 3.3303 25.898C3.4048 25.8484 3.46731 25.7829 3.5133 25.7061C3.56083 25.5965 3.58535 25.4784 3.58535 25.359C3.58535 25.2396 3.56083 25.1215 3.5133 25.0119C3.36358 24.6998 2.65775 23.2036 2.43803 22.732C2.38956 22.632 2.36398 22.5224 2.36316 22.4112C2.36316 22.1244 2.62664 22.0233 2.77636 22.0233C2.95622 22.0233 3.139 22.1614 3.139 22.3305C3.139 22.4394 3.07969 22.5036 2.99608 22.5036C2.79289 22.5036 2.80553 22.3315 2.84539 22.2226C2.71997 22.2809 2.64608 22.3801 2.6665 22.487C2.58747 22.499 2.51555 22.5395 2.46428 22.6008C2.51386 22.665 2.57414 22.7116 2.6665 22.7126C2.62566 22.8779 2.7365 22.9479 2.84539 22.9858C2.81136 22.8652 2.789 22.7243 2.99608 22.7243C3.14678 22.7243 3.26539 22.698 3.33442 22.5998L3.35191 23.2464C3.35969 23.4408 3.09136 23.435 2.92122 23.3776C2.98539 23.6002 3.11761 23.7218 3.42289 23.6907C3.37598 23.7087 3.33593 23.7411 3.30837 23.7831C3.28081 23.8251 3.26714 23.8747 3.26928 23.925C3.26928 24.1077 3.41608 24.309 3.5133 24.3693L3.56192 22.4773ZM3.51428 27.7293C3.51428 27.7293 3.74469 27.9208 3.82247 27.8245C3.94789 27.669 3.4365 26.8922 3.4365 26.618C3.4365 26.1698 3.73691 26.0454 4.10636 25.9822C4.35525 25.9394 4.75969 26.0007 4.75969 26.0007C4.68289 26.1027 4.63428 26.1348 4.50594 26.1407C4.59429 26.1873 4.66798 26.2575 4.71879 26.3435C4.7696 26.4295 4.79554 26.5279 4.79372 26.6277C4.79372 27.0127 4.63428 27.1722 4.63428 27.6087C4.63428 27.8508 4.83261 28.158 4.83261 28.158C4.48261 28.123 4.30761 27.7993 4.40678 27.5387C4.37998 27.5339 4.35242 27.5355 4.32638 27.5434C4.30034 27.5514 4.27658 27.5654 4.25705 27.5844C4.23178 27.5134 4.27261 27.4289 4.32608 27.3579C4.28233 27.3355 4.25025 27.3491 4.18122 27.3627C4.18803 27.2889 4.23178 27.2111 4.34067 27.1372C4.02567 27.2179 3.83219 26.9991 3.83219 26.7697C3.83219 26.5947 3.95372 26.4702 4.0733 26.4702C4.11219 26.4702 4.16858 26.4868 4.20066 26.5101C4.22303 26.4634 4.21136 26.3993 4.18803 26.3516C4.27553 26.374 4.32997 26.4255 4.29108 26.5344C4.32072 26.535 4.34993 26.5416 4.37687 26.554C4.40381 26.5664 4.42789 26.5842 4.44761 26.6064C4.42901 26.6297 4.40509 26.6482 4.37786 26.6604C4.35062 26.6726 4.32087 26.678 4.29108 26.6764C4.33969 26.7775 4.28525 26.8348 4.2065 26.8795C4.2065 26.8795 4.25705 26.6764 4.12775 26.6764C4.06941 26.6764 4.01691 26.6968 4.01691 26.7814C4.01691 26.8543 4.08205 26.9573 4.23178 26.9515C4.3815 26.9447 4.50303 26.8475 4.50303 26.6093C4.50303 26.3866 4.32511 26.2768 4.0908 26.27C3.87886 26.2632 3.71941 26.3779 3.71941 26.5966C3.71941 26.8864 4.13941 27.5494 4.13941 27.808C4.13941 28.0025 3.96539 28.1104 3.79428 28.1104C3.57261 28.1104 3.38594 27.8907 3.38594 27.8907L3.51428 27.7293ZM3.46566 13.9772C3.46566 13.4911 3.90122 13.2422 4.24344 13.2422C4.70428 13.2422 4.95025 13.5183 4.95025 13.879C4.95025 14.0841 4.91233 14.2125 4.81803 14.4079L3.76122 16.6032C3.72249 16.6949 3.70552 16.7944 3.71164 16.8939C3.71164 17.0912 3.90317 17.2516 4.10344 17.2575C4.28525 17.2614 4.48455 17.0864 4.48455 16.888C4.48455 16.6469 4.36011 16.539 4.2308 16.539C4.07233 16.539 4.00914 16.6041 4.00914 16.7159C4.00914 16.7927 4.04705 16.8268 4.10053 16.8268C4.23664 16.8268 4.19872 16.644 4.19872 16.644C4.21668 16.6477 4.23361 16.6552 4.24833 16.6662C4.26304 16.6771 4.27518 16.6911 4.2839 16.7072C4.29261 16.7234 4.29768 16.7412 4.29875 16.7595C4.29983 16.7778 4.29688 16.7961 4.29011 16.8132C4.34107 16.8243 4.38709 16.8516 4.42136 16.8909C4.3862 16.9282 4.34034 16.9537 4.29011 16.9639C4.32219 17.0689 4.27941 17.1194 4.18803 17.1418C4.20384 17.1064 4.20826 17.067 4.20066 17.029C4.0558 17.0698 3.83414 17.0057 3.83414 16.7548C3.83414 16.5069 4.00622 16.2979 4.32997 16.3494C4.25219 16.3125 4.21428 16.2376 4.2065 16.154C4.26483 16.1773 4.32997 16.1793 4.32997 16.1793C4.29205 16.1132 4.23955 16.0558 4.2415 15.9245C4.30178 15.9518 4.35719 16.0023 4.434 15.9702C4.31344 15.733 4.46122 15.4073 4.83844 15.3305C4.71069 15.4699 4.63781 15.6509 4.6333 15.84C4.6333 16.4029 4.7908 16.4972 4.7908 16.889C4.7908 17.0523 4.70622 17.2293 4.53997 17.3498V17.343C4.64691 17.3722 4.71691 17.4257 4.75872 17.4995C4.50691 17.5715 4.14039 17.5695 3.94497 17.4927C3.85645 17.4797 3.77192 17.4472 3.69745 17.3976C3.62299 17.3481 3.56043 17.2826 3.51428 17.2059C3.46675 17.0967 3.44222 16.9789 3.44222 16.8598C3.44222 16.7407 3.46675 16.6229 3.51428 16.5137C3.664 16.2007 4.36983 14.7044 4.58955 14.2329C4.63751 14.1326 4.66305 14.0232 4.66441 13.912C4.66441 13.6243 4.40094 13.5232 4.25122 13.5232C4.07136 13.5232 3.88858 13.6602 3.88858 13.8294C3.88858 13.9383 3.94789 14.0034 4.0315 14.0034C4.23469 14.0034 4.22205 13.8304 4.18122 13.7225C4.30664 13.7789 4.38053 13.88 4.36011 13.9869C4.43205 13.9966 4.50011 14.0297 4.56233 14.1016C4.51275 14.1639 4.45247 14.2105 4.36011 14.2125C4.40094 14.3787 4.29011 14.4487 4.18122 14.4866C4.21525 14.3661 4.23761 14.2261 4.0315 14.2261C3.8808 14.2261 3.76219 14.1998 3.69317 14.1026C3.6883 14.2329 3.67566 14.7491 3.67566 14.7491C3.66789 14.9426 3.93525 14.9377 4.10539 14.8794C4.04219 15.103 3.91094 15.2236 3.60469 15.1925C3.65168 15.2107 3.69176 15.2432 3.71931 15.2854C3.74687 15.3276 3.7605 15.3774 3.7583 15.4277C3.7583 15.6095 3.61053 15.8118 3.51428 15.8711L3.46566 13.9772Z" fill="#FFCC4D"/>
<path d="M3.56114 13.9772C3.56114 13.4911 3.12582 13.2422 2.78377 13.2422C2.32318 13.2422 2.07733 13.5183 2.07733 13.879C2.07733 14.0841 2.11523 14.2125 2.20949 14.4079L3.26574 16.6032C3.30267 16.68 3.31433 16.7665 3.31433 16.8939C3.31433 17.0912 3.1229 17.2516 2.9237 17.2575C2.74101 17.2614 2.54278 17.0864 2.54278 16.888C2.54278 16.6469 2.66716 16.539 2.7964 16.539C2.95479 16.539 3.01795 16.6041 3.01795 16.7159C3.01795 16.7927 2.98006 16.8268 2.92661 16.8268C2.79057 16.8268 2.82847 16.644 2.82847 16.644C2.81043 16.6475 2.7934 16.655 2.7786 16.6659C2.7638 16.6768 2.75159 16.6908 2.74285 16.707C2.73412 16.7232 2.72908 16.7411 2.72809 16.7594C2.7271 16.7778 2.73018 16.7961 2.73713 16.8132C2.68619 16.8243 2.6402 16.8516 2.60595 16.8909C2.64109 16.9282 2.68692 16.9537 2.73713 16.9639C2.70603 17.0689 2.74782 17.1194 2.83916 17.1418C2.82335 17.1064 2.81894 17.067 2.82653 17.029C2.97131 17.0698 3.19286 17.0057 3.19286 16.7548C3.19286 16.5069 3.02087 16.2979 2.69826 16.3494C2.77502 16.3125 2.81389 16.2376 2.8207 16.154C2.76239 16.1773 2.69826 16.1793 2.69826 16.1793C2.73518 16.1132 2.78766 16.0558 2.78571 15.9245C2.72547 15.9518 2.67105 16.0023 2.59331 15.9702C2.71381 15.733 2.56611 15.4073 2.18908 15.3305C2.31676 15.4699 2.3896 15.6509 2.39411 15.84C2.39411 16.4029 2.23767 16.4972 2.23767 16.889C2.23767 17.0523 2.3222 17.2293 2.48837 17.3498V17.343C2.38051 17.3722 2.30957 17.4257 2.26973 17.4995C2.52141 17.5715 2.88677 17.5695 3.08306 17.4927C3.17153 17.4797 3.25602 17.4472 3.33045 17.3976C3.40488 17.3481 3.4674 17.2826 3.51353 17.2059C3.56104 17.0967 3.58555 16.9789 3.58555 16.8598C3.58555 16.7407 3.56104 16.6229 3.51353 16.5137C3.36389 16.2007 2.65842 14.7044 2.43881 14.2329C2.39045 14.1331 2.36489 14.0239 2.36399 13.913C2.36399 13.6252 2.62732 13.5241 2.77697 13.5241C2.95674 13.5241 3.13942 13.6612 3.13942 13.8304C3.13942 13.9393 3.08014 14.0044 2.99658 14.0044C2.79349 14.0044 2.80612 13.8314 2.84596 13.7234C2.72061 13.7798 2.64676 13.8809 2.66716 13.9879C2.58783 13.9995 2.51571 14.0404 2.46505 14.1026C2.5146 14.1648 2.57485 14.2115 2.66716 14.2134C2.62635 14.3797 2.73713 14.4497 2.84596 14.4876C2.81195 14.367 2.7896 14.227 2.99658 14.227C3.14719 14.227 3.26574 14.2008 3.33473 14.1036L3.35125 14.7482C3.35903 14.9416 3.09083 14.9368 2.92078 14.8784C2.98492 15.102 3.11707 15.2226 3.42219 15.1925C3.37523 15.2107 3.33517 15.2432 3.30763 15.2854C3.28009 15.3276 3.26646 15.3774 3.26866 15.4277C3.26866 15.6095 3.41539 15.8118 3.51256 15.8711L3.56114 13.9772Z" fill="#FFCC4D"/>
<path d="M3.56117 12.5211C3.56117 13.0062 3.12584 13.2561 2.7838 13.2561C2.3232 13.2561 2.07736 12.98 2.07736 12.6183C2.07736 12.4141 2.11525 12.2858 2.20951 12.0894L3.26577 9.89413C3.30408 9.80226 3.32071 9.70279 3.31435 9.60344C3.31435 9.40705 3.12293 9.24566 2.92372 9.2408C2.74104 9.23691 2.54281 9.41094 2.54281 9.61025C2.54281 9.85233 2.66719 9.95927 2.79643 9.95927C2.95482 9.95927 3.01798 9.89414 3.01798 9.78233C3.01798 9.70455 2.98008 9.6715 2.92664 9.6715C2.7906 9.6715 2.8285 9.85427 2.8285 9.85427C2.81043 9.85063 2.79338 9.84304 2.77858 9.83204C2.76378 9.82105 2.75158 9.80693 2.74286 9.79068C2.73414 9.77443 2.7291 9.75646 2.72812 9.73805C2.72713 9.71963 2.73022 9.70122 2.73715 9.68414C2.686 9.67412 2.63975 9.64705 2.60597 9.60733C2.64144 9.57065 2.68717 9.54557 2.73715 9.53538C2.70606 9.43038 2.74881 9.37983 2.84016 9.35747C2.82435 9.39284 2.81993 9.43225 2.82752 9.47025C2.97231 9.42941 3.19386 9.49552 3.19386 9.74441C3.19386 9.99233 3.02187 10.2014 2.69926 10.1498C2.77602 10.1868 2.81489 10.2616 2.82169 10.3452C2.78227 10.3311 2.74105 10.3226 2.69926 10.32C2.73618 10.3861 2.78865 10.4434 2.78671 10.5747C2.72646 10.5475 2.67205 10.4969 2.59431 10.529C2.7148 10.7662 2.5671 11.0919 2.19008 11.1697C2.31775 11.0299 2.39057 10.8486 2.39511 10.6593C2.39511 10.0973 2.23866 10.0021 2.23866 9.61122C2.23866 9.44788 2.3232 9.27094 2.48937 9.15038V9.15719C2.44374 9.14756 2.40063 9.12849 2.36281 9.1012C2.32499 9.07391 2.29329 9.039 2.26976 8.99872C2.52143 8.92775 2.8868 8.92872 3.08309 9.0065C3.17171 9.01944 3.25633 9.05198 3.33079 9.10176C3.40526 9.15154 3.46769 9.21731 3.51356 9.29427C3.56112 9.40346 3.58567 9.52128 3.58567 9.64039C3.58567 9.75949 3.56112 9.87731 3.51356 9.9865C3.36391 10.2996 2.65844 11.7958 2.43884 12.2664C2.39038 12.3661 2.36481 12.4754 2.36401 12.5862C2.36401 12.875 2.62735 12.9751 2.77699 12.9751C2.95676 12.9751 3.13944 12.838 3.13944 12.6679C3.13944 12.56 3.08017 12.4939 2.9966 12.4939C2.79351 12.4939 2.80615 12.6659 2.84599 12.7748C2.72063 12.7184 2.64678 12.6173 2.66719 12.5104C2.58797 12.4984 2.51598 12.4576 2.46507 12.3957C2.51463 12.3334 2.57488 12.2858 2.66719 12.2848C2.62638 12.1196 2.73715 12.0486 2.84599 12.0097C2.81198 12.1312 2.78963 12.2722 2.9966 12.2722C3.14722 12.2722 3.26577 12.2975 3.33476 12.3957L3.35225 11.7482C3.36002 11.5547 3.09183 11.5605 2.92178 11.6179C2.98591 11.3943 3.11807 11.2737 3.42319 11.3039C3.37623 11.2856 3.33616 11.2531 3.30863 11.2109C3.28109 11.1687 3.26746 11.1189 3.26966 11.0686C3.26966 10.8868 3.41638 10.6846 3.51356 10.6252L3.56117 12.5211ZM3.56117 21.0222C3.56117 21.5073 3.12584 21.7562 2.7838 21.7562C2.3232 21.7562 2.07736 21.4811 2.07736 21.1204C2.075 20.9356 2.12053 20.7534 2.20951 20.5915L3.26577 18.3962C3.30408 18.3043 3.32071 18.2049 3.31435 18.1055C3.31435 17.9082 3.12293 17.7477 2.92372 17.7429C2.74104 17.738 2.54281 17.913 2.54281 18.1114C2.54281 18.3525 2.66719 18.4604 2.79643 18.4604C2.95482 18.4604 3.01798 18.3952 3.01798 18.2834C3.01798 18.2066 2.98008 18.1736 2.92664 18.1736C2.7906 18.1736 2.8285 18.3564 2.8285 18.3564C2.81051 18.3526 2.79358 18.3449 2.77887 18.3338C2.76416 18.3228 2.75204 18.3087 2.74334 18.2925C2.73464 18.2763 2.72958 18.2584 2.72851 18.24C2.72745 18.2217 2.73039 18.2033 2.73715 18.1862C2.6859 18.1759 2.63965 18.1485 2.60597 18.1084C2.64121 18.0715 2.68704 18.0463 2.73715 18.0365C2.70606 17.9305 2.74784 17.88 2.83918 17.8576C2.82338 17.893 2.81896 17.9324 2.82655 17.9704C2.97134 17.9296 3.19289 17.9947 3.19289 18.2446C3.19289 18.4925 3.0209 18.7005 2.69829 18.65C2.77505 18.6879 2.81392 18.7618 2.82072 18.8464C2.76242 18.824 2.69829 18.8201 2.69829 18.8201C2.73521 18.8862 2.78768 18.9446 2.78574 19.0748C2.72549 19.0476 2.67108 18.9971 2.59334 19.0291C2.71383 19.2654 2.56613 19.593 2.18911 19.6689C2.31694 19.5295 2.38981 19.3485 2.39414 19.1594C2.39414 18.5984 2.23769 18.5022 2.23769 18.1114C2.23769 17.9471 2.32223 17.7701 2.48839 17.6505V17.6564C2.38053 17.6282 2.3096 17.5747 2.26976 17.4998C2.52143 17.4289 2.8868 17.4298 3.08309 17.5076C3.17156 17.5206 3.25604 17.5531 3.33047 17.6027C3.4049 17.6523 3.46743 17.7178 3.51356 17.7944C3.56106 17.9036 3.58558 18.0214 3.58558 18.1405C3.58558 18.2596 3.56106 18.3774 3.51356 18.4866C3.36391 18.7997 2.65844 20.2959 2.43884 20.7675C2.39025 20.8671 2.36468 20.9764 2.36401 21.0873C2.36401 21.3751 2.62735 21.4752 2.77699 21.4752C2.95676 21.4752 3.13944 21.3382 3.13944 21.168C3.13944 21.0621 3.08017 20.9959 2.9966 20.9959C2.79351 20.9959 2.80615 21.168 2.84599 21.2759C2.72063 21.2196 2.64678 21.1175 2.66719 21.0115C2.5879 21.0004 2.51572 20.9598 2.46507 20.8977C2.48811 20.865 2.51827 20.838 2.55328 20.8186C2.58829 20.7992 2.62724 20.7881 2.66719 20.7859C2.62638 20.6207 2.73715 20.5516 2.84599 20.5127C2.81198 20.6343 2.78963 20.7743 2.9966 20.7743C3.14722 20.7743 3.26577 20.7996 3.33476 20.8987L3.35225 20.2512C3.36002 20.0587 3.09183 20.0636 2.92178 20.1209C2.98591 19.8983 3.11807 19.7777 3.42319 19.8079C3.37623 19.7896 3.33616 19.7571 3.30863 19.7149C3.28109 19.6727 3.26746 19.623 3.26966 19.5726C3.26966 19.3908 3.41638 19.1896 3.51356 19.1293L3.56117 21.0222Z" fill="#FFCC4D"/>
<path d="M3.46566 21.0221C3.46566 21.5073 3.90099 21.7562 4.24304 21.7562C4.70363 21.7562 4.94948 21.481 4.94948 21.1203C4.95183 20.9356 4.9063 20.7534 4.81732 20.5914L3.76106 18.3962C3.72235 18.3044 3.70539 18.2049 3.71151 18.1055C3.71151 17.9081 3.90294 17.7477 4.10311 17.7428C4.28482 17.738 4.48402 17.913 4.48402 18.1113C4.48402 18.3524 4.35964 18.4603 4.2304 18.4603C4.07201 18.4603 4.00885 18.3952 4.00885 18.2834C4.00885 18.2066 4.04675 18.1735 4.10019 18.1735C4.23623 18.1735 4.19834 18.3563 4.19834 18.3563C4.21632 18.3525 4.23326 18.3448 4.24796 18.3338C4.26267 18.3228 4.2748 18.3087 4.28349 18.2925C4.29219 18.2763 4.29725 18.2584 4.29832 18.24C4.29939 18.2216 4.29644 18.2033 4.28968 18.1862C4.34094 18.1758 4.38718 18.1484 4.42086 18.1084C4.38563 18.0714 4.33979 18.0463 4.28968 18.0364C4.32175 17.9305 4.27899 17.8799 4.18765 17.8576C4.20611 17.8984 4.20611 17.9353 4.20028 17.9703C4.0555 17.9295 3.83394 17.9946 3.83394 18.2445C3.83394 18.4924 4.00594 18.7005 4.32952 18.6499C4.25178 18.6878 4.21389 18.7617 4.20611 18.8463C4.26441 18.8239 4.32952 18.8201 4.32952 18.8201C4.29162 18.8862 4.23915 18.9445 4.24109 19.0748C4.30134 19.0476 4.35673 18.997 4.43349 19.0291C4.313 19.2653 4.4607 19.593 4.83773 19.6688C4.70989 19.5295 4.63703 19.3484 4.6327 19.1594C4.6327 18.5984 4.79011 18.5021 4.79011 18.1113C4.78766 18.0201 4.76366 17.9309 4.72009 17.8508C4.67651 17.7707 4.6146 17.702 4.53941 17.6505V17.6563C4.58519 17.6471 4.62851 17.6283 4.66653 17.6012C4.70454 17.574 4.73639 17.5391 4.75999 17.4988C4.50832 17.4278 4.14198 17.4288 3.94666 17.5066C3.85819 17.5196 3.77371 17.5521 3.69928 17.6017C3.62484 17.6513 3.56232 17.7167 3.51619 17.7934C3.46869 17.9026 3.44417 18.0204 3.44417 18.1395C3.44417 18.2586 3.46869 18.3764 3.51619 18.4856C3.66584 18.7987 4.3713 20.2949 4.59091 20.7664C4.63755 20.8656 4.66573 20.9706 4.66573 21.0863C4.66573 21.3741 4.4024 21.4742 4.25275 21.4742C4.07299 21.4742 3.8903 21.3371 3.8903 21.167C3.8903 21.061 3.94958 20.9949 4.03315 20.9949C4.23623 20.9949 4.2236 21.167 4.18279 21.2749C4.30814 21.2185 4.38199 21.1164 4.36159 21.0105C4.441 20.9998 4.51331 20.9591 4.5637 20.8967C4.54067 20.864 4.51051 20.8369 4.4755 20.8176C4.44049 20.7982 4.40154 20.787 4.36159 20.7849C4.4024 20.6196 4.29162 20.5506 4.18279 20.5117C4.2168 20.6333 4.23915 20.7733 4.03315 20.7733C3.88253 20.7733 3.76398 20.7985 3.69499 20.8977C3.69013 20.7674 3.6775 20.2502 3.6775 20.2502C3.66972 20.0577 3.93695 20.0626 4.107 20.1199C4.04189 19.8973 3.91071 19.7767 3.60462 19.8069C3.65158 19.7886 3.69164 19.7561 3.71918 19.7139C3.74672 19.6717 3.76035 19.6219 3.75815 19.5716C3.75815 19.3898 3.61045 19.1885 3.51425 19.1283L3.46566 21.0221ZM3.51425 7.27103C3.51425 7.27103 3.74455 7.07756 3.82228 7.17381C3.94763 7.33034 3.43651 8.10714 3.43651 8.38131C3.43651 8.83048 3.73677 8.952 4.10602 9.01617C4.35478 9.05992 4.75902 8.99867 4.75902 8.99867C4.68128 8.89659 4.6327 8.86645 4.50443 8.85867C4.5928 8.81266 4.66656 8.74286 4.71738 8.65713C4.7682 8.57141 4.79407 8.47318 4.79206 8.37353C4.79206 7.98659 4.6327 7.82714 4.6327 7.39159C4.6327 7.1495 4.83093 6.84131 4.83093 6.84131C4.48111 6.87728 4.3062 7.20103 4.40531 7.46061C4.37869 7.46554 4.35126 7.46396 4.32538 7.456C4.29949 7.44805 4.27591 7.43395 4.25664 7.41492C4.23138 7.48686 4.27219 7.57048 4.32563 7.64242C4.28191 7.66575 4.24984 7.65117 4.18085 7.63659C4.18765 7.71145 4.23138 7.78923 4.34021 7.86311C4.0244 7.78145 3.83103 8.00117 3.83103 8.23159C3.83103 8.40561 3.95249 8.52909 4.07201 8.52909C4.11088 8.52909 4.16724 8.51353 4.19931 8.48923C4.22166 8.53686 4.21 8.60103 4.18668 8.64867C4.27413 8.62631 4.32855 8.57381 4.28968 8.46589C4.34926 8.46346 4.40548 8.43761 4.44613 8.39395C4.42733 8.37055 4.40327 8.35192 4.37592 8.33959C4.34856 8.32725 4.31868 8.32156 4.28871 8.32297C4.33729 8.22186 4.28288 8.16547 4.20417 8.12075C4.20417 8.12075 4.2547 8.32297 4.12546 8.32297C4.06716 8.32297 4.01468 8.30353 4.01468 8.21895C4.01468 8.14506 4.07979 8.042 4.22943 8.04881C4.37908 8.05464 4.50054 8.15186 4.50054 8.392C4.50054 8.6127 4.32272 8.72159 4.08853 8.72936C3.87767 8.7352 3.71831 8.62047 3.71831 8.4027C3.71831 8.112 4.13809 7.45089 4.13809 7.19131C4.13809 6.99686 3.96415 6.88798 3.79313 6.88798C3.57158 6.88798 3.38501 7.1077 3.38501 7.1077L3.51425 7.27103Z" fill="#FFCC4D"/>
<path d="M3.51377 7.27103C3.51377 7.27103 3.28335 7.07756 3.20557 7.17381C3.07918 7.33131 3.59155 8.10811 3.59155 8.38228C3.59155 8.83145 3.29113 8.95297 2.92168 9.01714C2.6728 9.05992 2.26932 8.99867 2.26932 8.99867C2.34516 8.89659 2.39474 8.86645 2.52307 8.85867C2.4344 8.81288 2.36034 8.74316 2.30931 8.6574C2.25827 8.57165 2.23229 8.4733 2.23432 8.37353C2.23432 7.98659 2.39377 7.82714 2.39377 7.39159C2.39377 7.1495 2.19543 6.84131 2.19543 6.84131C2.54543 6.87728 2.72043 7.20103 2.62127 7.46061C2.64806 7.46538 2.6756 7.46372 2.70163 7.45578C2.72765 7.44783 2.75142 7.43383 2.77099 7.41492C2.79627 7.48686 2.75641 7.57048 2.70196 7.64242C2.74474 7.66575 2.77682 7.65117 2.84682 7.63659C2.84002 7.71145 2.7953 7.78923 2.68738 7.86311C3.00238 7.78145 3.19585 8.00117 3.19585 8.23159C3.19585 8.40561 3.07432 8.52909 2.95474 8.52909C2.90937 8.5281 2.86521 8.51428 2.82738 8.48923C2.80599 8.53784 2.81766 8.60103 2.84002 8.64867C2.75349 8.62631 2.69905 8.57381 2.73793 8.46686C2.70838 8.46582 2.67933 8.45892 2.65246 8.44657C2.6256 8.43422 2.60144 8.41667 2.58141 8.39492C2.59991 8.37136 2.62376 8.35254 2.65098 8.34003C2.6782 8.32752 2.70801 8.32167 2.73793 8.32297C2.68932 8.22186 2.74377 8.16547 2.82252 8.12075C2.82252 8.12075 2.77196 8.32297 2.90127 8.32297C2.9596 8.32297 3.0121 8.30353 3.0121 8.21895C3.0121 8.14506 2.94696 8.042 2.79724 8.04881C2.64655 8.05464 2.52502 8.15186 2.52502 8.39103C2.52502 8.61172 2.70293 8.72061 2.93724 8.72839C3.14918 8.73422 3.30863 8.62048 3.30863 8.40173C3.30863 8.11103 2.88863 7.44992 2.88863 7.19034C2.88863 6.99589 3.06266 6.887 3.23377 6.887C3.45543 6.887 3.6421 7.10673 3.6421 7.10673L3.51377 7.27103ZM3.46516 12.521C3.46516 13.0062 3.90071 13.256 4.24293 13.256C4.70377 13.256 4.94974 12.9799 4.94974 12.6183C4.94974 12.4141 4.91182 12.2858 4.81752 12.0894L3.76071 9.89409C3.72266 9.80247 3.70603 9.70338 3.7121 9.60436C3.7121 9.40797 3.90363 9.24659 4.10391 9.24172C4.28571 9.23784 4.48502 9.41186 4.48502 9.61117C4.48502 9.85325 4.36057 9.9602 4.23127 9.9602C4.0728 9.9602 4.0096 9.89506 4.0096 9.78325C4.0096 9.70547 4.04752 9.67242 4.10099 9.67242C4.2371 9.67242 4.19918 9.8552 4.19918 9.8552C4.21718 9.85139 4.23412 9.84371 4.24884 9.83268C4.26355 9.82165 4.27568 9.80755 4.28439 9.79135C4.29309 9.77515 4.29815 9.75724 4.29922 9.73889C4.30029 9.72053 4.29734 9.70216 4.29057 9.68506C4.3414 9.67423 4.38721 9.64688 4.42085 9.60728C4.38511 9.57043 4.33899 9.54533 4.28863 9.53534C4.32071 9.43034 4.27793 9.37978 4.18655 9.35742C4.20502 9.39825 4.20502 9.4352 4.19918 9.4702C4.05432 9.42936 3.83266 9.4945 3.83266 9.74436C3.83266 9.99228 4.00474 10.2013 4.32849 10.1498C4.25071 10.1867 4.2128 10.2616 4.20502 10.3452C4.24479 10.331 4.28635 10.3225 4.32849 10.3199C4.29057 10.386 4.23807 10.4434 4.24002 10.5746C4.3003 10.5474 4.35571 10.4969 4.43252 10.5289C4.31196 10.7662 4.45974 11.0919 4.83696 11.1696C4.70922 11.0298 4.63636 10.8485 4.63182 10.6592C4.63182 10.0973 4.78932 10.002 4.78932 9.61117C4.78664 9.52005 4.76253 9.43085 4.71895 9.35079C4.67537 9.27073 4.61355 9.20206 4.53849 9.15034V9.15714C4.58421 9.14736 4.62741 9.12823 4.66539 9.10096C4.70337 9.07369 4.7353 9.03886 4.75918 8.99867C4.50641 8.92867 4.13988 8.92964 3.94349 9.00742C3.85498 9.02005 3.77042 9.05238 3.69605 9.10201C3.62168 9.15165 3.55939 9.21733 3.51377 9.29423C3.46618 9.40341 3.44162 9.52123 3.44162 9.64034C3.44162 9.75944 3.46618 9.87726 3.51377 9.98645C3.66349 10.2995 4.36932 11.7958 4.58905 12.2663C4.63686 12.3663 4.66241 12.4754 4.66391 12.5862C4.66391 12.8749 4.40043 12.9751 4.25071 12.9751C4.07085 12.9751 3.88807 12.838 3.88807 12.6678C3.88807 12.5599 3.94738 12.4938 4.03099 12.4938C4.23418 12.4938 4.22155 12.6659 4.18071 12.7748C4.30613 12.7184 4.38002 12.6173 4.3596 12.5103C4.43901 12.4988 4.51119 12.4579 4.56182 12.3956C4.51224 12.3334 4.45196 12.2858 4.3596 12.2848C4.40043 12.1195 4.2896 12.0485 4.18071 12.0096C4.21474 12.1312 4.2371 12.2721 4.03099 12.2721C3.8803 12.2721 3.76168 12.2974 3.69266 12.3956C3.6878 12.2653 3.67516 11.7481 3.67516 11.7481C3.66738 11.5546 3.93474 11.5605 4.10488 11.6178C4.04168 11.3962 3.91043 11.2756 3.60418 11.3058C3.65117 11.2875 3.69125 11.255 3.7188 11.2128C3.74636 11.1706 3.75999 11.1208 3.7578 11.0705C3.7578 10.8887 3.61002 10.6864 3.51377 10.6271L3.46516 12.521Z" fill="#FFCC4D"/>
</g>
<defs>
<clipPath id="clip0_353_82">
<rect x="0.15332" width="35" height="35" fill="white"/>
</clipPath>
</defs>
</svg>
