<svg xmlns="http://www.w3.org/2000/svg" width="36" height="35" fill="none"><g clip-path="url(#a)"><path fill="#fff" d="M31.583 4.861h-11.18V15.07h15.069V8.75a3.889 3.889 0 0 0-3.89-3.889Z"/><path fill="#E8112D" d="M20.402 4.861h-4.86V15.07H.471v4.86h15.07v10.21h4.86V19.93h15.07v-4.86h-15.07V4.86Z"/><path fill="#E8112D" d="M28.584 9.32c.03-.608.102-1.212.215-1.81a6.98 6.98 0 0 1-1.721 0c.114.599.185 1.203.215 1.81a13.202 13.202 0 0 1-1.809-.216c.071.572.071 1.15 0 1.721a13.177 13.177 0 0 1 1.809-.215c-.03.607-.102 1.211-.215 1.809a6.978 6.978 0 0 1 1.72 0 13.193 13.193 0 0 1-.214-1.809c.607.03 1.211.102 1.808.215a6.978 6.978 0 0 1 0-1.72c-.599.114-1.203.185-1.808.214Z"/><path fill="#fff" d="M15.541 4.861H4.361a3.889 3.889 0 0 0-3.89 3.89v6.319h15.07V4.86Z"/><path fill="#E8112D" d="M8.653 9.319c.03-.607.102-1.212.215-1.809a6.98 6.98 0 0 1-1.721 0c.114.598.185 1.203.215 1.809a13.204 13.204 0 0 1-1.809-.215 6.98 6.98 0 0 1 0 1.72 13.178 13.178 0 0 1 1.809-.214c-.03.607-.102 1.21-.215 1.808.571-.07 1.15-.07 1.72 0a13.182 13.182 0 0 1-.214-1.808c.607.03 1.211.101 1.808.215a6.978 6.978 0 0 1 0-1.721c-.599.114-1.202.185-1.808.215Z"/><path fill="#fff" d="M35.472 26.25v-6.32h-15.07V30.14h11.18a3.89 3.89 0 0 0 3.89-3.889Z"/><path fill="#E8112D" d="M28.584 25.681c.03.606.1 1.21.215 1.809a6.978 6.978 0 0 0-1.721 0 13.17 13.17 0 0 0 .215-1.808c-.607.03-1.212.101-1.809.214.071-.571.071-1.15 0-1.72.598.113 1.203.184 1.809.214a13.194 13.194 0 0 0-.215-1.808c.571.071 1.15.071 1.72 0a13.194 13.194 0 0 0-.214 1.808c.607-.03 1.211-.101 1.808-.215a6.978 6.978 0 0 0 0 1.721 12.901 12.901 0 0 0-1.808-.215Z"/><path fill="#fff" d="M15.541 19.93H.471v6.32a3.889 3.889 0 0 0 3.89 3.889h11.18V19.931Z"/><path fill="#E8112D" d="M8.653 25.681c.03.606.101 1.21.215 1.809a6.978 6.978 0 0 0-1.721 0c.114-.598.185-1.203.215-1.808-.607.03-1.211.101-1.809.214a6.98 6.98 0 0 0 0-1.72c.598.113 1.203.184 1.809.214a13.204 13.204 0 0 0-.215-1.808c.571.071 1.15.071 1.72 0a13.183 13.183 0 0 0-.214 1.808c.607-.03 1.211-.101 1.808-.215a6.978 6.978 0 0 0 0 1.721 12.901 12.901 0 0 0-1.808-.215Z"/></g><defs><clipPath id="a"><path fill="#fff" d="M.472 0h35v35h-35z"/></clipPath></defs></svg>