<svg xmlns="http://www.w3.org/2000/svg" width="36" height="35" fill="none"><g clip-path="url(#a)"><path fill="#C00" d="M31.583 4.861H4.36a3.889 3.889 0 0 0-3.89 3.89v4.374h35V8.75a3.889 3.889 0 0 0-3.888-3.889Z"/><path fill="#060" d="M.472 26.25a3.889 3.889 0 0 0 3.889 3.889h27.222a3.889 3.889 0 0 0 3.889-3.889v-4.375h-35v4.375Z"/><path fill="#fff" d="M.472 13.125h35v8.75h-35v-8.75Z"/><path fill="#FFAC33" d="M16.153 20.859c-.396.113-.628-.265-.628-.265l.314-.14.152-.487.314.453h.354c0-.001-.08.317-.506.439Zm5.003.425c-.607-.183-2.024-.426-3.1-.426-1.073 0-2.49.243-3.099.426-.608.183-.465.769 0 .586.466-.183 1.6-.364 3.1-.364 1.499 0 2.634.182 3.1.364.466.183.607-.403 0-.586Zm-2.855-1.094-.243-.405-.243.405-.426.183s.303.343.669.343c.365 0 .669-.343.669-.343l-.426-.183Zm1.661.669c.397.113.628-.265.628-.265l-.314-.14-.151-.487-.313.453h-.355c-.002-.001.08.317.505.439Z"/><path fill="#FFAC33" d="M22.29 19.639c-.1-.26-.351.435-1.032.328-.77-.121-.931-.891-.931-.891s-.608.608-1.236.325c-.628-.284-.79-.689-.79-1.135 0-.446-.057-.774 0-.952.092-.284.427-.487.77-.162.285-.405-.201-1.255-1.012-1.255-.81 0-1.296.85-1.013 1.255.344-.324.678-.122.77.162.057.178 0 .506 0 .952 0 .446-.163.85-.79 1.135-.627.283-1.235-.325-1.235-.325s-.163.77-.932.891c-.68.107-.931-.588-1.032-.328-.101.26.445 1.037 1.215.785.77-.252.871-.902.871-.902s.396.728 1.316.445c.695-.213.83-.87.83-.87s.138.656.831.87c.922.283 1.316-.445 1.316-.445s.102.65.872.902c.768.252 1.315-.527 1.213-.785Zm-4.901-3.014c.201-.428.669-.365.669-.365s.466-.063.669.365c-.345.04-.67.303-.67.303s-.324-.262-.668-.303Zm-3.95.966.192.593h.623l-.503.367.192.59-.503-.366-.504.367.192-.591-.504-.367h.623l.193-.593Zm.608-2.167.192.593h.623l-.504.367.193.59-.504-.366-.503.367.191-.591-.503-.367h.623l.192-.593Zm1.63-1.742.192.593h.623l-.503.367.191.59-.503-.366-.504.367.193-.591-.504-.367h.623l.192-.593Zm2.38-.587.192.592h.623l-.503.366.192.591-.503-.366-.504.366.192-.59-.504-.367h.623l.193-.592Zm4.446 4.496-.192.593h-.623l.504.367-.193.59.504-.366.503.367-.192-.591.505-.367h-.624l-.192-.593Zm-.608-2.167-.191.593h-.624l.504.367-.192.59.503-.366.504.367-.193-.591.505-.367h-.623l-.193-.593Zm-1.63-1.742-.192.593h-.623l.505.367-.193.59.504-.366.503.367-.192-.591.503-.367h-.623l-.191-.593Z"/></g><defs><clipPath id="a"><path fill="#fff" d="M.472 0h35v35h-35z"/></clipPath></defs></svg>