<svg width="35" height="35" viewBox="0 0 35 35" fill="none" xmlns="http://www.w3.org/2000/svg">
<g clip-path="url(#clip0_353_76)">
<path d="M0 26.2502C0 27.2816 0.409721 28.2708 1.13903 29.0001C1.86834 29.7294 2.85749 30.1391 3.88889 30.1391H31.1111C32.1425 30.1391 33.1317 29.7294 33.861 29.0001C34.5903 28.2708 35 27.2816 35 26.2502V22.3613H0V26.2502Z" fill="#FFCD05"/>
<path d="M0 13.6113H35V22.3613H0V13.6113Z" fill="#ED1F24"/>
<path d="M31.1111 4.86133H3.88889C2.85749 4.86133 1.86834 5.27105 1.13903 6.00036C0.409721 6.72967 0 7.71882 0 8.75022L0 13.6113H35V8.75022C35 7.71882 34.5903 6.72967 33.861 6.00036C33.1317 5.27105 32.1425 4.86133 31.1111 4.86133Z" fill="#141414"/>
</g>
<defs>
<clipPath id="clip0_353_76">
<rect width="35" height="35" fill="white"/>
</clipPath>
</defs>
</svg>
