<svg width="36" height="35" viewBox="0 0 36 35" fill="none" xmlns="http://www.w3.org/2000/svg">
<g clip-path="url(#clip0_353_124)">
<path d="M35.4717 26.2502C35.4717 27.2816 35.062 28.2708 34.3326 29.0001C33.6033 29.7294 32.6142 30.1391 31.5828 30.1391H4.36057C3.32917 30.1391 2.34002 29.7294 1.61071 29.0001C0.881401 28.2708 0.47168 27.2816 0.47168 26.2502V8.75022C0.47168 7.71882 0.881401 6.72967 1.61071 6.00036C2.34002 5.27105 3.32917 4.86133 4.36057 4.86133H31.5828C32.6142 4.86133 33.6033 5.27105 34.3326 6.00036C35.062 6.72967 35.4717 7.71882 35.4717 8.75022V26.2502Z" fill="#E8112D"/>
<path d="M18.4313 11.6528C18.4449 10.6368 19.3452 9.9378 19.3831 8.58447C20.0277 9.3953 18.9621 10.9149 19.3403 11.7967C19.5134 10.7963 20.5099 10.246 20.7607 8.916C21.2711 9.81822 19.98 11.1521 20.2153 12.0816C20.542 11.1191 21.6134 10.7331 22.0684 9.45753C22.431 10.4288 20.9484 11.5439 21.0359 12.4986C21.5084 11.6003 22.6274 11.3864 23.2768 10.1974C23.4839 11.2134 21.8428 12.0825 21.7806 13.0402C22.3882 12.2264 23.5277 12.1895 24.3541 11.1171C24.3998 12.1535 22.643 12.7543 22.432 13.6906C23.1592 12.9818 24.2889 13.1238 25.2728 12.1934C25.1571 13.2239 23.3284 13.5438 22.9716 14.4353C23.8018 13.8491 24.8966 14.166 26.0136 13.4018C25.7385 14.4013 23.8816 14.4314 23.3916 15.2559C24.3016 14.8067 25.3321 15.2909 26.5571 14.7104C26.1284 15.6535 24.288 15.3929 23.6745 16.1309C24.6448 15.8295 25.5888 16.4702 26.8877 16.0881C26.3141 16.9534 24.5407 16.407 23.8193 17.0399C24.8236 16.8941 25.6559 17.6728 26.9975 17.4997C26.2985 18.2649 24.6302 17.4482 23.8193 17.9596C24.8353 17.9732 25.5343 18.8745 26.8857 18.9104C26.0749 19.5579 24.5563 18.4885 23.6745 18.8686C24.6768 19.0417 25.2261 20.0382 26.5571 20.2891C25.6549 20.7995 24.32 19.5084 23.3896 19.7436C24.3521 20.0703 24.74 21.1417 26.0136 21.5967C25.0434 21.9613 23.9292 20.4767 22.9716 20.5642C23.8718 21.0367 24.0867 22.1557 25.2728 22.8052C24.2568 23.0122 23.3886 21.3711 22.43 21.3089C23.2448 21.9166 23.2807 23.056 24.3541 23.8824C23.3186 23.9281 22.7149 22.1713 21.7806 21.9603C22.4893 22.6875 22.3464 23.8172 23.2768 24.8011C22.2453 24.6854 21.9264 22.8567 21.0359 22.4999C21.6212 23.3302 21.3032 24.4249 22.0684 25.542C21.068 25.2668 21.0388 23.4099 20.2153 22.9199C20.6655 23.8299 20.1793 24.8604 20.7607 26.0854C19.8167 25.6567 20.0773 23.8163 19.3403 23.2028C19.6407 24.1731 19.002 25.1171 19.3831 26.416C18.5178 25.8424 19.0642 24.0691 18.4313 23.3477C18.5771 24.352 17.7984 25.1842 17.9714 26.5259C17.2063 25.8268 18.023 24.1585 17.5116 23.3477C17.498 24.3636 16.5977 25.0627 16.5598 26.4141C15.9132 25.6052 16.9807 24.0846 16.6016 23.2028C16.4295 24.2052 15.432 24.7545 15.1821 26.0854C14.6717 25.1832 15.9628 23.8484 15.7266 22.9199C15.3999 23.8804 14.3285 24.2684 13.8735 25.542C13.5099 24.5717 14.9945 23.4575 14.907 22.4999C14.4335 23.4002 13.3145 23.615 12.666 24.8011C12.4589 23.7852 14.1 22.917 14.1623 21.9603C13.5546 22.7731 12.4161 22.8091 11.5898 23.8824C11.5431 22.847 13.3009 22.2432 13.5118 21.3089C12.7846 22.0177 11.6539 21.8747 10.67 22.8052C10.7867 21.7736 12.6164 21.4547 12.9713 20.5642C12.142 21.1495 11.0473 20.8316 9.93018 21.5967C10.2063 20.5963 12.0632 20.5671 12.5532 19.7436C11.6423 20.1938 10.6117 19.7096 9.38768 20.2891C9.8174 19.345 11.6559 19.6056 12.2693 18.8686C11.2991 19.1691 10.357 18.5303 9.05712 18.9104C9.62879 18.0471 11.4041 18.5916 12.1245 17.9596C11.1192 18.1054 10.2889 17.3257 8.94629 17.4997C9.64629 16.7356 11.3137 17.5513 12.1245 17.0399C11.1095 17.0263 10.4105 16.126 9.05712 16.0881C9.86796 15.4416 11.3875 16.5091 12.2693 16.1299C11.268 15.9578 10.7186 14.9603 9.38865 14.7104C10.2909 14.1991 11.6248 15.4911 12.5542 15.2549C11.5917 14.9282 11.2057 13.8568 9.93018 13.4018C10.9014 13.0382 12.0166 14.5228 12.9713 14.4353C12.072 13.9618 11.8591 12.8428 10.67 12.1943C11.686 11.9872 12.5552 13.6284 13.5128 13.6906C12.6991 13.0829 12.6621 11.9445 11.5898 11.1181C12.6252 11.0724 13.227 12.8292 14.1632 13.0402C13.4545 12.3129 13.5964 11.1822 12.666 10.1984C13.6956 10.315 14.0164 12.1447 14.908 12.4996C14.3207 11.6703 14.6386 10.5766 13.8745 9.4585C14.8739 9.73461 14.9041 11.5916 15.7285 12.0816C15.2793 11.1706 15.7635 10.14 15.1831 8.91697C16.1261 9.34572 15.8656 11.1842 16.6035 11.7977C16.3021 10.8274 16.9428 9.8853 16.5607 8.58544C17.426 9.15711 16.8796 10.9324 17.5125 11.6528C17.3657 10.6475 18.1455 9.81725 17.9724 8.47461C18.7366 9.17364 17.9199 10.842 18.4313 11.6528Z" fill="#FFCC4D"/>
<path d="M17.9727 22.2699C18.599 22.2698 19.2192 22.1463 19.7979 21.9065C20.3765 21.6666 20.9023 21.3152 21.3451 20.8722C21.7879 20.4292 22.1391 19.9033 22.3787 19.3246C22.6183 18.7458 22.7415 18.1256 22.7414 17.4992C22.7413 16.8729 22.6178 16.2526 22.378 15.674C22.1381 15.0954 21.7867 14.5696 21.3437 14.1268C20.9007 13.684 20.3748 13.3328 19.7961 13.0932C19.2173 12.8536 18.5971 12.7303 17.9707 12.7305C16.7057 12.7307 15.4926 13.2335 14.5983 14.1282C13.704 15.0229 13.2017 16.2362 13.202 17.5012C13.2022 18.7662 13.705 19.9793 14.5997 20.8736C15.4943 21.7679 16.7076 22.2702 17.9727 22.2699Z" fill="#E8112D"/>
<path d="M17.9717 13.0772C19.1889 13.0772 20.2827 13.5983 21.0439 14.4315C19.849 14.552 18.836 14.834 17.9717 15.2627C17.1074 14.834 16.0933 14.552 14.9004 14.4315C15.2897 14.0041 15.764 13.6629 16.2929 13.4296C16.8218 13.1964 17.3936 13.0763 17.9717 13.0772ZM17.6577 15.4319C17.5623 15.485 17.4683 15.5404 17.3757 15.5981C16.6008 15.1869 15.6724 14.9215 14.5689 14.8427C14.6192 14.7715 14.6721 14.7021 14.7274 14.6347C15.8736 14.7367 16.841 15.0109 17.6577 15.4319ZM18.2886 15.4319C18.3849 15.4853 18.4782 15.5408 18.5696 15.5981C19.3454 15.1869 20.2729 14.9215 21.3764 14.8427C21.3264 14.7715 21.2739 14.7021 21.2189 14.6347C20.0717 14.7367 19.1053 15.0109 18.2886 15.4319ZM14.4299 15.0566C14.3858 15.1282 14.3439 15.2011 14.3045 15.2753C15.3311 15.2987 16.1925 15.5359 16.9003 15.9267C16.9742 15.8709 17.0494 15.8167 17.1258 15.7644C16.387 15.3609 15.4935 15.1091 14.4299 15.0566ZM14.3035 19.1963C13.9457 18.5809 13.8135 17.9985 13.8135 17.2363C13.8135 16.6141 13.9477 16.0269 14.1907 15.499C15.1843 15.4922 16.0156 15.709 16.6942 16.0862C15.6899 16.9097 14.8742 17.8741 14.3035 19.1963ZM16.2771 21.0319C16.0904 20.9599 15.8872 20.7567 15.7142 20.6595C15.8124 19.0972 16.5435 17.8119 17.5624 16.7308C17.6382 16.8047 17.7111 16.8785 17.7811 16.9573C16.8342 18.0647 16.2256 19.5016 16.2771 21.0319ZM21.5164 15.0566C21.5602 15.1276 21.602 15.2005 21.6418 15.2753C20.6142 15.2987 19.7528 15.5359 19.046 15.9267C18.9719 15.8706 18.8964 15.8165 18.8195 15.7644C19.5593 15.3609 20.4518 15.1091 21.5164 15.0566Z" fill="#FFCC4D"/>
<path d="M21.6421 19.1975C21.9989 18.5821 22.1321 17.9988 22.1321 17.2365C22.1321 16.6143 21.997 16.0271 21.7539 15.4992C20.7613 15.4924 19.929 15.7092 19.2504 16.0864C20.2567 16.9099 21.0733 17.8753 21.6421 19.1975ZM17.9729 17.3133C18.7186 18.5131 18.8615 19.8256 18.8207 21.3082C18.497 21.3879 18.322 21.3957 17.9729 21.3957C17.6239 21.3957 17.4489 21.3879 17.1252 21.3082C17.0843 19.9014 17.2272 18.5588 17.9729 17.3133ZM19.6636 21.0321C19.8493 20.9602 20.0583 20.8172 20.2314 20.721C20.1332 19.1586 19.4011 17.8121 18.3822 16.732C18.3072 16.8051 18.2346 16.8806 18.1645 16.9585C19.1133 18.0649 19.7152 19.5018 19.6636 21.0321ZM17.3147 16.5093C17.2229 16.4334 17.1278 16.3614 17.0299 16.2935C15.975 17.2288 15.1914 18.3157 14.752 19.7886C14.9143 19.9743 14.9114 20.1114 15.1039 20.265C15.3761 18.7163 16.2579 17.5311 17.3147 16.5093ZM18.6321 16.5093C18.7206 16.4364 18.8207 16.3596 18.917 16.2935C19.9718 17.2288 20.7525 18.3352 21.1929 19.809C21.0296 19.9947 21.0063 20.1124 20.8118 20.266C20.5406 18.7163 19.6889 17.5311 18.6321 16.5093ZM17.9729 15.6081C18.0254 15.6392 18.2053 15.752 18.251 15.7821C18.18 15.8258 18.0177 15.9357 17.9729 15.9658C17.8817 15.9024 17.789 15.8411 17.6949 15.7821C17.7406 15.752 17.9204 15.6382 17.9729 15.6081ZM17.447 15.9552C17.376 16.0086 17.2681 16.0913 17.2272 16.1263C17.3293 16.1933 17.4664 16.2974 17.5102 16.3314C17.5636 16.2857 17.6686 16.1924 17.7279 16.1496C17.6371 16.0808 17.5434 16.0159 17.447 15.9552ZM18.4989 15.9552C18.5699 16.0086 18.6778 16.0913 18.7186 16.1263C18.6221 16.1915 18.5277 16.2599 18.4357 16.3314C18.3832 16.2857 18.2772 16.1924 18.2179 16.1496C18.2909 16.0961 18.4445 15.9853 18.4989 15.9552ZM17.9729 16.3431C18.0186 16.382 18.1538 16.5015 18.1897 16.5375C18.1142 16.604 18.0418 16.6741 17.9729 16.7475C17.9046 16.6739 17.8326 16.6038 17.7571 16.5375C17.7921 16.5015 17.9282 16.3829 17.9729 16.3431Z" fill="#FFCC4D"/>
</g>
<defs>
<clipPath id="clip0_353_124">
<rect width="35" height="35" fill="white" transform="translate(0.47168)"/>
</clipPath>
</defs>
</svg>
