<svg xmlns="http://www.w3.org/2000/svg" width="21" height="20" fill="none"><path fill="#fff" d="M14.664 2.032a4.236 4.236 0 0 1 2.924 1.17 3.921 3.921 0 0 1 1.216 2.814v7.968a3.921 3.921 0 0 1-1.216 2.813 4.237 4.237 0 0 1-2.924 1.17h-8.28a4.237 4.237 0 0 1-2.924-1.17 3.922 3.922 0 0 1-1.216-2.813V6.016A3.922 3.922 0 0 1 3.46 3.203a4.236 4.236 0 0 1 2.924-1.17h8.28Zm0-1.593h-8.28C3.196.439.588 2.949.588 6.016v7.968c0 3.067 2.608 5.577 5.796 5.577h8.28c3.188 0 5.796-2.51 5.796-5.577V6.016C20.46 2.95 17.852.44 14.664.44Z"/><path fill="#fff" d="M15.906 6.016c-.246 0-.486-.07-.69-.201a1.206 1.206 0 0 1-.458-.537 1.153 1.153 0 0 1-.07-.69c.048-.232.166-.445.34-.612.173-.167.395-.28.636-.327.24-.046.49-.023.717.068.227.09.421.244.558.44a1.163 1.163 0 0 1-.154 1.51 1.281 1.281 0 0 1-.879.35Zm-5.382.797c.655 0 1.295.187 1.84.537.545.35.97.848 1.22 1.43.25.583.316 1.224.189 1.842a3.152 3.152 0 0 1-.907 1.632 3.355 3.355 0 0 1-1.696.872 3.434 3.434 0 0 1-1.914-.181A3.288 3.288 0 0 1 7.77 11.77 3.102 3.102 0 0 1 7.212 10c0-.845.35-1.655.97-2.253a3.383 3.383 0 0 1 2.342-.934Zm0-1.594c-.983 0-1.943.28-2.76.806a4.825 4.825 0 0 0-1.83 2.146 4.613 4.613 0 0 0-.283 2.762c.192.927.665 1.779 1.36 2.447a5.03 5.03 0 0 0 2.544 1.309 5.15 5.15 0 0 0 2.87-.272 4.932 4.932 0 0 0 2.23-1.761c.546-.786.837-1.71.837-2.656a4.691 4.691 0 0 0-1.455-3.38 5.069 5.069 0 0 0-3.513-1.4Z"/></svg>
