<svg xmlns="http://www.w3.org/2000/svg" width="58" height="61" fill="none"><path fill="url(#a)" d="M15.202 10.809a26.808 26.808 0 0 0-1.479-2.103c3.534-2.454 7.794-3.773 12.165-3.767 3.904 0 7.556 1.03 10.67 2.822a10.638 10.638 0 0 1-1.419 3.682c-.142.218-.733.77-1.81 1.535-.48.339-1.008.652-1.644 1.016l-.22.121c-.555.316-1.188.678-1.8 1.078-1.444.943-2.946 2.218-3.958 4.28a5.71 5.71 0 0 0-.355 4.109c.104.38.16.762.163 1.1 0 .105-.044.271-.287.466-.273.213-.614.33-.967.333-3.185-.034-5.7-2.55-6.063-6.566-.278-3.053-1.585-5.877-2.996-8.106Zm24.445 26.605c.78-.009 1.514-.057 2.203-.141-2.63 3.036-6.15 5.253-10.11 6.368-.135-1.075-.046-2.37.619-3.564.568-1.021 2.005-1.786 3.945-2.24a16.862 16.862 0 0 1 3.28-.423h.063Z"/><path fill="url(#b)" d="M5.185 24.691c0-4.853 1.834-9.294 4.874-12.731.302.403.6.838.89 1.298 1.19 1.873 2.11 3.995 2.299 6.066.502 5.559 4.38 10.827 10.957 10.897 2.843.029 6.288-2.009 6.28-5.553 0-.81-.137-1.6-.332-2.3a1.178 1.178 0 0 1 .056-.888c.503-1.027 1.248-1.713 2.266-2.376.473-.31.964-.592 1.532-.914l.227-.13c.64-.364 1.364-.784 2.065-1.28 1.02-.726 2.336-1.745 3.037-2.794.553-.83 1.065-1.894 1.461-3 3.724 3.678 5.801 8.592 5.794 13.705 0 1.501-.177 2.963-.509 4.373a5.254 5.254 0 0 1-.896 1.643c-.7.866-2.105 1.933-5.59 1.966h-.109l-.284.009c-1.378.055-2.747.24-4.087.55-2.245.525-5.534 1.721-7.149 4.625-1.271 2.288-1.42 4.641-1.13 6.566a21.62 21.62 0 0 1-8.208-1.236 20.878 20.878 0 0 1-7.038-4.215 19.772 19.772 0 0 1-4.736-6.515 18.982 18.982 0 0 1-1.67-7.766Z"/><defs><radialGradient id="a" cx="0" cy="0" r="1" gradientTransform="matrix(-18.75083 -19.95295 11.01056 -10.3472 29.404 26.44)" gradientUnits="userSpaceOnUse"><stop offset=".241" stop-color="#154CDB"/><stop offset="1" stop-color="#41BC62"/></radialGradient><radialGradient id="b" cx="0" cy="0" r="1" gradientTransform="matrix(-27.60397 -17.24887 8.57155 -13.71735 28.27 29.573)" gradientUnits="userSpaceOnUse"><stop offset=".241" stop-color="#154CDB"/><stop offset="1" stop-color="#41BC62"/></radialGradient></defs></svg>