<svg xmlns="http://www.w3.org/2000/svg" width="23" height="22" fill="none"><path fill="#1C1F35" d="M11.722.409c-6.072 0-11 4.643-11 10.364 0 5.72 4.928 10.363 11 10.363s11-4.643 11-10.363c0-5.721-4.928-10.364-11-10.364Zm5.104 7.047c-.165 1.638-.88 5.617-1.243 7.452-.154.777-.462 1.036-.748 1.067-.638.052-1.122-.394-1.738-.777-.968-.601-1.518-.974-2.453-1.555-1.089-.673-.385-1.046.242-1.648.165-.155 2.981-2.57 3.036-2.787a.196.196 0 0 0-.055-.187c-.066-.052-.154-.031-.23-.02-.1.02-1.64.984-4.643 2.89-.44.28-.836.426-1.188.415-.396-.01-1.144-.207-1.705-.383-.693-.207-1.232-.321-1.188-.684.022-.187.297-.373.814-.57 3.212-1.316 5.346-2.187 6.413-2.601 3.058-1.203 3.685-1.41 4.103-1.41.088 0 .297.02.43.125.11.082.142.196.153.28-.01.062.011.248 0 .393Z"/></svg>