
<svg xmlns="http://www.w3.org/2000/svg" version="1.1" width="512px" height="512px" style="shape-rendering:geometricPrecision; text-rendering:geometricPrecision; image-rendering:optimizeQuality; fill-rule:evenodd; clip-rule:evenodd" xmlns:xlink="http://www.w3.org/1999/xlink">
<g><path style="opacity:0.982" fill="#f7a900" d="M 233.5,15.5 C 336.655,10.9799 414.488,52.6466 467,140.5C 497.57,199.298 503.903,260.631 486,324.5C 459.003,406.831 404.169,460.997 321.5,487C 235.047,508.551 158.381,490.218 91.5,432C 23.6322,364.053 1.13225,283.219 24,189.5C 50.0028,106.831 104.169,51.9973 186.5,25C 202.057,20.5889 217.723,17.4223 233.5,15.5 Z M 250.5,47.5 C 340.204,49.7905 405.037,90.7905 445,170.5C 472.336,236.786 468.336,301.119 433,363.5C 391.214,427.009 332.047,460.342 255.5,463.5C 186.128,461.233 130.295,432.899 88,378.5C 45.1323,315.892 36.799,248.892 63,177.5C 91.5873,112.251 140.421,70.7509 209.5,53C 223.196,50.2477 236.862,48.4144 250.5,47.5 Z"/></g>
<g><path style="opacity:0.997" fill="#f7a900" d="M 272.5,95.5 C 271.501,143.33 271.168,191.33 271.5,239.5C 308.833,239.5 346.167,239.5 383.5,239.5C 396.722,240.899 401.889,248.233 399,261.5C 397.167,266 394,269.167 389.5,271C 342.833,271.667 296.167,271.667 249.5,271C 245,269.167 241.833,266 240,261.5C 239.333,204.167 239.333,146.833 240,89.5C 245.468,79.087 253.635,76.2537 264.5,81C 269.137,84.777 271.804,89.6103 272.5,95.5 Z"/></g>
<g><path style="opacity:0.016" fill="#ffbe00" d="M 272.5,95.5 C 272.5,143.167 272.5,190.833 272.5,238.5C 309.67,238.168 346.67,238.502 383.5,239.5C 346.167,239.5 308.833,239.5 271.5,239.5C 271.168,191.33 271.501,143.33 272.5,95.5 Z"/></g>
</svg>
