<svg xmlns="http://www.w3.org/2000/svg" width="512" height="512" style="shape-rendering:geometricPrecision;text-rendering:geometricPrecision;image-rendering:optimizeQuality;fill-rule:evenodd;clip-rule:evenodd"><path fill="#f7a900" d="M233.5 15.5c103.155-4.52 180.988 37.147 233.5 125 30.57 58.798 36.903 120.131 19 184-26.997 82.331-81.831 136.497-164.5 162.5-86.453 21.551-163.119 3.218-230-55C23.632 364.053 1.132 283.219 24 189.5 50.003 106.831 104.169 51.997 186.5 25c15.557-4.411 31.223-7.578 47-9.5Zm17 32c89.704 2.29 154.537 43.29 194.5 123 27.336 66.286 23.336 130.619-12 193-41.786 63.509-100.953 96.842-177.5 100-69.372-2.267-125.205-30.601-167.5-85-42.868-62.608-51.201-129.608-25-201C91.587 112.251 140.421 70.75 209.5 53c13.696-2.752 27.362-4.586 41-5.5Z" style="opacity:.982"/><path fill="#f7a900" d="M272.5 95.5c-.999 47.83-1.332 95.83-1 144h112c13.222 1.399 18.389 8.733 15.5 22-1.833 4.5-5 7.667-9.5 9.5-46.667.667-93.333.667-140 0-4.5-1.833-7.667-5-9.5-9.5a7392.554 7392.554 0 0 1 0-172c5.468-10.413 13.635-13.246 24.5-8.5 4.637 3.777 7.304 8.61 8 14.5Z" style="opacity:.997"/><path fill="#ffbe00" d="M272.5 95.5v143c37.17-.332 74.17.002 111 1h-112c-.332-48.17.001-96.17 1-144Z" style="opacity:.016"/></svg>