<svg id="Layer_1" data-name="Layer 1" xmlns="http://www.w3.org/2000/svg" viewBox="0 0 1500 1000"><defs><style>.cls-1{fill:#c63a47;}.cls-2{fill:#00a4d1;}.cls-3{fill:#11af4b;}.cls-4{fill:#fff;}</style></defs><rect class="cls-1" y="660.92" width="1500" height="20.03"/><rect class="cls-2" width="1500" height="319.05"/><polygon class="cls-3" points="0 681.34 0 1000 1500 1000 1500 681.34 1500 680.95 0 680.95 0 681.34"/><rect class="cls-4" y="339.47" width="1500" height="321.45"/><polygon class="cls-1" points="0 321.57 0 339.36 0 339.47 1500 339.47 1500 339.36 1500 321.57 1500 319.05 0 319.05 0 321.57"/><path class="cls-4" d="M286.85,259.58c-47.84,0-86.62-40.78-86.62-91.08S239,77.42,286.85,77.42a82.91,82.91,0,0,1,22.33,3.06,111.58,111.58,0,0,0-63.45-19.62c-61,0-110.5,48.47-110.5,108.26s49.47,108.27,110.5,108.27a111.45,111.45,0,0,0,66.46-21.78A82.49,82.49,0,0,1,286.85,259.58Z"/><polygon class="cls-4" points="518.9 62.17 523.57 76.52 538.67 76.52 526.45 85.39 531.12 99.73 518.9 90.87 506.69 99.73 511.35 85.39 499.14 76.52 514.24 76.52 518.9 62.17"/><polygon class="cls-4" points="606.59 62.17 611.26 76.52 626.36 76.52 614.14 85.39 618.81 99.73 606.59 90.87 594.37 99.73 599.04 85.39 586.82 76.52 601.92 76.52 606.59 62.17"/><polygon class="cls-4" points="693.56 62.17 698.23 76.52 713.33 76.52 701.11 85.39 705.78 99.73 693.56 90.87 681.35 99.73 686.01 85.39 673.79 76.52 688.9 76.52 693.56 62.17"/><polygon class="cls-4" points="518.9 148.35 523.57 162.7 538.67 162.7 526.45 171.57 531.12 185.92 518.9 177.05 506.69 185.92 511.35 171.57 499.14 162.7 514.24 162.7 518.9 148.35"/><polygon class="cls-4" points="431.93 148.35 436.6 162.7 451.7 162.7 439.48 171.57 444.15 185.92 431.93 177.05 419.71 185.92 424.38 171.57 412.16 162.7 427.26 162.7 431.93 148.35"/><polygon class="cls-4" points="431.93 235.96 436.6 250.31 451.7 250.31 439.48 259.18 444.15 273.53 431.93 264.66 419.71 273.53 424.38 259.18 412.16 250.31 427.26 250.31 431.93 235.96"/><polygon class="cls-4" points="344.96 235.96 349.62 250.31 364.72 250.31 352.51 259.18 357.17 273.53 344.96 264.66 332.74 273.53 337.41 259.18 325.19 250.31 340.29 250.31 344.96 235.96"/><polygon class="cls-4" points="606.59 148.35 611.26 162.7 626.36 162.7 614.14 171.57 618.81 185.92 606.59 177.05 594.37 185.92 599.04 171.57 586.82 162.7 601.92 162.7 606.59 148.35"/><polygon class="cls-4" points="693.56 148.35 698.23 162.7 713.33 162.7 701.11 171.57 705.78 185.92 693.56 177.05 681.35 185.92 686.01 171.57 673.79 162.7 688.9 162.7 693.56 148.35"/><polygon class="cls-4" points="518.9 235.96 523.57 250.31 538.67 250.31 526.45 259.18 531.12 273.53 518.9 264.66 506.69 273.53 511.35 259.18 499.14 250.31 514.24 250.31 518.9 235.96"/><polygon class="cls-4" points="606.59 235.96 611.26 250.31 626.36 250.31 614.14 259.18 618.81 273.53 606.59 264.66 594.37 273.53 599.04 259.18 586.82 250.31 601.92 250.31 606.59 235.96"/><polygon class="cls-4" points="693.56 235.96 698.23 250.31 713.33 250.31 701.11 259.18 705.78 273.53 693.56 264.66 681.35 273.53 686.01 259.18 673.79 250.31 688.9 250.31 693.56 235.96"/></svg>